ArchaicCuneiformNumerals-Regular.ufo
<glyph name="u12550" format="2">
  <advance width="1112"/>
  <unicode hex="12550"/>
  <outline>
    <contour>
      <point x="1012" y="310" type="curve"/>
      <point x="1012" y="472"/>
      <point x="246" y="528"/>
      <point x="153" y="528" type="curve"/>
      <point x="100" y="528" type="line"/>
      <point x="100" y="93" type="line"/>
      <point x="153" y="93" type="line"/>
      <point x="246" y="93"/>
      <point x="1012" y="148"/>
    </contour>
    <contour>
      <point x="969" y="310" type="curve"/>
      <point x="969" y="180"/>
      <point x="223" y="133"/>
      <point x="153" y="133" type="curve"/>
      <point x="177" y="147"/>
      <point x="216" y="240"/>
      <point x="216" y="310" type="curve"/>
      <point x="216" y="380"/>
      <point x="181" y="461"/>
      <point x="153" y="487" type="curve"/>
      <point x="223" y="487"/>
      <point x="969" y="440"/>
    </contour>
  </outline>
</glyph>
<glyph name="u12559" format="2">
  <advance width="633"/>
  <unicode hex="12559"/>
  <outline>
    <contour>
      <point x="316" y="141" type="curve"/>
      <point x="469" y="141"/>
      <point x="533" y="381"/>
      <point x="533" y="474" type="curve"/>
      <point x="533" y="527" type="line"/>
      <point x="100" y="527" type="line"/>
      <point x="100" y="474" type="line"/>
      <point x="100" y="381"/>
      <point x="163" y="141"/>
    </contour>
    <contour>
      <point x="316" y="182" type="curve"/>
      <point x="186" y="182"/>
      <point x="140" y="404"/>
      <point x="140" y="474" type="curve"/>
      <point x="154" y="470"/>
      <point x="246" y="441"/>
      <point x="316" y="441" type="curve"/>
      <point x="386" y="441"/>
      <point x="466" y="466"/>
      <point x="492" y="474" type="curve"/>
      <point x="492" y="404"/>
      <point x="446" y="182"/>
    </contour>
  </outline>
</glyph>
<glyph name="u12562" format="2">
  <advance width="600"/>
  <unicode hex="12562"/>
  <outline>
    <contour>
      <point x="300" y="110" type="curve"/>
      <point x="410" y="110"/>
      <point x="500" y="200"/>
      <point x="500" y="310" type="curve"/>
      <point x="500" y="420"/>
      <point x="410" y="510"/>
      <point x="300" y="510" type="curve"/>
      <point x="190" y="510"/>
      <point x="100" y="420"/>
      <point x="100" y="310" type="curve"/>
      <point x="100" y="200"/>
      <point x="190" y="110"/>
    </contour>
  </outline>
</glyph>
<glyph name="u1256B" format="2">
  <advance width="1538"/>
  <unicode hex="1256B"/>
  <outline>
    <contour>
      <point x="1438" y="280" type="curve"/>
      <point x="1438" y="652"/>
      <point x="246" y="700"/>
      <point x="153" y="700" type="curve"/>
      <point x="100" y="700" type="line"/>
      <point x="100" y="-139" type="line"/>
      <point x="153" y="-139" type="line"/>
      <point x="246" y="-139"/>
      <point x="1438" y="-92"/>
    </contour>
    <contour>
      <point x="1397" y="280" type="curve"/>
      <point x="1397" y="-70"/>
      <point x="223" y="-99"/>
      <point x="153" y="-99" type="curve"/>
      <point x="157" y="-85"/>
      <point x="286" y="90"/>
      <point x="286" y="280" type="curve"/>
      <point x="286" y="470"/>
      <point x="161" y="633"/>
      <point x="153" y="659" type="curve"/>
      <point x="223" y="659"/>
      <point x="1397" y="630"/>
    </contour>
  </outline>
</glyph>
<glyph name="u12579" format="2">
  <advance width="1000"/>
  <unicode hex="12579"/>
  <outline>
    <contour>
      <point x="500" y="-116" type="curve"/>
      <point x="721" y="-116"/>
      <point x="900" y="63"/>
      <point x="900" y="284" type="curve"/>
      <point x="900" y="505"/>
      <point x="721" y="684"/>
      <point x="500" y="684" type="curve"/>
      <point x="279" y="684"/>
      <point x="100" y="505"/>
      <point x="100" y="284" type="curve"/>
      <point x="100" y="63"/>
      <point x="279" y="-116"/>
    </contour>
  </outline>
</glyph>
<glyph name="u12582" format="2">
  <advance width="1000"/>
  <unicode hex="12582"/>
  <outline>
    <contour>
      <point x="500" y="-116" type="curve"/>
      <point x="721" y="-116"/>
      <point x="900" y="63"/>
      <point x="900" y="284" type="curve"/>
      <point x="900" y="505"/>
      <point x="721" y="684"/>
      <point x="500" y="684" type="curve"/>
      <point x="279" y="684"/>
      <point x="100" y="505"/>
      <point x="100" y="284" type="curve"/>
      <point x="100" y="63"/>
      <point x="279" y="-116"/>
    </contour>
    <contour>
      <point x="500" y="44" type="curve"/>
      <point x="367" y="44"/>
      <point x="260" y="151"/>
      <point x="260" y="284" type="curve"/>
      <point x="260" y="417"/>
      <point x="367" y="524"/>
      <point x="500" y="524" type="curve"/>
      <point x="633" y="524"/>
      <point x="740" y="417"/>
      <point x="740" y="284" type="curve"/>
      <point x="740" y="151"/>
      <point x="633" y="44"/>
    </contour>
    <contour>
      <point x="500" y="84" type="curve"/>
      <point x="610" y="84"/>
      <point x="700" y="174"/>
      <point x="700" y="284" type="curve"/>
      <point x="700" y="395"/>
      <point x="610" y="484"/>
      <point x="500" y="484" type="curve"/>
      <point x="390" y="484"/>
      <point x="300" y="395"/>
      <point x="300" y="284" type="curve"/>
      <point x="300" y="174"/>
      <point x="390" y="84"/>
    </contour>
  </outline>
</glyph>
<glyph name="u12587" format="2">
  <advance width="694"/>
  <unicode hex="12587"/>
  <outline>
    <contour>
      <point x="100" y="554" type="curve"/>
      <point x="174" y="514"/>
      <point x="508" y="102"/>
      <point x="570" y="9" type="curve"/>
      <point x="594" y="25" type="line"/>
      <point x="532" y="118"/>
      <point x="284" y="580"/>
      <point x="277" y="664" type="curve"/>
      <point x="247" y="636"/>
      <point x="225" y="621"/>
      <point x="192" y="600" type="curve"/>
      <point x="157" y="576"/>
      <point x="133" y="567"/>
    </contour>
  <component base="u12562" xOffset="86"/>
  </outline>
</glyph>
<glyph name="u1258A" format="2">
  <advance width="1052"/>
  <unicode hex="1258A"/>
  <outline>
    <contour>
      <point x="394" y="254" type="line"/>
      <point x="229" y="223"/>
      <point x="100" y="172" type="qcurve"/>
      <point x="112" y="224"/>
      <point x="112" y="310" type="qcurve"/>
      <point x="112" y="390"/>
      <point x="100" y="448" type="qcurve"/>
      <point x="212" y="401"/>
      <point x="394" y="368" type="qcurve"/>
    </contour>
    <contour>
      <point x="754" y="328" type="line"/>
      <point x="849" y="324"/>
      <point x="952" y="324" type="qcurve"/>
      <point x="952" y="298" type="line"/>
      <point x="849" y="298"/>
      <point x="754" y="293" type="qcurve"/>
    </contour>
    <contour>
      <point x="764" y="309" type="curve"/>
      <point x="764" y="462"/>
      <point x="526" y="526"/>
      <point x="434" y="526" type="curve"/>
      <point x="380" y="526" type="line"/>
      <point x="380" y="93" type="line"/>
      <point x="434" y="93" type="line"/>
      <point x="526" y="93"/>
      <point x="764" y="156"/>
    </contour>
    <contour>
      <point x="724" y="309" type="curve"/>
      <point x="724" y="179"/>
      <point x="504" y="133"/>
      <point x="434" y="133" type="curve"/>
      <point x="438" y="147"/>
      <point x="466" y="239"/>
      <point x="466" y="309" type="curve"/>
      <point x="466" y="379"/>
      <point x="442" y="459"/>
      <point x="434" y="485" type="curve"/>
      <point x="504" y="485"/>
      <point x="724" y="439"/>
    </contour>
  </outline>
</glyph>
<glyph name="u1258E" format="2">
  <advance width="816"/>
  <unicode hex="1258E"/>
  <outline>
    <contour>
      <point x="705" y="102" type="curve"/>
      <point x="716" y="112" type="line"/>
      <point x="558" y="285"/>
      <point x="380" y="528"/>
      <point x="335" y="616" type="curve"/>
      <point x="322" y="598"/>
      <point x="305" y="579"/>
      <point x="290" y="565" type="curve"/>
      <point x="275" y="551"/>
      <point x="254" y="535"/>
      <point x="236" y="525" type="curve"/>
      <point x="320" y="473"/>
      <point x="548" y="274"/>
    </contour>
    <contour>
      <point x="608" y="13" type="curve"/>
      <point x="619" y="24" type="line"/>
      <point x="453" y="189"/>
      <point x="265" y="424"/>
      <point x="216" y="510" type="curve"/>
      <point x="204" y="492"/>
      <point x="188" y="472"/>
      <point x="173" y="458" type="curve"/>
      <point x="159" y="443"/>
      <point x="138" y="426"/>
      <point x="121" y="415" type="curve"/>
      <point x="207" y="367"/>
      <point x="443" y="179"/>
    </contour>
    <contour>
      <point x="614" y="566" type="curve"/>
      <point x="604" y="576" type="line"/>
      <point x="431" y="418"/>
      <point x="188" y="240"/>
      <point x="100" y="195" type="curve"/>
      <point x="118" y="182"/>
      <point x="137" y="165"/>
      <point x="150" y="150" type="curve"/>
      <point x="164" y="135"/>
      <point x="181" y="114"/>
      <point x="190" y="96" type="curve"/>
      <point x="243" y="180"/>
      <point x="441" y="408"/>
    </contour>
    <contour>
      <point x="706" y="471" type="curve"/>
      <point x="696" y="481" type="line"/>
      <point x="530" y="315"/>
      <point x="295" y="127"/>
      <point x="209" y="78" type="curve"/>
      <point x="228" y="66"/>
      <point x="247" y="50"/>
      <point x="262" y="35" type="curve"/>
      <point x="276" y="21"/>
      <point x="294" y="0"/>
      <point x="304" y="-17" type="curve"/>
      <point x="353" y="69"/>
      <point x="541" y="305"/>
    </contour>
  <component base="u12562" xOffset="145" yOffset="-3"/>
  </outline>
</glyph>
<glyph name="u12593" format="2">
  <advance width="964"/>
  <unicode hex="12593"/>
  <outline>
    <contour>
      <point x="477" y="-42" type="curve"/>
      <point x="679" y="-42"/>
      <point x="695" y="577"/>
      <point x="695" y="670" type="curve"/>
      <point x="695" y="723" type="line"/>
      <point x="260" y="723" type="line"/>
      <point x="260" y="670" type="line"/>
      <point x="260" y="577"/>
      <point x="275" y="-42"/>
    </contour>
    <contour>
      <point x="477" y="1" type="curve"/>
      <point x="307" y="1"/>
      <point x="300" y="600"/>
      <point x="300" y="670" type="curve"/>
      <point x="314" y="646"/>
      <point x="349" y="527"/>
      <point x="479" y="527" type="curve"/>
      <point x="609" y="527"/>
      <point x="628" y="642"/>
      <point x="654" y="670" type="curve"/>
      <point x="654" y="600"/>
      <point x="647" y="1"/>
    </contour>
    <contour>
      <point x="105" y="364" type="line"/>
      <point x="105" y="337"/>
      <point x="103" y="312"/>
      <point x="100" y="290" type="curve"/>
      <point x="173" y="325"/>
      <point x="711" y="356"/>
      <point x="864" y="356" type="curve"/>
      <point x="864" y="376" type="line"/>
      <point x="711" y="376"/>
      <point x="161" y="412"/>
      <point x="100" y="442" type="curve"/>
      <point x="104" y="417"/>
      <point x="105" y="391"/>
      <point x="105" y="367" type="curve"/>
    </contour>
  </outline>
</glyph>
<glyph name="u12594" format="2">
  <advance width="970"/>
  <unicode hex="12594"/>
  <outline>
    <contour>
      <point x="497" y="-42" type="curve"/>
      <point x="699" y="-42"/>
      <point x="715" y="577"/>
      <point x="715" y="670" type="curve"/>
      <point x="715" y="723" type="line"/>
      <point x="280" y="723" type="line"/>
      <point x="280" y="670" type="line"/>
      <point x="280" y="577"/>
      <point x="295" y="-42"/>
    </contour>
    <contour>
      <point x="497" y="1" type="curve"/>
      <point x="327" y="1"/>
      <point x="320" y="600"/>
      <point x="320" y="670" type="curve"/>
      <point x="334" y="646"/>
      <point x="369" y="527"/>
      <point x="499" y="527" type="curve"/>
      <point x="629" y="527"/>
      <point x="648" y="642"/>
      <point x="674" y="670" type="curve"/>
      <point x="674" y="600"/>
      <point x="667" y="1"/>
    </contour>
    <contour>
      <point x="111" y="408" type="line"/>
      <point x="111" y="381"/>
      <point x="109" y="356"/>
      <point x="106" y="334" type="curve"/>
      <point x="179" y="369"/>
      <point x="717" y="400"/>
      <point x="870" y="400" type="curve"/>
      <point x="870" y="420" type="line"/>
      <point x="717" y="420"/>
      <point x="167" y="456"/>
      <point x="106" y="486" type="curve"/>
      <point x="110" y="461"/>
      <point x="111" y="435"/>
      <point x="111" y="411" type="curve"/>
    </contour>
    <contour>
      <point x="105" y="244" type="line"/>
      <point x="105" y="217"/>
      <point x="103" y="192"/>
      <point x="100" y="170" type="curve"/>
      <point x="173" y="205"/>
      <point x="711" y="236"/>
      <point x="864" y="236" type="curve"/>
      <point x="864" y="256" type="line"/>
      <point x="711" y="256"/>
      <point x="161" y="292"/>
      <point x="100" y="322" type="curve"/>
      <point x="104" y="297"/>
      <point x="105" y="271"/>
      <point x="105" y="247" type="curve"/>
    </contour>
  </outline>
</glyph>
<glyph name="u12595" format="2">
  <advance width="972"/>
  <unicode hex="12595"/>
  <outline>
    <contour>
      <point x="497" y="-42" type="curve"/>
      <point x="699" y="-42"/>
      <point x="715" y="577"/>
      <point x="715" y="670" type="curve"/>
      <point x="715" y="723" type="line"/>
      <point x="280" y="723" type="line"/>
      <point x="280" y="670" type="line"/>
      <point x="280" y="577"/>
      <point x="295" y="-42"/>
    </contour>
    <contour>
      <point x="497" y="1" type="curve"/>
      <point x="327" y="1"/>
      <point x="320" y="600"/>
      <point x="320" y="670" type="curve"/>
      <point x="334" y="646"/>
      <point x="369" y="527"/>
      <point x="499" y="527" type="curve"/>
      <point x="629" y="527"/>
      <point x="648" y="642"/>
      <point x="674" y="670" type="curve"/>
      <point x="674" y="600"/>
      <point x="667" y="1"/>
    </contour>
    <contour>
      <point x="113" y="485" type="line"/>
      <point x="113" y="458"/>
      <point x="111" y="433"/>
      <point x="108" y="411" type="curve"/>
      <point x="181" y="446"/>
      <point x="719" y="477"/>
      <point x="872" y="477" type="curve"/>
      <point x="872" y="497" type="line"/>
      <point x="719" y="497"/>
      <point x="169" y="533"/>
      <point x="108" y="563" type="curve"/>
      <point x="112" y="538"/>
      <point x="113" y="512"/>
      <point x="113" y="488" type="curve"/>
    </contour>
    <contour>
      <point x="107" y="320" type="line"/>
      <point x="107" y="293"/>
      <point x="105" y="268"/>
      <point x="102" y="246" type="curve"/>
      <point x="175" y="281"/>
      <point x="713" y="312"/>
      <point x="866" y="312" type="curve"/>
      <point x="866" y="332" type="line"/>
      <point x="713" y="332"/>
      <point x="163" y="368"/>
      <point x="102" y="398" type="curve"/>
      <point x="106" y="373"/>
      <point x="107" y="347"/>
      <point x="107" y="323" type="curve"/>
    </contour>
    <contour>
      <point x="105" y="151" type="line"/>
      <point x="105" y="124"/>
      <point x="103" y="99"/>
      <point x="100" y="77" type="curve"/>
      <point x="173" y="112"/>
      <point x="711" y="143"/>
      <point x="864" y="143" type="curve"/>
      <point x="864" y="163" type="line"/>
      <point x="711" y="163"/>
      <point x="161" y="199"/>
      <point x="100" y="229" type="curve"/>
      <point x="104" y="204"/>
      <point x="105" y="178"/>
      <point x="105" y="154" type="curve"/>
    </contour>
  </outline>
</glyph>
<glyph name="u12596" format="2">
  <advance width="972"/>
  <unicode hex="12596"/>
  <outline>
    <contour>
      <point x="497" y="-42" type="curve"/>
      <point x="699" y="-42"/>
      <point x="715" y="577"/>
      <point x="715" y="670" type="curve"/>
      <point x="715" y="723" type="line"/>
      <point x="280" y="723" type="line"/>
      <point x="280" y="670" type="line"/>
      <point x="280" y="577"/>
      <point x="295" y="-42"/>
    </contour>
    <contour>
      <point x="497" y="1" type="curve"/>
      <point x="327" y="1"/>
      <point x="320" y="600"/>
      <point x="320" y="670" type="curve"/>
      <point x="334" y="646"/>
      <point x="369" y="527"/>
      <point x="499" y="527" type="curve"/>
      <point x="629" y="527"/>
      <point x="648" y="642"/>
      <point x="674" y="670" type="curve"/>
      <point x="674" y="600"/>
      <point x="667" y="1"/>
    </contour>
    <contour>
      <point x="105" y="525" type="line"/>
      <point x="105" y="498"/>
      <point x="103" y="473"/>
      <point x="100" y="451" type="curve"/>
      <point x="173" y="486"/>
      <point x="719" y="517"/>
      <point x="872" y="517" type="curve"/>
      <point x="872" y="537" type="line"/>
      <point x="719" y="537"/>
      <point x="161" y="573"/>
      <point x="100" y="603" type="curve"/>
      <point x="104" y="578"/>
      <point x="105" y="552"/>
      <point x="105" y="528" type="curve"/>
    </contour>
    <contour>
      <point x="105" y="363" type="line"/>
      <point x="105" y="336"/>
      <point x="103" y="311"/>
      <point x="100" y="289" type="curve"/>
      <point x="173" y="324"/>
      <point x="719" y="355"/>
      <point x="872" y="355" type="curve"/>
      <point x="872" y="375" type="line"/>
      <point x="719" y="375"/>
      <point x="161" y="411"/>
      <point x="100" y="441" type="curve"/>
      <point x="104" y="416"/>
      <point x="105" y="390"/>
      <point x="105" y="366" type="curve"/>
    </contour>
    <contour>
      <point x="105" y="204" type="line"/>
      <point x="105" y="177"/>
      <point x="103" y="152"/>
      <point x="100" y="130" type="curve"/>
      <point x="173" y="165"/>
      <point x="719" y="196"/>
      <point x="872" y="196" type="curve"/>
      <point x="872" y="216" type="line"/>
      <point x="719" y="216"/>
      <point x="161" y="252"/>
      <point x="100" y="282" type="curve"/>
      <point x="104" y="257"/>
      <point x="105" y="231"/>
      <point x="105" y="207" type="curve"/>
    </contour>
    <contour>
      <point x="105" y="43" type="line"/>
      <point x="105" y="16"/>
      <point x="103" y="-9"/>
      <point x="100" y="-31" type="curve"/>
      <point x="173" y="4"/>
      <point x="719" y="35"/>
      <point x="872" y="35" type="curve"/>
      <point x="872" y="55" type="line"/>
      <point x="719" y="55"/>
      <point x="161" y="91"/>
      <point x="100" y="121" type="curve"/>
      <point x="104" y="96"/>
      <point x="105" y="70"/>
      <point x="105" y="46" type="curve"/>
    </contour>
  </outline>
</glyph>
<glyph name="u12597" format="2">
  <advance width="978"/>
  <unicode hex="12597"/>
  <outline>
    <contour>
      <point x="497" y="-42" type="curve"/>
      <point x="699" y="-42"/>
      <point x="715" y="577"/>
      <point x="715" y="670" type="curve"/>
      <point x="715" y="723" type="line"/>
      <point x="280" y="723" type="line"/>
      <point x="280" y="670" type="line"/>
      <point x="280" y="577"/>
      <point x="295" y="-42"/>
    </contour>
    <contour>
      <point x="497" y="1" type="curve"/>
      <point x="327" y="1"/>
      <point x="320" y="600"/>
      <point x="320" y="670" type="curve"/>
      <point x="334" y="646"/>
      <point x="369" y="527"/>
      <point x="499" y="527" type="curve"/>
      <point x="629" y="527"/>
      <point x="648" y="642"/>
      <point x="674" y="670" type="curve"/>
      <point x="674" y="600"/>
      <point x="667" y="1"/>
    </contour>
    <contour>
      <point x="119" y="599" type="line"/>
      <point x="119" y="572"/>
      <point x="117" y="547"/>
      <point x="114" y="525" type="curve"/>
      <point x="187" y="560"/>
      <point x="725" y="591"/>
      <point x="878" y="591" type="curve"/>
      <point x="878" y="611" type="line"/>
      <point x="725" y="611"/>
      <point x="175" y="647"/>
      <point x="114" y="677" type="curve"/>
      <point x="118" y="652"/>
      <point x="119" y="626"/>
      <point x="119" y="602" type="curve"/>
    </contour>
    <contour>
      <point x="113" y="452" type="line"/>
      <point x="113" y="425"/>
      <point x="111" y="400"/>
      <point x="108" y="378" type="curve"/>
      <point x="181" y="413"/>
      <point x="719" y="444"/>
      <point x="872" y="444" type="curve"/>
      <point x="872" y="464" type="line"/>
      <point x="719" y="464"/>
      <point x="169" y="500"/>
      <point x="108" y="530" type="curve"/>
      <point x="112" y="505"/>
      <point x="113" y="479"/>
      <point x="113" y="455" type="curve"/>
    </contour>
    <contour>
      <point x="111" y="302" type="line"/>
      <point x="111" y="275"/>
      <point x="109" y="250"/>
      <point x="106" y="228" type="curve"/>
      <point x="179" y="263"/>
      <point x="717" y="294"/>
      <point x="870" y="294" type="curve"/>
      <point x="870" y="314" type="line"/>
      <point x="717" y="314"/>
      <point x="167" y="350"/>
      <point x="106" y="380" type="curve"/>
      <point x="110" y="355"/>
      <point x="111" y="329"/>
      <point x="111" y="305" type="curve"/>
    </contour>
    <contour>
      <point x="106" y="152" type="line"/>
      <point x="106" y="125"/>
      <point x="104" y="100"/>
      <point x="101" y="78" type="curve"/>
      <point x="174" y="113"/>
      <point x="712" y="144"/>
      <point x="865" y="144" type="curve"/>
      <point x="865" y="164" type="line"/>
      <point x="712" y="164"/>
      <point x="162" y="200"/>
      <point x="101" y="230" type="curve"/>
      <point x="105" y="205"/>
      <point x="106" y="179"/>
      <point x="106" y="155" type="curve"/>
    </contour>
    <contour>
      <point x="105" y="1" type="line"/>
      <point x="105" y="-26"/>
      <point x="103" y="-51"/>
      <point x="100" y="-73" type="curve"/>
      <point x="173" y="-38"/>
      <point x="711" y="-7"/>
      <point x="864" y="-7" type="curve"/>
      <point x="864" y="13" type="line"/>
      <point x="711" y="13"/>
      <point x="161" y="49"/>
      <point x="100" y="79" type="curve"/>
      <point x="104" y="54"/>
      <point x="105" y="28"/>
      <point x="105" y="4" type="curve"/>
    </contour>
  </outline>
</glyph>
<glyph name="u12599" format="2">
  <advance width="1890"/>
  <unicode hex="12599"/>
  <outline>
    <contour>
      <point x="499" y="-118" type="curve"/>
      <point x="642" y="-75"/>
      <point x="1298" y="-38"/>
      <point x="1547" y="-38" type="curve"/>
      <point x="1547" y="-6" type="line"/>
      <point x="1331" y="-6"/>
      <point x="811" y="36"/>
      <point x="582" y="78" type="curve"/>
      <point x="557" y="114"/>
      <point x="528" y="165"/>
      <point x="518" y="186" type="curve"/>
      <point x="529" y="208"/>
      <point x="571" y="284"/>
      <point x="597" y="320" type="curve"/>
      <point x="571" y="356"/>
      <point x="529" y="424"/>
      <point x="518" y="446" type="curve"/>
      <point x="529" y="467"/>
      <point x="560" y="524"/>
      <point x="585" y="560" type="curve"/>
      <point x="807" y="595"/>
      <point x="1288" y="622"/>
      <point x="1547" y="622" type="curve"/>
      <point x="1547" y="654" type="line"/>
      <point x="1241" y="654"/>
      <point x="641" y="710"/>
      <point x="499" y="758" type="curve"/>
      <point x="507" y="724"/>
      <point x="512" y="690"/>
      <point x="512" y="655" type="curve"/>
      <point x="512" y="620"/>
      <point x="507" y="582"/>
      <point x="499" y="542" type="curve"/>
      <point x="512" y="546"/>
      <point x="530" y="550"/>
      <point x="550" y="554" type="curve"/>
      <point x="490" y="501"/>
      <point x="458" y="481"/>
      <point x="429" y="463" type="curve"/>
      <point x="254" y="477"/>
      <point x="134" y="528"/>
      <point x="100" y="543" type="curve"/>
      <point x="104" y="524"/>
      <point x="106" y="491"/>
      <point x="106" y="458" type="curve"/>
      <point x="106" y="418"/>
      <point x="103" y="376"/>
      <point x="100" y="354" type="curve"/>
      <point x="134" y="369"/>
      <point x="273" y="415"/>
      <point x="423" y="431" type="curve"/>
      <point x="457" y="408"/>
      <point x="498" y="380"/>
      <point x="567" y="317" type="curve"/>
      <point x="500" y="257"/>
      <point x="461" y="226"/>
      <point x="428" y="203" type="curve"/>
      <point x="253" y="217"/>
      <point x="134" y="268"/>
      <point x="100" y="283" type="curve"/>
      <point x="104" y="264"/>
      <point x="106" y="231"/>
      <point x="106" y="198" type="curve"/>
      <point x="106" y="158"/>
      <point x="103" y="116"/>
      <point x="100" y="94" type="curve"/>
      <point x="134" y="109"/>
      <point x="273" y="155"/>
      <point x="423" y="171" type="curve"/>
      <point x="451" y="153"/>
      <point x="482" y="134"/>
      <point x="537" y="87" type="curve"/>
      <point x="522" y="91"/>
      <point x="509" y="94"/>
      <point x="499" y="98" type="curve"/>
      <point x="507" y="64"/>
      <point x="512" y="30"/>
      <point x="512" y="-5" type="curve"/>
      <point x="512" y="-40"/>
      <point x="507" y="-78"/>
    </contour>
    <contour>
      <point x="780" y="88" type="curve"/>
      <point x="795" y="99" type="line"/>
      <point x="769" y="138"/>
      <point x="756" y="169"/>
      <point x="737" y="201" type="curve"/>
      <point x="756" y="231"/>
      <point x="769" y="264"/>
      <point x="795" y="304" type="curve"/>
      <point x="780" y="307" type="line"/>
      <point x="710" y="244"/>
      <point x="680" y="227"/>
      <point x="650" y="201" type="curve"/>
      <point x="696" y="170"/>
      <point x="711" y="154"/>
    </contour>
    <contour>
      <point x="867" y="98" type="curve"/>
      <point x="877" y="108" type="line"/>
      <point x="857" y="141"/>
      <point x="843" y="168"/>
      <point x="827" y="196" type="curve"/>
      <point x="861" y="171"/>
      <point x="879" y="153"/>
      <point x="938" y="98" type="curve"/>
      <point x="951" y="108" type="line"/>
      <point x="929" y="141"/>
      <point x="916" y="169"/>
      <point x="900" y="197" type="curve"/>
      <point x="937" y="171"/>
      <point x="954" y="154"/>
      <point x="1012" y="98" type="curve"/>
      <point x="1025" y="108" type="line"/>
      <point x="1003" y="143"/>
      <point x="990" y="172"/>
      <point x="975" y="201" type="curve"/>
      <point x="990" y="228"/>
      <point x="1003" y="256"/>
      <point x="1025" y="292" type="curve"/>
      <point x="1012" y="298" type="line"/>
      <point x="954" y="245"/>
      <point x="926" y="226"/>
      <point x="902" y="207" type="curve"/>
      <point x="917" y="232"/>
      <point x="929" y="258"/>
      <point x="951" y="292" type="curve"/>
      <point x="938" y="298" type="line"/>
      <point x="880" y="246"/>
      <point x="853" y="227"/>
      <point x="828" y="208" type="curve"/>
      <point x="844" y="233"/>
      <point x="858" y="259"/>
      <point x="877" y="292" type="curve"/>
      <point x="867" y="298" type="line"/>
      <point x="800" y="240"/>
      <point x="773" y="223"/>
      <point x="748" y="201" type="curve"/>
      <point x="786" y="173"/>
      <point x="801" y="157"/>
    </contour>
    <contour>
      <point x="780" y="328" type="curve"/>
      <point x="795" y="338" type="line"/>
      <point x="769" y="376"/>
      <point x="756" y="408"/>
      <point x="737" y="439" type="curve"/>
      <point x="756" y="470"/>
      <point x="769" y="502"/>
      <point x="795" y="541" type="curve"/>
      <point x="780" y="547" type="line"/>
      <point x="710" y="483"/>
      <point x="680" y="465"/>
      <point x="650" y="439" type="curve"/>
      <point x="696" y="409"/>
      <point x="711" y="391"/>
    </contour>
    <contour>
      <point x="1111" y="88" type="curve"/>
      <point x="1124" y="99" type="line"/>
      <point x="1098" y="138"/>
      <point x="1084" y="169"/>
      <point x="1066" y="201" type="curve"/>
      <point x="1084" y="231"/>
      <point x="1098" y="264"/>
      <point x="1124" y="304" type="curve"/>
      <point x="1111" y="307" type="line"/>
      <point x="1039" y="244"/>
      <point x="1009" y="227"/>
      <point x="979" y="201" type="curve"/>
      <point x="1024" y="170"/>
      <point x="1041" y="154"/>
    </contour>
    <contour>
      <point x="867" y="337" type="curve"/>
      <point x="877" y="347" type="line"/>
      <point x="857" y="379"/>
      <point x="843" y="407"/>
      <point x="827" y="434" type="curve"/>
      <point x="861" y="410"/>
      <point x="879" y="392"/>
      <point x="938" y="337" type="curve"/>
      <point x="951" y="347" type="line"/>
      <point x="929" y="379"/>
      <point x="916" y="408"/>
      <point x="900" y="435" type="curve"/>
      <point x="937" y="410"/>
      <point x="954" y="393"/>
      <point x="1012" y="337" type="curve"/>
      <point x="1025" y="347" type="line"/>
      <point x="1003" y="381"/>
      <point x="990" y="411"/>
      <point x="975" y="439" type="curve"/>
      <point x="990" y="467"/>
      <point x="1003" y="496"/>
      <point x="1025" y="532" type="curve"/>
      <point x="1012" y="537" type="line"/>
      <point x="954" y="483"/>
      <point x="926" y="465"/>
      <point x="901" y="444" type="curve"/>
      <point x="917" y="471"/>
      <point x="929" y="498"/>
      <point x="951" y="532" type="curve"/>
      <point x="938" y="537" type="line"/>
      <point x="880" y="483"/>
      <point x="853" y="465"/>
      <point x="828" y="445" type="curve"/>
      <point x="843" y="471"/>
      <point x="857" y="498"/>
      <point x="877" y="532" type="curve"/>
      <point x="867" y="537" type="line"/>
      <point x="800" y="478"/>
      <point x="773" y="462"/>
      <point x="748" y="439" type="curve"/>
      <point x="786" y="412"/>
      <point x="801" y="396"/>
    </contour>
    <contour>
      <point x="1111" y="328" type="curve"/>
      <point x="1124" y="338" type="line"/>
      <point x="1098" y="376"/>
      <point x="1084" y="408"/>
      <point x="1066" y="439" type="curve"/>
      <point x="1084" y="470"/>
      <point x="1098" y="502"/>
      <point x="1124" y="541" type="curve"/>
      <point x="1111" y="547" type="line"/>
      <point x="1039" y="483"/>
      <point x="1009" y="465"/>
      <point x="979" y="439" type="curve"/>
      <point x="1024" y="409"/>
      <point x="1041" y="391"/>
    </contour>
    <contour>
      <point x="1468" y="317" type="curve"/>
      <point x="1468" y="420"/>
      <point x="1245" y="468"/>
      <point x="1189" y="468" type="curve"/>
      <point x="1156" y="468" type="line"/>
      <point x="1156" y="166" type="line"/>
      <point x="1189" y="166" type="line"/>
      <point x="1245" y="166"/>
      <point x="1468" y="214"/>
    </contour>
    <contour>
      <point x="1443" y="317" type="curve"/>
      <point x="1443" y="228"/>
      <point x="1231" y="191"/>
      <point x="1189" y="191" type="curve"/>
      <point x="1191" y="199"/>
      <point x="1209" y="274"/>
      <point x="1209" y="317" type="curve"/>
      <point x="1209" y="360"/>
      <point x="1194" y="428"/>
      <point x="1189" y="443" type="curve"/>
      <point x="1231" y="443"/>
      <point x="1443" y="406"/>
    </contour>
    <contour>
      <point x="1790" y="317" type="curve"/>
      <point x="1790" y="420"/>
      <point x="1563" y="468"/>
      <point x="1507" y="468" type="curve"/>
      <point x="1474" y="468" type="line"/>
      <point x="1474" y="166" type="line"/>
      <point x="1507" y="166" type="line"/>
      <point x="1563" y="166"/>
      <point x="1790" y="214"/>
    </contour>
    <contour>
      <point x="1765" y="317" type="curve"/>
      <point x="1765" y="228"/>
      <point x="1549" y="191"/>
      <point x="1507" y="191" type="curve"/>
      <point x="1509" y="199"/>
      <point x="1527" y="274"/>
      <point x="1527" y="317" type="curve"/>
      <point x="1527" y="360"/>
      <point x="1512" y="428"/>
      <point x="1507" y="443" type="curve"/>
      <point x="1549" y="443"/>
      <point x="1765" y="406"/>
    </contour>
  </outline>
</glyph>
<glyph name="u125A8" format="2">
  <advance width="1000"/>
  <unicode hex="125A8"/>
  <outline>
    <contour>
      <point x="500" y="285" type="curve"/>
      <point x="610" y="285"/>
      <point x="700" y="374"/>
      <point x="700" y="485" type="curve"/>
      <point x="700" y="596"/>
      <point x="610" y="685"/>
      <point x="500" y="685" type="curve"/>
      <point x="390" y="685"/>
      <point x="300" y="596"/>
      <point x="300" y="485" type="curve"/>
      <point x="300" y="374"/>
      <point x="390" y="285"/>
    </contour>
    <contour>
      <point x="500" y="-115" type="curve"/>
      <point x="610" y="-115"/>
      <point x="700" y="-26"/>
      <point x="700" y="85" type="curve"/>
      <point x="700" y="196"/>
      <point x="610" y="285"/>
      <point x="500" y="285" type="curve"/>
      <point x="390" y="285"/>
      <point x="300" y="196"/>
      <point x="300" y="85" type="curve"/>
      <point x="300" y="-26"/>
      <point x="390" y="-115"/>
    </contour>
    <contour>
      <point x="366" y="284" type="curve"/>
      <point x="302" y="327"/>
      <point x="260" y="400"/>
      <point x="260" y="483" type="curve"/>
      <point x="260" y="544"/>
      <point x="282" y="599"/>
      <point x="319" y="641" type="curve"/>
      <point x="189" y="575"/>
      <point x="100" y="440"/>
      <point x="100" y="284" type="curve"/>
      <point x="100" y="128"/>
      <point x="189" y="-7"/>
      <point x="319" y="-73" type="curve"/>
      <point x="282" y="-31"/>
      <point x="260" y="24"/>
      <point x="260" y="85" type="curve"/>
      <point x="260" y="168"/>
      <point x="302" y="241"/>
    </contour>
    <contour>
      <point x="681" y="-73" type="curve"/>
      <point x="811" y="-7"/>
      <point x="900" y="128"/>
      <point x="900" y="284" type="curve"/>
      <point x="900" y="440"/>
      <point x="811" y="575"/>
      <point x="681" y="641" type="curve"/>
      <point x="718" y="599"/>
      <point x="740" y="544"/>
      <point x="740" y="483" type="curve"/>
      <point x="740" y="400"/>
      <point x="698" y="327"/>
      <point x="634" y="284" type="curve"/>
      <point x="698" y="241"/>
      <point x="740" y="168"/>
      <point x="740" y="85" type="curve"/>
      <point x="740" y="24"/>
      <point x="718" y="-31"/>
    </contour>
  </outline>
</glyph>
<glyph name="u125AB" format="2">
  <advance width="1105"/>
  <unicode hex="125AB"/>
  <outline>
    <contour>
      <point x="541" y="321" type="curve"/>
      <point x="694" y="321"/>
      <point x="758" y="560"/>
      <point x="758" y="653" type="curve"/>
      <point x="758" y="706" type="line"/>
      <point x="325" y="706" type="line"/>
      <point x="325" y="653" type="line"/>
      <point x="325" y="560"/>
      <point x="388" y="321"/>
    </contour>
    <contour>
      <point x="541" y="362" type="curve"/>
      <point x="411" y="362"/>
      <point x="365" y="583"/>
      <point x="365" y="653" type="curve"/>
      <point x="379" y="649"/>
      <point x="471" y="620"/>
      <point x="541" y="620" type="curve"/>
      <point x="611" y="620"/>
      <point x="691" y="645"/>
      <point x="717" y="653" type="curve"/>
      <point x="717" y="583"/>
      <point x="671" y="362"/>
    </contour>
    <contour>
      <point x="542" y="301" type="curve"/>
      <point x="465" y="434"/>
      <point x="226" y="370"/>
      <point x="146" y="323" type="curve"/>
      <point x="100" y="297" type="line"/>
      <point x="316" y="-78" type="line"/>
      <point x="362" y="-52" type="line"/>
      <point x="443" y="-5"/>
      <point x="618" y="169"/>
    </contour>
    <contour>
      <point x="506" y="281" type="curve"/>
      <point x="571" y="168"/>
      <point x="403" y="18"/>
      <point x="342" y="-17" type="curve"/>
      <point x="339" y="-3"/>
      <point x="318" y="91"/>
      <point x="283" y="152" type="curve"/>
      <point x="248" y="212"/>
      <point x="186" y="269"/>
      <point x="166" y="288" type="curve"/>
      <point x="227" y="323"/>
      <point x="441" y="393"/>
    </contour>
    <contour>
      <point x="563" y="314" type="curve"/>
      <point x="487" y="182"/>
      <point x="662" y="7"/>
      <point x="743" y="-40" type="curve"/>
      <point x="788" y="-66" type="line"/>
      <point x="1005" y="309" type="line"/>
      <point x="959" y="335" type="line"/>
      <point x="878" y="382"/>
      <point x="640" y="447"/>
    </contour>
    <contour>
      <point x="599" y="294" type="curve"/>
      <point x="664" y="406"/>
      <point x="878" y="335"/>
      <point x="939" y="300" type="curve"/>
      <point x="929" y="290"/>
      <point x="857" y="225"/>
      <point x="822" y="165" type="curve"/>
      <point x="787" y="104"/>
      <point x="769" y="22"/>
      <point x="763" y="-4" type="curve"/>
      <point x="702" y="31"/>
      <point x="534" y="181"/>
    </contour>
  </outline>
</glyph>
<glyph name="u125AD" format="2">
  <advance width="1162"/>
  <unicode hex="125AD"/>
  <outline>
    <contour>
      <point x="618" y="417" type="curve"/>
      <point x="771" y="417"/>
      <point x="835" y="656"/>
      <point x="835" y="749" type="curve"/>
      <point x="835" y="802" type="line"/>
      <point x="402" y="802" type="line"/>
      <point x="402" y="749" type="line"/>
      <point x="402" y="656"/>
      <point x="465" y="417"/>
    </contour>
    <contour>
      <point x="618" y="458" type="curve"/>
      <point x="488" y="458"/>
      <point x="442" y="679"/>
      <point x="442" y="749" type="curve"/>
      <point x="456" y="745"/>
      <point x="548" y="716"/>
      <point x="618" y="716" type="curve"/>
      <point x="688" y="716"/>
      <point x="768" y="741"/>
      <point x="794" y="749" type="curve"/>
      <point x="794" y="679"/>
      <point x="748" y="458"/>
    </contour>
    <contour>
      <point x="677" y="308" type="curve"/>
      <point x="677" y="155"/>
      <point x="916" y="91"/>
      <point x="1009" y="91" type="curve"/>
      <point x="1062" y="91" type="line"/>
      <point x="1062" y="524" type="line"/>
      <point x="1009" y="524" type="line"/>
      <point x="916" y="524"/>
      <point x="677" y="461"/>
    </contour>
    <contour>
      <point x="718" y="308" type="curve"/>
      <point x="718" y="438"/>
      <point x="939" y="484"/>
      <point x="1009" y="484" type="curve"/>
      <point x="1005" y="470"/>
      <point x="976" y="378"/>
      <point x="976" y="308" type="curve"/>
      <point x="976" y="238"/>
      <point x="1001" y="158"/>
      <point x="1009" y="132" type="curve"/>
      <point x="939" y="132"/>
      <point x="718" y="178"/>
    </contour>
    <contour>
      <point x="619" y="152" type="curve"/>
      <point x="466" y="152"/>
      <point x="402" y="-87"/>
      <point x="402" y="-180" type="curve"/>
      <point x="402" y="-233" type="line"/>
      <point x="835" y="-233" type="line"/>
      <point x="835" y="-180" type="line"/>
      <point x="835" y="-87"/>
      <point x="772" y="152"/>
    </contour>
    <contour>
      <point x="619" y="111" type="curve"/>
      <point x="749" y="111"/>
      <point x="795" y="-110"/>
      <point x="795" y="-180" type="curve"/>
      <point x="781" y="-176"/>
      <point x="689" y="-147"/>
      <point x="619" y="-147" type="curve"/>
      <point x="549" y="-147"/>
      <point x="469" y="-172"/>
      <point x="443" y="-180" type="curve"/>
      <point x="443" y="-110"/>
      <point x="489" y="111"/>
    </contour>
    <contour>
      <point x="485" y="80" type="curve"/>
      <point x="485" y="233"/>
      <point x="246" y="297"/>
      <point x="153" y="297" type="curve"/>
      <point x="100" y="297" type="line"/>
      <point x="100" y="-136" type="line"/>
      <point x="153" y="-136" type="line"/>
      <point x="246" y="-136"/>
      <point x="485" y="-73"/>
    </contour>
    <contour>
      <point x="444" y="80" type="curve"/>
      <point x="444" y="-50"/>
      <point x="223" y="-96"/>
      <point x="153" y="-96" type="curve"/>
      <point x="157" y="-82"/>
      <point x="186" y="10"/>
      <point x="186" y="80" type="curve"/>
      <point x="186" y="150"/>
      <point x="161" y="230"/>
      <point x="153" y="256" type="curve"/>
      <point x="223" y="256"/>
      <point x="444" y="210"/>
    </contour>
    <contour>
      <point x="485" y="485" type="curve"/>
      <point x="485" y="638"/>
      <point x="246" y="702"/>
      <point x="153" y="702" type="curve"/>
      <point x="100" y="702" type="line"/>
      <point x="100" y="269" type="line"/>
      <point x="153" y="269" type="line"/>
      <point x="246" y="269"/>
      <point x="485" y="332"/>
    </contour>
    <contour>
      <point x="444" y="485" type="curve"/>
      <point x="444" y="355"/>
      <point x="223" y="309"/>
      <point x="153" y="309" type="curve"/>
      <point x="157" y="323"/>
      <point x="186" y="415"/>
      <point x="186" y="485" type="curve"/>
      <point x="186" y="555"/>
      <point x="161" y="635"/>
      <point x="153" y="661" type="curve"/>
      <point x="223" y="661"/>
      <point x="444" y="615"/>
    </contour>
  </outline>
</glyph>
<glyph name="u125AE" format="2">
  <advance width="1385"/>
  <unicode hex="125AE"/>
  <outline>
    <contour>
      <point x="697" y="500" type="curve"/>
      <point x="850" y="500"/>
      <point x="914" y="739"/>
      <point x="914" y="832" type="curve"/>
      <point x="914" y="885" type="line"/>
      <point x="481" y="885" type="line"/>
      <point x="481" y="832" type="line"/>
      <point x="481" y="739"/>
      <point x="544" y="500"/>
    </contour>
    <contour>
      <point x="697" y="541" type="curve"/>
      <point x="567" y="541"/>
      <point x="521" y="762"/>
      <point x="521" y="832" type="curve"/>
      <point x="535" y="828"/>
      <point x="627" y="799"/>
      <point x="697" y="799" type="curve"/>
      <point x="767" y="799"/>
      <point x="847" y="824"/>
      <point x="873" y="832" type="curve"/>
      <point x="873" y="762"/>
      <point x="827" y="541"/>
    </contour>
    <contour>
      <point x="533" y="355" type="curve"/>
      <point x="580" y="500"/>
      <point x="373" y="635"/>
      <point x="284" y="664" type="curve"/>
      <point x="234" y="680" type="line"/>
      <point x="100" y="268" type="line"/>
      <point x="150" y="252" type="line"/>
      <point x="239" y="223"/>
      <point x="486" y="209"/>
    </contour>
    <contour>
      <point x="494" y="367" type="curve"/>
      <point x="454" y="244"/>
      <point x="229" y="268"/>
      <point x="163" y="290" type="curve"/>
      <point x="171" y="302"/>
      <point x="227" y="380"/>
      <point x="249" y="447" type="curve"/>
      <point x="270" y="514"/>
      <point x="271" y="597"/>
      <point x="272" y="625" type="curve"/>
      <point x="338" y="603"/>
      <point x="534" y="491"/>
    </contour>
    <contour>
      <point x="565" y="165" type="curve"/>
      <point x="441" y="255"/>
      <point x="249" y="99"/>
      <point x="194" y="24" type="curve"/>
      <point x="163" y="-19" type="line"/>
      <point x="513" y="-274" type="line"/>
      <point x="544" y="-231" type="line"/>
      <point x="599" y="-156"/>
      <point x="689" y="75"/>
    </contour>
    <contour>
      <point x="541" y="131" type="curve"/>
      <point x="646" y="55"/>
      <point x="553" y="-151"/>
      <point x="512" y="-207" type="curve"/>
      <point x="503" y="-196"/>
      <point x="446" y="-118"/>
      <point x="389" y="-77" type="curve"/>
      <point x="332" y="-36"/>
      <point x="253" y="-9"/>
      <point x="227" y="-1" type="curve"/>
      <point x="268" y="56"/>
      <point x="435" y="208"/>
    </contour>
    <contour>
      <point x="790" y="134" type="curve"/>
      <point x="666" y="44"/>
      <point x="755" y="-187"/>
      <point x="809" y="-262" type="curve"/>
      <point x="841" y="-305" type="line"/>
      <point x="1191" y="-51" type="line"/>
      <point x="1160" y="-8" type="line"/>
      <point x="1105" y="68"/>
      <point x="914" y="224"/>
    </contour>
    <contour>
      <point x="814" y="101" type="curve"/>
      <point x="919" y="177"/>
      <point x="1086" y="25"/>
      <point x="1127" y="-31" type="curve"/>
      <point x="1114" y="-36"/>
      <point x="1022" y="-67"/>
      <point x="966" y="-108" type="curve"/>
      <point x="909" y="-149"/>
      <point x="859" y="-216"/>
      <point x="843" y="-238" type="curve"/>
      <point x="801" y="-181"/>
      <point x="709" y="24"/>
    </contour>
    <contour>
      <point x="852" y="330" type="curve"/>
      <point x="899" y="184"/>
      <point x="1146" y="197"/>
      <point x="1235" y="226" type="curve"/>
      <point x="1285" y="242" type="line"/>
      <point x="1151" y="654" type="line"/>
      <point x="1101" y="638" type="line"/>
      <point x="1012" y="609"/>
      <point x="805" y="475"/>
    </contour>
    <contour>
      <point x="891" y="342" type="curve"/>
      <point x="851" y="466"/>
      <point x="1047" y="578"/>
      <point x="1113" y="600" type="curve"/>
      <point x="1114" y="585"/>
      <point x="1115" y="489"/>
      <point x="1136" y="422" type="curve"/>
      <point x="1158" y="356"/>
      <point x="1206" y="287"/>
      <point x="1222" y="265" type="curve"/>
      <point x="1155" y="243"/>
      <point x="931" y="219"/>
    </contour>
    <contour>
      <point x="502" y="238" type="curve"/>
      <point x="549" y="92"/>
      <point x="796" y="105"/>
      <point x="885" y="134" type="curve"/>
      <point x="935" y="150" type="line"/>
      <point x="801" y="562" type="line"/>
      <point x="751" y="546" type="line"/>
      <point x="662" y="517"/>
      <point x="455" y="383"/>
    </contour>
    <contour>
      <point x="541" y="250" type="curve"/>
      <point x="501" y="374"/>
      <point x="697" y="486"/>
      <point x="763" y="508" type="curve"/>
      <point x="764" y="493"/>
      <point x="765" y="397"/>
      <point x="786" y="330" type="curve"/>
      <point x="808" y="264"/>
      <point x="856" y="195"/>
      <point x="872" y="173" type="curve"/>
      <point x="805" y="151"/>
      <point x="581" y="127"/>
    </contour>
  </outline>
</glyph>
<glyph name="u125AF" format="2">
  <advance width="1235"/>
  <unicode hex="125AF"/>
  <outline>
    <contour>
      <point x="618" y="442" type="curve"/>
      <point x="771" y="442"/>
      <point x="835" y="681"/>
      <point x="835" y="774" type="curve"/>
      <point x="835" y="827" type="line"/>
      <point x="402" y="827" type="line"/>
      <point x="402" y="774" type="line"/>
      <point x="402" y="681"/>
      <point x="465" y="442"/>
    </contour>
    <contour>
      <point x="618" y="483" type="curve"/>
      <point x="488" y="483"/>
      <point x="442" y="704"/>
      <point x="442" y="774" type="curve"/>
      <point x="456" y="770"/>
      <point x="548" y="741"/>
      <point x="618" y="741" type="curve"/>
      <point x="688" y="741"/>
      <point x="768" y="766"/>
      <point x="794" y="774" type="curve"/>
      <point x="794" y="704"/>
      <point x="748" y="483"/>
    </contour>
    <contour>
      <point x="619" y="177" type="curve"/>
      <point x="466" y="177"/>
      <point x="402" y="-62"/>
      <point x="402" y="-155" type="curve"/>
      <point x="402" y="-208" type="line"/>
      <point x="835" y="-208" type="line"/>
      <point x="835" y="-155" type="line"/>
      <point x="835" y="-62"/>
      <point x="772" y="177"/>
    </contour>
    <contour>
      <point x="619" y="136" type="curve"/>
      <point x="749" y="136"/>
      <point x="795" y="-85"/>
      <point x="795" y="-155" type="curve"/>
      <point x="781" y="-151"/>
      <point x="689" y="-122"/>
      <point x="619" y="-122" type="curve"/>
      <point x="549" y="-122"/>
      <point x="469" y="-147"/>
      <point x="443" y="-155" type="curve"/>
      <point x="443" y="-85"/>
      <point x="489" y="136"/>
    </contour>
    <contour>
      <point x="485" y="105" type="curve"/>
      <point x="485" y="258"/>
      <point x="246" y="322"/>
      <point x="153" y="322" type="curve"/>
      <point x="100" y="322" type="line"/>
      <point x="100" y="-111" type="line"/>
      <point x="153" y="-111" type="line"/>
      <point x="246" y="-111"/>
      <point x="485" y="-48"/>
    </contour>
    <contour>
      <point x="444" y="105" type="curve"/>
      <point x="444" y="-25"/>
      <point x="223" y="-71"/>
      <point x="153" y="-71" type="curve"/>
      <point x="157" y="-57"/>
      <point x="186" y="35"/>
      <point x="186" y="105" type="curve"/>
      <point x="186" y="175"/>
      <point x="161" y="255"/>
      <point x="153" y="281" type="curve"/>
      <point x="223" y="281"/>
      <point x="444" y="235"/>
    </contour>
    <contour>
      <point x="485" y="510" type="curve"/>
      <point x="485" y="663"/>
      <point x="246" y="727"/>
      <point x="153" y="727" type="curve"/>
      <point x="100" y="727" type="line"/>
      <point x="100" y="294" type="line"/>
      <point x="153" y="294" type="line"/>
      <point x="246" y="294"/>
      <point x="485" y="357"/>
    </contour>
    <contour>
      <point x="444" y="510" type="curve"/>
      <point x="444" y="380"/>
      <point x="223" y="334"/>
      <point x="153" y="334" type="curve"/>
      <point x="157" y="348"/>
      <point x="186" y="440"/>
      <point x="186" y="510" type="curve"/>
      <point x="186" y="580"/>
      <point x="161" y="660"/>
      <point x="153" y="686" type="curve"/>
      <point x="223" y="686"/>
      <point x="444" y="640"/>
    </contour>
    <contour>
      <point x="750" y="511" type="curve"/>
      <point x="750" y="358"/>
      <point x="989" y="294"/>
      <point x="1082" y="294" type="curve"/>
      <point x="1135" y="294" type="line"/>
      <point x="1135" y="727" type="line"/>
      <point x="1082" y="727" type="line"/>
      <point x="989" y="727"/>
      <point x="750" y="664"/>
    </contour>
    <contour>
      <point x="791" y="511" type="curve"/>
      <point x="791" y="641"/>
      <point x="1012" y="687"/>
      <point x="1082" y="687" type="curve"/>
      <point x="1078" y="673"/>
      <point x="1049" y="581"/>
      <point x="1049" y="511" type="curve"/>
      <point x="1049" y="441"/>
      <point x="1074" y="361"/>
      <point x="1082" y="335" type="curve"/>
      <point x="1012" y="335"/>
      <point x="791" y="381"/>
    </contour>
    <contour>
      <point x="750" y="106" type="curve"/>
      <point x="750" y="-47"/>
      <point x="989" y="-111"/>
      <point x="1082" y="-111" type="curve"/>
      <point x="1135" y="-111" type="line"/>
      <point x="1135" y="322" type="line"/>
      <point x="1082" y="322" type="line"/>
      <point x="989" y="322"/>
      <point x="750" y="259"/>
    </contour>
    <contour>
      <point x="791" y="106" type="curve"/>
      <point x="791" y="236"/>
      <point x="1012" y="282"/>
      <point x="1082" y="282" type="curve"/>
      <point x="1078" y="268"/>
      <point x="1049" y="176"/>
      <point x="1049" y="106" type="curve"/>
      <point x="1049" y="36"/>
      <point x="1074" y="-44"/>
      <point x="1082" y="-70" type="curve"/>
      <point x="1012" y="-70"/>
      <point x="791" y="-24"/>
    </contour>
  </outline>
</glyph>
<glyph name="u125B0" format="2">
  <advance width="1233"/>
  <unicode hex="125B0"/>
  <outline>
    <contour>
      <point x="618" y="442" type="curve"/>
      <point x="771" y="442"/>
      <point x="835" y="681"/>
      <point x="835" y="774" type="curve"/>
      <point x="835" y="827" type="line"/>
      <point x="402" y="827" type="line"/>
      <point x="402" y="774" type="line"/>
      <point x="402" y="681"/>
      <point x="465" y="442"/>
    </contour>
    <contour>
      <point x="618" y="483" type="curve"/>
      <point x="488" y="483"/>
      <point x="442" y="704"/>
      <point x="442" y="774" type="curve"/>
      <point x="456" y="770"/>
      <point x="548" y="741"/>
      <point x="618" y="741" type="curve"/>
      <point x="688" y="741"/>
      <point x="768" y="766"/>
      <point x="794" y="774" type="curve"/>
      <point x="794" y="704"/>
      <point x="748" y="483"/>
    </contour>
    <contour>
      <point x="619" y="177" type="curve"/>
      <point x="466" y="177"/>
      <point x="402" y="-62"/>
      <point x="402" y="-155" type="curve"/>
      <point x="402" y="-208" type="line"/>
      <point x="835" y="-208" type="line"/>
      <point x="835" y="-155" type="line"/>
      <point x="835" y="-62"/>
      <point x="772" y="177"/>
    </contour>
    <contour>
      <point x="619" y="136" type="curve"/>
      <point x="749" y="136"/>
      <point x="795" y="-85"/>
      <point x="795" y="-155" type="curve"/>
      <point x="781" y="-151"/>
      <point x="689" y="-122"/>
      <point x="619" y="-122" type="curve"/>
      <point x="549" y="-122"/>
      <point x="469" y="-147"/>
      <point x="443" y="-155" type="curve"/>
      <point x="443" y="-85"/>
      <point x="489" y="136"/>
    </contour>
    <contour>
      <point x="485" y="105" type="curve"/>
      <point x="485" y="258"/>
      <point x="246" y="322"/>
      <point x="153" y="322" type="curve"/>
      <point x="100" y="322" type="line"/>
      <point x="100" y="-111" type="line"/>
      <point x="153" y="-111" type="line"/>
      <point x="246" y="-111"/>
      <point x="485" y="-48"/>
    </contour>
    <contour>
      <point x="444" y="105" type="curve"/>
      <point x="444" y="-25"/>
      <point x="223" y="-71"/>
      <point x="153" y="-71" type="curve"/>
      <point x="157" y="-57"/>
      <point x="186" y="35"/>
      <point x="186" y="105" type="curve"/>
      <point x="186" y="175"/>
      <point x="161" y="255"/>
      <point x="153" y="281" type="curve"/>
      <point x="223" y="281"/>
      <point x="444" y="235"/>
    </contour>
    <contour>
      <point x="485" y="510" type="curve"/>
      <point x="485" y="663"/>
      <point x="246" y="727"/>
      <point x="153" y="727" type="curve"/>
      <point x="100" y="727" type="line"/>
      <point x="100" y="294" type="line"/>
      <point x="153" y="294" type="line"/>
      <point x="246" y="294"/>
      <point x="485" y="357"/>
    </contour>
    <contour>
      <point x="444" y="510" type="curve"/>
      <point x="444" y="380"/>
      <point x="223" y="334"/>
      <point x="153" y="334" type="curve"/>
      <point x="157" y="348"/>
      <point x="186" y="440"/>
      <point x="186" y="510" type="curve"/>
      <point x="186" y="580"/>
      <point x="161" y="660"/>
      <point x="153" y="686" type="curve"/>
      <point x="223" y="686"/>
      <point x="444" y="640"/>
    </contour>
    <contour>
      <point x="748" y="511" type="curve"/>
      <point x="748" y="358"/>
      <point x="987" y="294"/>
      <point x="1080" y="294" type="curve"/>
      <point x="1133" y="294" type="line"/>
      <point x="1133" y="727" type="line"/>
      <point x="1080" y="727" type="line"/>
      <point x="987" y="727"/>
      <point x="748" y="664"/>
    </contour>
    <contour>
      <point x="789" y="511" type="curve"/>
      <point x="789" y="641"/>
      <point x="1010" y="687"/>
      <point x="1080" y="687" type="curve"/>
      <point x="1076" y="673"/>
      <point x="1047" y="581"/>
      <point x="1047" y="511" type="curve"/>
      <point x="1047" y="441"/>
      <point x="1072" y="361"/>
      <point x="1080" y="335" type="curve"/>
      <point x="1010" y="335"/>
      <point x="789" y="381"/>
    </contour>
    <contour>
      <point x="748" y="106" type="curve"/>
      <point x="748" y="-47"/>
      <point x="987" y="-111"/>
      <point x="1080" y="-111" type="curve"/>
      <point x="1133" y="-111" type="line"/>
      <point x="1133" y="322" type="line"/>
      <point x="1080" y="322" type="line"/>
      <point x="987" y="322"/>
      <point x="748" y="259"/>
    </contour>
    <contour>
      <point x="789" y="106" type="curve"/>
      <point x="789" y="236"/>
      <point x="1010" y="282"/>
      <point x="1080" y="282" type="curve"/>
      <point x="1076" y="268"/>
      <point x="1047" y="176"/>
      <point x="1047" y="106" type="curve"/>
      <point x="1047" y="36"/>
      <point x="1072" y="-44"/>
      <point x="1080" y="-70" type="curve"/>
      <point x="1010" y="-70"/>
      <point x="789" y="-24"/>
    </contour>
    <contour>
      <point x="617" y="110" type="curve"/>
      <point x="728" y="110"/>
      <point x="817" y="200"/>
      <point x="817" y="310" type="curve"/>
      <point x="817" y="420"/>
      <point x="728" y="510"/>
      <point x="617" y="510" type="curve"/>
      <point x="506" y="510"/>
      <point x="417" y="420"/>
      <point x="417" y="310" type="curve"/>
      <point x="417" y="200"/>
      <point x="506" y="110"/>
    </contour>
  </outline>
</glyph>
<glyph name="u125B1" format="2">
  <advance width="1247"/>
  <unicode hex="125B1"/>
  <outline>
    <contour>
      <point x="801" y="255" type="curve"/>
      <point x="774" y="133"/>
      <point x="952" y="39"/>
      <point x="1026" y="22" type="curve"/>
      <point x="1068" y="13" type="line"/>
      <point x="1147" y="357" type="line"/>
      <point x="1105" y="366" type="line"/>
      <point x="1031" y="383"/>
      <point x="829" y="376"/>
    </contour>
    <contour>
      <point x="834" y="247" type="line"/>
      <point x="858" y="351"/>
      <point x="1042" y="347"/>
      <point x="1097" y="334" type="curve"/>
      <point x="1092" y="324"/>
      <point x="1052" y="256"/>
      <point x="1039" y="200" type="curve"/>
      <point x="1026" y="145"/>
      <point x="1032" y="77"/>
      <point x="1033" y="55" type="curve"/>
      <point x="978" y="67"/>
      <point x="810" y="144"/>
      <point x="834" y="247" type="curve"/>
      <point x="834" y="247" type="line"/>
    </contour>
    <contour>
      <point x="753" y="408" type="curve"/>
      <point x="831" y="310"/>
      <point x="1016" y="391"/>
      <point x="1075" y="439" type="curve"/>
      <point x="1109" y="465" type="line"/>
      <point x="889" y="741" type="line"/>
      <point x="855" y="714" type="line"/>
      <point x="796" y="667"/>
      <point x="675" y="506"/>
    </contour>
    <contour>
      <point x="779" y="429" type="line"/>
      <point x="713" y="512"/>
      <point x="831" y="653"/>
      <point x="875" y="689" type="curve"/>
      <point x="880" y="678"/>
      <point x="908" y="605"/>
      <point x="944" y="560" type="curve"/>
      <point x="979" y="515"/>
      <point x="1036" y="477"/>
      <point x="1054" y="465" type="curve"/>
      <point x="1010" y="429"/>
      <point x="846" y="346"/>
      <point x="779" y="429" type="curve"/>
      <point x="779" y="429" type="line"/>
    </contour>
    <contour>
      <point x="489" y="419" type="curve"/>
      <point x="567" y="517"/>
      <point x="447" y="679"/>
      <point x="387" y="727" type="curve"/>
      <point x="353" y="754" type="line"/>
      <point x="133" y="478" type="line"/>
      <point x="167" y="451" type="line"/>
      <point x="226" y="403"/>
      <point x="411" y="322"/>
    </contour>
    <contour>
      <point x="462" y="440" type="line"/>
      <point x="396" y="357"/>
      <point x="232" y="440"/>
      <point x="187" y="476" type="curve"/>
      <point x="197" y="483"/>
      <point x="262" y="527"/>
      <point x="298" y="571" type="curve"/>
      <point x="334" y="616"/>
      <point x="358" y="680"/>
      <point x="366" y="700" type="curve"/>
      <point x="411" y="665"/>
      <point x="529" y="523"/>
      <point x="463" y="440" type="curve"/>
      <point x="463" y="440" type="line"/>
    </contour>
    <contour>
      <point x="446" y="244" type="curve"/>
      <point x="418" y="366"/>
      <point x="216" y="373"/>
      <point x="142" y="356" type="curve"/>
      <point x="100" y="347" type="line"/>
      <point x="179" y="3" type="line"/>
      <point x="221" y="12" type="line"/>
      <point x="295" y="29"/>
      <point x="473" y="122"/>
    </contour>
    <contour>
      <point x="413" y="237" type="line"/>
      <point x="437" y="133"/>
      <point x="269" y="57"/>
      <point x="213" y="44" type="curve"/>
      <point x="214" y="56"/>
      <point x="220" y="134"/>
      <point x="208" y="190" type="curve"/>
      <point x="195" y="246"/>
      <point x="161" y="305"/>
      <point x="150" y="324" type="curve"/>
      <point x="205" y="337"/>
      <point x="389" y="340"/>
      <point x="413" y="237" type="curve"/>
      <point x="413" y="237" type="line"/>
    </contour>
    <contour>
      <point x="528" y="99" type="line"/>
      <point x="415" y="153"/>
      <point x="284" y="0"/>
      <point x="251" y="-69" type="curve"/>
      <point x="232" y="-108" type="line"/>
      <point x="550" y="-261" type="line"/>
      <point x="569" y="-222" type="line"/>
      <point x="602" y="-153"/>
      <point x="640" y="45"/>
      <point x="527" y="99" type="curve"/>
      <point x="527" y="99" type="line"/>
    </contour>
    <contour>
      <point x="513" y="69" type="line"/>
      <point x="609" y="23"/>
      <point x="564" y="-156"/>
      <point x="539" y="-208" type="curve"/>
      <point x="531" y="-200"/>
      <point x="473" y="-146"/>
      <point x="422" y="-121" type="curve"/>
      <point x="370" y="-96"/>
      <point x="303" y="-86"/>
      <point x="281" y="-83" type="curve"/>
      <point x="306" y="-31"/>
      <point x="418" y="115"/>
      <point x="513" y="69" type="curve"/>
      <point x="513" y="69" type="line"/>
    </contour>
    <contour>
      <point x="704" y="106" type="curve"/>
      <point x="592" y="52"/>
      <point x="630" y="-147"/>
      <point x="663" y="-215" type="curve"/>
      <point x="681" y="-254" type="line"/>
      <point x="999" y="-101" type="line"/>
      <point x="981" y="-62" type="line"/>
      <point x="948" y="6"/>
      <point x="817" y="160"/>
    </contour>
    <contour>
      <point x="719" y="76" type="line"/>
      <point x="814" y="122"/>
      <point x="926" y="-24"/>
      <point x="951" y="-76" type="curve"/>
      <point x="940" y="-78"/>
      <point x="862" y="-89"/>
      <point x="810" y="-114" type="curve"/>
      <point x="759" y="-139"/>
      <point x="709" y="-185"/>
      <point x="693" y="-201" type="curve"/>
      <point x="668" y="-149"/>
      <point x="623" y="29"/>
      <point x="719" y="75" type="curve"/>
      <point x="719" y="75" type="line"/>
    </contour>
    <contour>
      <point x="623" y="487" type="curve"/>
      <point x="748" y="487"/>
      <point x="800" y="682"/>
      <point x="800" y="758" type="curve"/>
      <point x="800" y="802" type="line"/>
      <point x="447" y="802" type="line"/>
      <point x="447" y="758" type="line"/>
      <point x="447" y="682"/>
      <point x="499" y="487"/>
    </contour>
    <contour>
      <point x="623" y="521" type="curve"/>
      <point x="517" y="521"/>
      <point x="480" y="701"/>
      <point x="480" y="758" type="curve"/>
      <point x="491" y="755"/>
      <point x="566" y="731"/>
      <point x="623" y="731" type="curve"/>
      <point x="680" y="731"/>
      <point x="746" y="752"/>
      <point x="767" y="758" type="curve"/>
      <point x="767" y="701"/>
      <point x="729" y="521"/>
    </contour>
    <contour>
      <point x="503" y="246" type="curve"/>
      <point x="539" y="158"/>
      <point x="646" y="114"/>
      <point x="716" y="143" type="curve"/>
      <point x="756" y="159" type="line"/>
      <point x="621" y="486" type="line"/>
      <point x="581" y="469" type="line"/>
      <point x="511" y="440"/>
      <point x="467" y="333"/>
    </contour>
    <contour>
      <point x="534" y="259" type="curve"/>
      <point x="505" y="329"/>
      <point x="541" y="417"/>
      <point x="594" y="439" type="curve"/>
      <point x="595" y="427"/>
      <point x="602" y="349"/>
      <point x="624" y="296" type="curve"/>
      <point x="646" y="243"/>
      <point x="689" y="191"/>
      <point x="703" y="174" type="curve"/>
      <point x="651" y="152"/>
      <point x="563" y="189"/>
    </contour>
  </outline>
</glyph>
<glyph name="u125B2" format="2">
  <advance width="1229"/>
  <unicode hex="125B2"/>
  <outline>
    <contour>
      <point x="573" y="487" type="line"/>
      <point x="695" y="511"/>
      <point x="709" y="712"/>
      <point x="695" y="787" type="curve"/>
      <point x="686" y="829" type="line"/>
      <point x="340" y="762" type="line"/>
      <point x="348" y="720" type="line"/>
      <point x="363" y="645"/>
      <point x="450" y="464"/>
      <point x="573" y="487" type="curve"/>
      <point x="573" y="487" type="line"/>
    </contour>
    <contour>
      <point x="566" y="520" type="curve"/>
      <point x="462" y="500"/>
      <point x="391" y="670"/>
      <point x="380" y="726" type="curve"/>
      <point x="392" y="725"/>
      <point x="470" y="716"/>
      <point x="526" y="727" type="curve"/>
      <point x="582" y="738"/>
      <point x="642" y="770"/>
      <point x="662" y="781" type="curve"/>
      <point x="673" y="724"/>
      <point x="671" y="540"/>
    </contour>
    <contour>
      <point x="455" y="384" type="line"/>
      <point x="496" y="501"/>
      <point x="330" y="615"/>
      <point x="258" y="641" type="curve"/>
      <point x="218" y="655" type="line"/>
      <point x="100" y="322" type="line"/>
      <point x="141" y="308" type="line"/>
      <point x="212" y="283"/>
      <point x="413" y="266"/>
      <point x="455" y="384" type="curve"/>
      <point x="455" y="384" type="line"/>
    </contour>
    <contour>
      <point x="423" y="395" type="curve"/>
      <point x="388" y="295"/>
      <point x="206" y="320"/>
      <point x="152" y="339" type="curve"/>
      <point x="159" y="348"/>
      <point x="206" y="411"/>
      <point x="225" y="465" type="curve"/>
      <point x="244" y="519"/>
      <point x="247" y="587"/>
      <point x="247" y="609" type="curve"/>
      <point x="301" y="590"/>
      <point x="459" y="495"/>
    </contour>
    <contour>
      <point x="467" y="229" type="curve"/>
      <point x="397" y="332"/>
      <point x="207" y="265"/>
      <point x="144" y="223" type="curve"/>
      <point x="108" y="198" type="line"/>
      <point x="307" y="-93" type="line"/>
      <point x="343" y="-69" type="line"/>
      <point x="406" y="-26"/>
      <point x="538" y="126"/>
    </contour>
    <contour>
      <point x="440" y="210" type="curve"/>
      <point x="499" y="123"/>
      <point x="372" y="-10"/>
      <point x="324" y="-42" type="curve"/>
      <point x="321" y="-31"/>
      <point x="298" y="44"/>
      <point x="266" y="92" type="curve"/>
      <point x="234" y="139"/>
      <point x="180" y="181"/>
      <point x="163" y="195" type="curve"/>
      <point x="210" y="227"/>
      <point x="380" y="298"/>
    </contour>
    <contour>
      <point x="594" y="121" type="curve"/>
      <point x="470" y="137"/>
      <point x="394" y="-50"/>
      <point x="384" y="-125" type="curve"/>
      <point x="379" y="-168" type="line"/>
      <point x="729" y="-212" type="line"/>
      <point x="734" y="-170" type="line"/>
      <point x="744" y="-94"/>
      <point x="718" y="106"/>
    </contour>
    <contour>
      <point x="590" y="88" type="line"/>
      <point x="695" y="75"/>
      <point x="709" y="-109"/>
      <point x="702" y="-165" type="curve"/>
      <point x="691" y="-161"/>
      <point x="620" y="-128"/>
      <point x="563" y="-121" type="curve"/>
      <point x="507" y="-113"/>
      <point x="439" y="-125"/>
      <point x="417" y="-129" type="curve"/>
      <point x="425" y="-73"/>
      <point x="485" y="102"/>
      <point x="590" y="88" type="curve"/>
      <point x="590" y="88" type="line"/>
    </contour>
    <contour>
      <point x="744" y="169" type="line"/>
      <point x="655" y="81"/>
      <point x="756" y="-94"/>
      <point x="810" y="-148" type="curve"/>
      <point x="840" y="-178" type="line"/>
      <point x="1090" y="71" type="line"/>
      <point x="1059" y="101" type="line"/>
      <point x="1006" y="155"/>
      <point x="832" y="257"/>
      <point x="744" y="169" type="curve"/>
      <point x="744" y="169" type="line"/>
    </contour>
    <contour>
      <point x="767" y="145" type="line"/>
      <point x="842" y="220"/>
      <point x="996" y="119"/>
      <point x="1036" y="78" type="curve"/>
      <point x="1026" y="73"/>
      <point x="956" y="36"/>
      <point x="916" y="-4" type="curve"/>
      <point x="876" y="-44"/>
      <point x="844" y="-105"/>
      <point x="833" y="-124" type="curve"/>
      <point x="793" y="-84"/>
      <point x="692" y="70"/>
      <point x="767" y="145" type="curve"/>
      <point x="767" y="145" type="line"/>
    </contour>
    <contour>
      <point x="814" y="322" type="line"/>
      <point x="814" y="197"/>
      <point x="1009" y="145"/>
      <point x="1085" y="145" type="curve"/>
      <point x="1129" y="146" type="line"/>
      <point x="1128" y="498" type="line"/>
      <point x="1085" y="498" type="line"/>
      <point x="1009" y="498"/>
      <point x="814" y="447"/>
      <point x="814" y="322" type="curve"/>
      <point x="814" y="322" type="line"/>
    </contour>
    <contour>
      <point x="848" y="322" type="line"/>
      <point x="848" y="428"/>
      <point x="1028" y="466"/>
      <point x="1085" y="466" type="curve"/>
      <point x="1082" y="455"/>
      <point x="1058" y="379"/>
      <point x="1058" y="322" type="curve"/>
      <point x="1058" y="265"/>
      <point x="1079" y="200"/>
      <point x="1085" y="179" type="curve"/>
      <point x="1028" y="179"/>
      <point x="848" y="216"/>
      <point x="848" y="322" type="curve"/>
      <point x="848" y="322" type="line"/>
    </contour>
    <contour>
      <point x="745" y="457" type="line"/>
      <point x="844" y="382"/>
      <point x="1004" y="505"/>
      <point x="1049" y="566" type="curve"/>
      <point x="1076" y="600" type="line"/>
      <point x="795" y="814" type="line"/>
      <point x="769" y="779" type="line"/>
      <point x="723" y="719"/>
      <point x="646" y="533"/>
      <point x="745" y="457" type="curve"/>
      <point x="745" y="457" type="line"/>
    </contour>
    <contour>
      <point x="765" y="484" type="curve"/>
      <point x="681" y="548"/>
      <point x="760" y="714"/>
      <point x="794" y="760" type="curve"/>
      <point x="801" y="750"/>
      <point x="847" y="686"/>
      <point x="892" y="651" type="curve"/>
      <point x="938" y="617"/>
      <point x="1002" y="594"/>
      <point x="1023" y="586" type="curve"/>
      <point x="988" y="540"/>
      <point x="849" y="420"/>
    </contour>
    <contour>
      <point x="626" y="111" type="curve"/>
      <point x="737" y="111"/>
      <point x="826" y="200"/>
      <point x="826" y="311" type="curve"/>
      <point x="826" y="422"/>
      <point x="737" y="511"/>
      <point x="626" y="511" type="curve"/>
      <point x="516" y="511"/>
      <point x="426" y="422"/>
      <point x="426" y="311" type="curve"/>
      <point x="426" y="200"/>
      <point x="516" y="111"/>
    </contour>
  </outline>
</glyph>
<glyph name="u125B3" format="2">
  <advance width="1200"/>
  <unicode hex="125B3"/>
  <outline>
    <contour>
      <point x="595" y="495" type="curve"/>
      <point x="719" y="495"/>
      <point x="772" y="690"/>
      <point x="772" y="766" type="curve"/>
      <point x="772" y="810" type="line"/>
      <point x="418" y="810" type="line"/>
      <point x="418" y="766" type="line"/>
      <point x="418" y="690"/>
      <point x="470" y="495"/>
    </contour>
    <contour>
      <point x="595" y="529" type="curve"/>
      <point x="489" y="529"/>
      <point x="451" y="709"/>
      <point x="451" y="766" type="curve"/>
      <point x="463" y="763"/>
      <point x="538" y="739"/>
      <point x="595" y="739" type="curve"/>
      <point x="652" y="739"/>
      <point x="717" y="760"/>
      <point x="738" y="766" type="curve"/>
      <point x="738" y="709"/>
      <point x="701" y="529"/>
    </contour>
    <contour>
      <point x="594" y="121" type="curve"/>
      <point x="470" y="121"/>
      <point x="418" y="-74"/>
      <point x="418" y="-150" type="curve"/>
      <point x="418" y="-194" type="line"/>
      <point x="770" y="-194" type="line"/>
      <point x="770" y="-150" type="line"/>
      <point x="770" y="-74"/>
      <point x="719" y="121"/>
    </contour>
    <contour>
      <point x="594" y="87" type="curve"/>
      <point x="700" y="87"/>
      <point x="738" y="-93"/>
      <point x="738" y="-150" type="curve"/>
      <point x="726" y="-147"/>
      <point x="651" y="-123"/>
      <point x="594" y="-123" type="curve"/>
      <point x="537" y="-123"/>
      <point x="472" y="-144"/>
      <point x="451" y="-150" type="curve"/>
      <point x="451" y="-93"/>
      <point x="488" y="87"/>
    </contour>
    <contour>
      <point x="414" y="319" type="curve"/>
      <point x="414" y="444"/>
      <point x="219" y="496"/>
      <point x="143" y="496" type="curve"/>
      <point x="100" y="496" type="line"/>
      <point x="100" y="143" type="line"/>
      <point x="143" y="143" type="line"/>
      <point x="219" y="143"/>
      <point x="414" y="194"/>
    </contour>
    <contour>
      <point x="381" y="319" type="curve"/>
      <point x="381" y="213"/>
      <point x="200" y="176"/>
      <point x="143" y="176" type="curve"/>
      <point x="146" y="187"/>
      <point x="170" y="262"/>
      <point x="170" y="319" type="curve"/>
      <point x="170" y="376"/>
      <point x="150" y="441"/>
      <point x="143" y="463" type="curve"/>
      <point x="200" y="463"/>
      <point x="381" y="425"/>
    </contour>
    <contour>
      <point x="786" y="321" type="curve"/>
      <point x="786" y="196"/>
      <point x="981" y="144"/>
      <point x="1057" y="144" type="curve"/>
      <point x="1100" y="144" type="line"/>
      <point x="1100" y="497" type="line"/>
      <point x="1057" y="497" type="line"/>
      <point x="981" y="497"/>
      <point x="786" y="446"/>
    </contour>
    <contour>
      <point x="819" y="321" type="curve"/>
      <point x="819" y="427"/>
      <point x="1000" y="464"/>
      <point x="1057" y="464" type="curve"/>
      <point x="1054" y="453"/>
      <point x="1030" y="378"/>
      <point x="1030" y="321" type="curve"/>
      <point x="1030" y="264"/>
      <point x="1050" y="199"/>
      <point x="1057" y="177" type="curve"/>
      <point x="1000" y="177"/>
      <point x="819" y="215"/>
    </contour>
    <contour>
      <point x="465" y="451" type="curve"/>
      <point x="553" y="539"/>
      <point x="452" y="714"/>
      <point x="399" y="767" type="curve"/>
      <point x="368" y="798" type="line"/>
      <point x="118" y="548" type="line"/>
      <point x="149" y="518" type="line"/>
      <point x="203" y="464"/>
      <point x="377" y="362"/>
    </contour>
    <contour>
      <point x="441" y="474" type="curve"/>
      <point x="366" y="399"/>
      <point x="212" y="500"/>
      <point x="172" y="541" type="curve"/>
      <point x="182" y="546"/>
      <point x="252" y="583"/>
      <point x="293" y="623" type="curve"/>
      <point x="333" y="663"/>
      <point x="365" y="724"/>
      <point x="375" y="744" type="curve"/>
      <point x="415" y="703"/>
      <point x="516" y="549"/>
    </contour>
    <contour>
      <point x="732" y="185" type="curve"/>
      <point x="644" y="97"/>
      <point x="745" y="-78"/>
      <point x="798" y="-131" type="curve"/>
      <point x="829" y="-162" type="line"/>
      <point x="1079" y="88" type="line"/>
      <point x="1048" y="118" type="line"/>
      <point x="994" y="172"/>
      <point x="820" y="274"/>
    </contour>
    <contour>
      <point x="756" y="162" type="curve"/>
      <point x="831" y="237"/>
      <point x="985" y="136"/>
      <point x="1025" y="95" type="curve"/>
      <point x="1015" y="90"/>
      <point x="945" y="53"/>
      <point x="904" y="13" type="curve"/>
      <point x="864" y="-27"/>
      <point x="832" y="-88"/>
      <point x="822" y="-108" type="curve"/>
      <point x="782" y="-67"/>
      <point x="681" y="87"/>
    </contour>
    <contour>
      <point x="729" y="449" type="curve"/>
      <point x="817" y="360"/>
      <point x="992" y="461"/>
      <point x="1046" y="515" type="curve"/>
      <point x="1076" y="545" type="line"/>
      <point x="827" y="795" type="line"/>
      <point x="796" y="764" type="line"/>
      <point x="742" y="711"/>
      <point x="641" y="537"/>
    </contour>
    <contour>
      <point x="753" y="472" type="curve"/>
      <point x="678" y="547"/>
      <point x="779" y="701"/>
      <point x="819" y="741" type="curve"/>
      <point x="825" y="731"/>
      <point x="861" y="661"/>
      <point x="902" y="621" type="curve"/>
      <point x="942" y="581"/>
      <point x="1002" y="549"/>
      <point x="1022" y="539" type="curve"/>
      <point x="982" y="498"/>
      <point x="828" y="397"/>
    </contour>
    <contour>
      <point x="461" y="178" type="curve"/>
      <point x="373" y="267"/>
      <point x="198" y="166"/>
      <point x="144" y="112" type="curve"/>
      <point x="114" y="82" type="line"/>
      <point x="363" y="-168" type="line"/>
      <point x="394" y="-137" type="line"/>
      <point x="448" y="-84"/>
      <point x="549" y="90"/>
    </contour>
    <contour>
      <point x="437" y="155" type="curve"/>
      <point x="512" y="80"/>
      <point x="411" y="-74"/>
      <point x="371" y="-114" type="curve"/>
      <point x="365" y="-104"/>
      <point x="329" y="-34"/>
      <point x="288" y="6" type="curve"/>
      <point x="248" y="46"/>
      <point x="188" y="78"/>
      <point x="168" y="88" type="curve"/>
      <point x="208" y="129"/>
      <point x="362" y="230"/>
    </contour>
    <contour>
      <point x="598" y="110" type="curve"/>
      <point x="708" y="110"/>
      <point x="798" y="200"/>
      <point x="798" y="310" type="curve"/>
      <point x="798" y="420"/>
      <point x="708" y="510"/>
      <point x="598" y="510" type="curve"/>
      <point x="487" y="510"/>
      <point x="398" y="420"/>
      <point x="398" y="310" type="curve"/>
      <point x="398" y="200"/>
      <point x="487" y="110"/>
    </contour>
  </outline>
</glyph>
<glyph name="u125B4" format="2">
  <advance width="1323"/>
  <unicode hex="125B4"/>
  <outline>
    <contour>
      <point x="658" y="538" type="line"/>
      <point x="783" y="538"/>
      <point x="835" y="733"/>
      <point x="835" y="809" type="curve"/>
      <point x="835" y="852" type="line"/>
      <point x="482" y="852" type="line"/>
      <point x="482" y="809" type="line"/>
      <point x="482" y="733"/>
      <point x="533" y="538"/>
      <point x="658" y="538" type="curve"/>
      <point x="658" y="538" type="line"/>
    </contour>
    <contour>
      <point x="658" y="571" type="curve"/>
      <point x="552" y="571"/>
      <point x="515" y="752"/>
      <point x="515" y="809" type="curve"/>
      <point x="526" y="805"/>
      <point x="601" y="782"/>
      <point x="658" y="782" type="curve"/>
      <point x="715" y="782"/>
      <point x="780" y="802"/>
      <point x="802" y="809" type="curve"/>
      <point x="802" y="752"/>
      <point x="764" y="571"/>
    </contour>
    <contour>
      <point x="513" y="490" type="line"/>
      <point x="608" y="570"/>
      <point x="523" y="753"/>
      <point x="474" y="811" type="curve"/>
      <point x="446" y="844" type="line"/>
      <point x="176" y="618" type="line"/>
      <point x="204" y="584" type="line"/>
      <point x="252" y="526"/>
      <point x="417" y="410"/>
      <point x="513" y="490" type="curve"/>
      <point x="513" y="490" type="line"/>
    </contour>
    <contour>
      <point x="491" y="516" type="line"/>
      <point x="410" y="447"/>
      <point x="265" y="562"/>
      <point x="229" y="605" type="curve"/>
      <point x="240" y="610"/>
      <point x="312" y="640"/>
      <point x="356" y="677" type="curve"/>
      <point x="400" y="713"/>
      <point x="436" y="771"/>
      <point x="448" y="790" type="curve"/>
      <point x="485" y="746"/>
      <point x="572" y="584"/>
      <point x="491" y="516" type="curve"/>
      <point x="491" y="516" type="line"/>
    </contour>
    <contour>
      <point x="440" y="349" type="curve"/>
      <point x="461" y="472"/>
      <point x="278" y="558"/>
      <point x="204" y="571" type="curve"/>
      <point x="161" y="578" type="line"/>
      <point x="100" y="231" type="line"/>
      <point x="143" y="223" type="line"/>
      <point x="217" y="210"/>
      <point x="418" y="227"/>
    </contour>
    <contour>
      <point x="407" y="355" type="curve"/>
      <point x="388" y="251"/>
      <point x="204" y="245"/>
      <point x="148" y="255" type="curve"/>
      <point x="153" y="266"/>
      <point x="190" y="336"/>
      <point x="200" y="392" type="curve"/>
      <point x="210" y="448"/>
      <point x="201" y="516"/>
      <point x="198" y="538" type="curve"/>
      <point x="254" y="528"/>
      <point x="425" y="460"/>
    </contour>
    <contour>
      <point x="466" y="192" type="curve"/>
      <point x="404" y="300"/>
      <point x="209" y="248"/>
      <point x="143" y="210" type="curve"/>
      <point x="106" y="188" type="line"/>
      <point x="282" y="-118" type="line"/>
      <point x="320" y="-96" type="line"/>
      <point x="385" y="-58"/>
      <point x="528" y="84"/>
    </contour>
    <contour>
      <point x="437" y="175" type="curve"/>
      <point x="490" y="83"/>
      <point x="353" y="-39"/>
      <point x="304" y="-68" type="curve"/>
      <point x="301" y="-56"/>
      <point x="284" y="21"/>
      <point x="255" y="70" type="curve"/>
      <point x="227" y="119"/>
      <point x="176" y="166"/>
      <point x="160" y="181" type="curve"/>
      <point x="209" y="209"/>
      <point x="384" y="267"/>
    </contour>
    <contour>
      <point x="592" y="96" type="curve"/>
      <point x="475" y="138"/>
      <point x="359" y="-27"/>
      <point x="333" y="-98" type="curve"/>
      <point x="318" y="-139" type="line"/>
      <point x="650" y="-260" type="line"/>
      <point x="665" y="-219" type="line"/>
      <point x="690" y="-148"/>
      <point x="709" y="53"/>
    </contour>
    <contour>
      <point x="580" y="64" type="curve"/>
      <point x="680" y="28"/>
      <point x="653" y="-154"/>
      <point x="634" y="-208" type="curve"/>
      <point x="624" y="-201"/>
      <point x="562" y="-153"/>
      <point x="508" y="-133" type="curve"/>
      <point x="455" y="-114"/>
      <point x="386" y="-111"/>
      <point x="364" y="-110" type="curve"/>
      <point x="384" y="-56"/>
      <point x="481" y="101"/>
    </contour>
    <contour>
      <point x="753" y="89" type="line"/>
      <point x="636" y="46"/>
      <point x="653" y="-155"/>
      <point x="679" y="-226" type="curve"/>
      <point x="694" y="-266" type="line"/>
      <point x="1026" y="-146" type="line"/>
      <point x="1011" y="-105" type="line"/>
      <point x="985" y="-34"/>
      <point x="870" y="132"/>
      <point x="753" y="89" type="curve"/>
      <point x="753" y="89" type="line"/>
    </contour>
    <contour>
      <point x="764" y="57" type="curve"/>
      <point x="864" y="94"/>
      <point x="961" y="-63"/>
      <point x="980" y="-116" type="curve"/>
      <point x="968" y="-117"/>
      <point x="890" y="-121"/>
      <point x="836" y="-140" type="curve"/>
      <point x="783" y="-160"/>
      <point x="728" y="-201"/>
      <point x="711" y="-215" type="curve"/>
      <point x="691" y="-161"/>
      <point x="665" y="21"/>
    </contour>
    <contour>
      <point x="863" y="199" type="curve"/>
      <point x="801" y="91"/>
      <point x="943" y="-51"/>
      <point x="1009" y="-89" type="curve"/>
      <point x="1047" y="-111" type="line"/>
      <point x="1223" y="195" type="line"/>
      <point x="1186" y="217" type="line"/>
      <point x="1120" y="255"/>
      <point x="926" y="308"/>
    </contour>
    <contour>
      <point x="892" y="183" type="curve"/>
      <point x="945" y="275"/>
      <point x="1120" y="217"/>
      <point x="1169" y="188" type="curve"/>
      <point x="1161" y="180"/>
      <point x="1103" y="127"/>
      <point x="1074" y="78" type="curve"/>
      <point x="1046" y="28"/>
      <point x="1031" y="-39"/>
      <point x="1026" y="-60" type="curve"/>
      <point x="976" y="-32"/>
      <point x="839" y="91"/>
    </contour>
    <contour>
      <point x="881" y="354" type="curve"/>
      <point x="903" y="232"/>
      <point x="1104" y="214"/>
      <point x="1178" y="227" type="curve"/>
      <point x="1221" y="235" type="line"/>
      <point x="1160" y="582" type="line"/>
      <point x="1117" y="575" type="line"/>
      <point x="1043" y="562"/>
      <point x="859" y="477"/>
    </contour>
    <contour>
      <point x="914" y="360" type="curve"/>
      <point x="896" y="465"/>
      <point x="1066" y="533"/>
      <point x="1123" y="543" type="curve"/>
      <point x="1121" y="531"/>
      <point x="1111" y="453"/>
      <point x="1121" y="397" type="curve"/>
      <point x="1131" y="341"/>
      <point x="1163" y="280"/>
      <point x="1173" y="260" type="curve"/>
      <point x="1116" y="250"/>
      <point x="932" y="256"/>
    </contour>
    <contour>
      <point x="808" y="489" type="line"/>
      <point x="903" y="409"/>
      <point x="1069" y="524"/>
      <point x="1117" y="582" type="curve"/>
      <point x="1145" y="615" type="line"/>
      <point x="874" y="842" type="line"/>
      <point x="847" y="809" type="line"/>
      <point x="798" y="751"/>
      <point x="712" y="569"/>
      <point x="807" y="489" type="curve"/>
      <point x="807" y="489" type="line"/>
    </contour>
    <contour>
      <point x="829" y="514" type="line"/>
      <point x="748" y="583"/>
      <point x="835" y="745"/>
      <point x="872" y="788" type="curve"/>
      <point x="878" y="779"/>
      <point x="920" y="712"/>
      <point x="964" y="676" type="curve"/>
      <point x="1008" y="639"/>
      <point x="1071" y="613"/>
      <point x="1091" y="604" type="curve"/>
      <point x="1055" y="560"/>
      <point x="910" y="446"/>
      <point x="829" y="514" type="curve"/>
      <point x="829" y="514" type="line"/>
    </contour>
    <contour>
      <point x="662" y="109" type="curve"/>
      <point x="772" y="109"/>
      <point x="862" y="198"/>
      <point x="862" y="309" type="curve"/>
      <point x="862" y="420"/>
      <point x="772" y="509"/>
      <point x="662" y="509" type="curve"/>
      <point x="551" y="509"/>
      <point x="462" y="420"/>
      <point x="462" y="309" type="curve"/>
      <point x="462" y="198"/>
      <point x="551" y="109"/>
    </contour>
  </outline>
</glyph>
<glyph name="u125B5" format="2">
  <advance width="1439"/>
  <unicode hex="125B5"/>
  <outline>
    <contour>
      <point x="707" y="594" type="curve"/>
      <point x="832" y="594"/>
      <point x="884" y="789"/>
      <point x="884" y="865" type="curve"/>
      <point x="884" y="908" type="line"/>
      <point x="531" y="908" type="line"/>
      <point x="531" y="865" type="line"/>
      <point x="531" y="789"/>
      <point x="583" y="594"/>
    </contour>
    <contour>
      <point x="707" y="628" type="curve"/>
      <point x="601" y="628"/>
      <point x="564" y="808"/>
      <point x="564" y="865" type="curve"/>
      <point x="575" y="862"/>
      <point x="650" y="838"/>
      <point x="707" y="838" type="curve"/>
      <point x="764" y="838"/>
      <point x="830" y="859"/>
      <point x="851" y="865" type="curve"/>
      <point x="851" y="808"/>
      <point x="813" y="628"/>
    </contour>
    <contour>
      <point x="731" y="47" type="curve"/>
      <point x="606" y="47"/>
      <point x="554" y="-148"/>
      <point x="554" y="-224" type="curve"/>
      <point x="554" y="-268" type="line"/>
      <point x="907" y="-268" type="line"/>
      <point x="907" y="-224" type="line"/>
      <point x="907" y="-148"/>
      <point x="856" y="47"/>
    </contour>
    <contour>
      <point x="731" y="13" type="curve"/>
      <point x="837" y="13"/>
      <point x="875" y="-167"/>
      <point x="875" y="-224" type="curve"/>
      <point x="863" y="-221"/>
      <point x="788" y="-197"/>
      <point x="731" y="-197" type="curve"/>
      <point x="674" y="-197"/>
      <point x="609" y="-218"/>
      <point x="588" y="-224" type="curve"/>
      <point x="588" y="-167"/>
      <point x="625" y="13"/>
    </contour>
    <contour>
      <point x="558" y="528" type="curve"/>
      <point x="658" y="601"/>
      <point x="586" y="790"/>
      <point x="542" y="851" type="curve"/>
      <point x="516" y="886" type="line"/>
      <point x="231" y="679" type="line"/>
      <point x="256" y="644" type="line"/>
      <point x="301" y="582"/>
      <point x="457" y="455"/>
    </contour>
    <contour>
      <point x="538" y="555" type="curve"/>
      <point x="452" y="493"/>
      <point x="316" y="617"/>
      <point x="282" y="663" type="curve"/>
      <point x="293" y="667"/>
      <point x="368" y="692"/>
      <point x="414" y="725" type="curve"/>
      <point x="460" y="759"/>
      <point x="501" y="814"/>
      <point x="514" y="832" type="curve"/>
      <point x="548" y="785"/>
      <point x="624" y="618"/>
    </contour>
    <contour>
      <point x="896" y="107" type="curve"/>
      <point x="795" y="34"/>
      <point x="867" y="-155"/>
      <point x="912" y="-216" type="curve"/>
      <point x="937" y="-251" type="line"/>
      <point x="1223" y="-44" type="line"/>
      <point x="1198" y="-9" type="line"/>
      <point x="1153" y="53"/>
      <point x="997" y="180"/>
    </contour>
    <contour>
      <point x="916" y="80" type="curve"/>
      <point x="1001" y="142"/>
      <point x="1138" y="18"/>
      <point x="1171" y="-28" type="curve"/>
      <point x="1160" y="-32"/>
      <point x="1085" y="-57"/>
      <point x="1039" y="-90" type="curve"/>
      <point x="993" y="-124"/>
      <point x="952" y="-179"/>
      <point x="939" y="-197" type="curve"/>
      <point x="905" y="-150"/>
      <point x="830" y="17"/>
    </contour>
    <contour>
      <point x="986" y="245" type="curve"/>
      <point x="947" y="126"/>
      <point x="1117" y="17"/>
      <point x="1189" y="-7" type="curve"/>
      <point x="1230" y="-20" type="line"/>
      <point x="1339" y="316" type="line"/>
      <point x="1297" y="329" type="line"/>
      <point x="1225" y="353"/>
      <point x="1024" y="364"/>
    </contour>
    <contour>
      <point x="1017" y="235" type="curve"/>
      <point x="1050" y="335"/>
      <point x="1233" y="316"/>
      <point x="1287" y="298" type="curve"/>
      <point x="1281" y="288"/>
      <point x="1235" y="224"/>
      <point x="1218" y="170" type="curve"/>
      <point x="1200" y="116"/>
      <point x="1199" y="47"/>
      <point x="1199" y="25" type="curve"/>
      <point x="1145" y="43"/>
      <point x="985" y="134"/>
    </contour>
    <contour>
      <point x="453" y="397" type="curve"/>
      <point x="491" y="516"/>
      <point x="322" y="625"/>
      <point x="250" y="649" type="curve"/>
      <point x="209" y="662" type="line"/>
      <point x="100" y="326" type="line"/>
      <point x="141" y="313" type="line"/>
      <point x="213" y="289"/>
      <point x="415" y="278"/>
    </contour>
    <contour>
      <point x="421" y="407" type="curve"/>
      <point x="389" y="307"/>
      <point x="205" y="326"/>
      <point x="151" y="344" type="curve"/>
      <point x="158" y="354"/>
      <point x="203" y="418"/>
      <point x="221" y="472" type="curve"/>
      <point x="238" y="526"/>
      <point x="239" y="595"/>
      <point x="239" y="617" type="curve"/>
      <point x="294" y="599"/>
      <point x="454" y="508"/>
    </contour>
    <contour>
      <point x="966" y="416" type="curve"/>
      <point x="1005" y="297"/>
      <point x="1207" y="308"/>
      <point x="1279" y="332" type="curve"/>
      <point x="1320" y="345" type="line"/>
      <point x="1210" y="681" type="line"/>
      <point x="1169" y="667" type="line"/>
      <point x="1097" y="644"/>
      <point x="928" y="535"/>
    </contour>
    <contour>
      <point x="998" y="426" type="curve"/>
      <point x="965" y="527"/>
      <point x="1125" y="619"/>
      <point x="1179" y="636" type="curve"/>
      <point x="1180" y="625"/>
      <point x="1181" y="546"/>
      <point x="1198" y="492" type="curve"/>
      <point x="1216" y="437"/>
      <point x="1256" y="382"/>
      <point x="1268" y="364" type="curve"/>
      <point x="1214" y="346"/>
      <point x="1031" y="326"/>
    </contour>
    <contour>
      <point x="465" y="230" type="curve"/>
      <point x="426" y="349"/>
      <point x="225" y="338"/>
      <point x="153" y="314" type="curve"/>
      <point x="112" y="301" type="line"/>
      <point x="221" y="-35" type="line"/>
      <point x="262" y="-21" type="line"/>
      <point x="334" y="2"/>
      <point x="504" y="111"/>
    </contour>
    <contour>
      <point x="433" y="220" type="curve"/>
      <point x="466" y="119"/>
      <point x="307" y="27"/>
      <point x="252" y="10" type="curve"/>
      <point x="252" y="21"/>
      <point x="251" y="100"/>
      <point x="233" y="154" type="curve"/>
      <point x="216" y="209"/>
      <point x="176" y="264"/>
      <point x="163" y="282" type="curve"/>
      <point x="217" y="300"/>
      <point x="400" y="320"/>
    </contour>
    <contour>
      <point x="862" y="548" type="curve"/>
      <point x="963" y="474"/>
      <point x="1120" y="600"/>
      <point x="1165" y="661" type="curve"/>
      <point x="1191" y="696" type="line"/>
      <point x="906" y="905" type="line"/>
      <point x="881" y="870" type="line"/>
      <point x="836" y="809"/>
      <point x="762" y="621"/>
    </contour>
    <contour>
      <point x="882" y="575" type="curve"/>
      <point x="797" y="637"/>
      <point x="873" y="805"/>
      <point x="907" y="851" type="curve"/>
      <point x="914" y="841"/>
      <point x="961" y="778"/>
      <point x="1007" y="744" type="curve"/>
      <point x="1053" y="710"/>
      <point x="1117" y="688"/>
      <point x="1138" y="681" type="curve"/>
      <point x="1105" y="635"/>
      <point x="968" y="512"/>
    </contour>
    <contour>
      <point x="563" y="93" type="curve"/>
      <point x="463" y="167"/>
      <point x="305" y="41"/>
      <point x="260" y="-20" type="curve"/>
      <point x="235" y="-55" type="line"/>
      <point x="519" y="-264" type="line"/>
      <point x="545" y="-229" type="line"/>
      <point x="590" y="-168"/>
      <point x="664" y="20"/>
    </contour>
    <contour>
      <point x="543" y="66" type="curve"/>
      <point x="629" y="4"/>
      <point x="552" y="-164"/>
      <point x="518" y="-210" type="curve"/>
      <point x="511" y="-200"/>
      <point x="465" y="-137"/>
      <point x="419" y="-103" type="curve"/>
      <point x="373" y="-69"/>
      <point x="308" y="-47"/>
      <point x="287" y="-40" type="curve"/>
      <point x="321" y="6"/>
      <point x="458" y="129"/>
    </contour>
    <contour>
      <point x="709" y="111" type="curve"/>
      <point x="820" y="111"/>
      <point x="909" y="200"/>
      <point x="909" y="311" type="curve"/>
      <point x="909" y="422"/>
      <point x="820" y="511"/>
      <point x="709" y="511" type="curve"/>
      <point x="599" y="511"/>
      <point x="509" y="422"/>
      <point x="509" y="311" type="curve"/>
      <point x="509" y="200"/>
      <point x="599" y="111"/>
    </contour>
  </outline>
</glyph>
<glyph name="u125B6" format="2">
  <advance width="1038"/>
  <unicode hex="125B6"/>
  <outline>
    <contour>
      <point x="519" y="89" type="curve"/>
      <point x="832" y="89"/>
      <point x="938" y="363"/>
      <point x="938" y="456" type="curve"/>
      <point x="938" y="509" type="line"/>
      <point x="100" y="509" type="line"/>
      <point x="100" y="456" type="line"/>
      <point x="100" y="363"/>
      <point x="206" y="89"/>
    </contour>
    <contour>
      <point x="519" y="130" type="curve"/>
      <point x="229" y="130"/>
      <point x="140" y="386"/>
      <point x="140" y="456" type="curve"/>
      <point x="154" y="452"/>
      <point x="199" y="366"/>
      <point x="519" y="366" type="curve"/>
      <point x="839" y="366"/>
      <point x="871" y="448"/>
      <point x="897" y="456" type="curve"/>
      <point x="897" y="386"/>
      <point x="809" y="130"/>
    </contour>
  </outline>
</glyph>
<glyph name="u125BE" format="2">
  <advance width="1242"/>
  <unicode hex="125BE"/>
  <outline>
    <contour>
      <point x="290" y="304" type="line"/>
      <point x="290" y="277"/>
      <point x="288" y="252"/>
      <point x="285" y="230" type="curve"/>
      <point x="358" y="265"/>
      <point x="896" y="296"/>
      <point x="1142" y="296" type="curve"/>
      <point x="1142" y="316" type="line"/>
      <point x="896" y="316"/>
      <point x="346" y="352"/>
      <point x="285" y="382" type="curve"/>
      <point x="289" y="357"/>
      <point x="290" y="331"/>
      <point x="290" y="307" type="curve"/>
    </contour>
  <component base="u12550"/>
  </outline>
</glyph>
<glyph name="u125C7" format="2">
  <advance width="600"/>
  <unicode hex="125C7"/>
  <outline>
    <contour>
      <point x="497" y="342" type="curve"/>
      <point x="482" y="437"/>
      <point x="400" y="510"/>
      <point x="300" y="510" type="curve"/>
      <point x="190" y="510"/>
      <point x="100" y="420"/>
      <point x="100" y="310" type="curve"/>
      <point x="100" y="200"/>
      <point x="190" y="110"/>
      <point x="300" y="110" type="curve"/>
      <point x="403" y="110"/>
      <point x="487" y="187"/>
      <point x="499" y="287" type="curve"/>
      <point x="411" y="287"/>
      <point x="320" y="277"/>
      <point x="247" y="262" type="curve"/>
      <point x="246" y="261"/>
      <point x="245" y="261"/>
      <point x="244" y="261" type="curve"/>
      <point x="240" y="261"/>
      <point x="236" y="262"/>
      <point x="233" y="265" type="curve"/>
      <point x="229" y="268"/>
      <point x="226" y="273"/>
      <point x="226" y="279" type="curve"/>
      <point x="226" y="351" type="line"/>
      <point x="226" y="356"/>
      <point x="228" y="361"/>
      <point x="232" y="364" type="curve"/>
      <point x="235" y="367"/>
      <point x="240" y="368"/>
      <point x="244" y="368" type="curve"/>
      <point x="246" y="368" type="line"/>
      <point x="259" y="366"/>
      <point x="273" y="364"/>
      <point x="287" y="362" type="curve"/>
      <point x="350" y="353"/>
      <point x="420" y="343"/>
    </contour>
    <contour>
      <point x="499" y="325" type="curve"/>
      <point x="406" y="326"/>
      <point x="314" y="341"/>
      <point x="244" y="351" type="curve"/>
      <point x="244" y="279" type="line"/>
      <point x="315" y="293"/>
      <point x="407" y="304"/>
      <point x="500" y="305" type="curve"/>
      <point x="500" y="310" type="line"/>
      <point x="500" y="315"/>
      <point x="500" y="320"/>
    </contour>
  </outline>
</glyph>
<glyph name="u125CC" format="2">
  <advance width="1666"/>
  <unicode hex="125CC"/>
  <outline>
    <contour>
      <point x="714" y="279" type="line"/>
      <point x="714" y="252"/>
      <point x="712" y="227"/>
      <point x="709" y="205" type="curve"/>
      <point x="782" y="240"/>
      <point x="1320" y="271"/>
      <point x="1566" y="271" type="curve"/>
      <point x="1566" y="291" type="line"/>
      <point x="1320" y="291"/>
      <point x="770" y="327"/>
      <point x="709" y="357" type="curve"/>
      <point x="713" y="332"/>
      <point x="714" y="306"/>
      <point x="714" y="282" type="curve"/>
    </contour>
  <component base="u1256B"/>
  </outline>
</glyph>
<glyph name="u125D1" format="2">
  <advance width="1112"/>
  <unicode hex="125D1"/>
  <outline>
    <contour>
      <point x="1012" y="310" type="curve"/>
      <point x="1012" y="472"/>
      <point x="246" y="528"/>
      <point x="153" y="528" type="curve"/>
      <point x="100" y="528" type="line"/>
      <point x="100" y="93" type="line"/>
      <point x="153" y="93" type="line"/>
      <point x="246" y="93"/>
      <point x="1012" y="148"/>
    </contour>
    <contour>
      <point x="969" y="310" type="curve"/>
      <point x="969" y="180"/>
      <point x="223" y="133"/>
      <point x="153" y="133" type="curve"/>
      <point x="177" y="137"/>
      <point x="266" y="200"/>
      <point x="266" y="310" type="curve"/>
      <point x="266" y="420"/>
      <point x="181" y="471"/>
      <point x="153" y="487" type="curve"/>
      <point x="223" y="487"/>
      <point x="969" y="440"/>
    </contour>
    <contour>
      <point x="185" y="384" type="line"/>
      <point x="258" y="419"/>
      <point x="846" y="410"/>
      <point x="882" y="410" type="curve"/>
      <point x="882" y="430" type="line"/>
      <point x="846" y="430"/>
      <point x="258" y="426"/>
      <point x="185" y="456" type="curve"/>
    </contour>
    <contour>
      <point x="185" y="312" type="line"/>
      <point x="258" y="347"/>
      <point x="846" y="338"/>
      <point x="882" y="338" type="curve"/>
      <point x="882" y="358" type="line"/>
      <point x="846" y="358"/>
      <point x="258" y="354"/>
      <point x="185" y="384" type="curve"/>
    </contour>
    <contour>
      <point x="185" y="233" type="line"/>
      <point x="258" y="268"/>
      <point x="846" y="259"/>
      <point x="882" y="259" type="curve"/>
      <point x="882" y="279" type="line"/>
      <point x="846" y="279"/>
      <point x="258" y="275"/>
      <point x="185" y="305" type="curve"/>
    </contour>
    <contour>
      <point x="185" y="155" type="line"/>
      <point x="258" y="190"/>
      <point x="846" y="181"/>
      <point x="882" y="181" type="curve"/>
      <point x="882" y="201" type="line"/>
      <point x="846" y="201"/>
      <point x="258" y="197"/>
      <point x="185" y="227" type="curve"/>
    </contour>
  </outline>
</glyph>
<glyph name="u125DA" format="2">
  <advance width="933"/>
  <unicode hex="125DA"/>
  <outline>
    <contour>
      <point x="196" y="362" type="line"/>
      <point x="269" y="377"/>
      <point x="807" y="398"/>
      <point x="833" y="398" type="curve"/>
      <point x="833" y="418" type="line"/>
      <point x="807" y="418"/>
      <point x="269" y="444"/>
      <point x="196" y="454" type="curve"/>
    </contour>
    <contour>
      <point x="196" y="160" type="line"/>
      <point x="269" y="175"/>
      <point x="807" y="196"/>
      <point x="833" y="196" type="curve"/>
      <point x="833" y="216" type="line"/>
      <point x="807" y="216"/>
      <point x="269" y="242"/>
      <point x="196" y="252" type="curve"/>
    </contour>
    <contour>
      <point x="490" y="418" type="line"/>
      <point x="506" y="346"/>
      <point x="516" y="268"/>
      <point x="516" y="192" type="curve"/>
      <point x="536" y="192" type="line"/>
      <point x="536" y="268"/>
      <point x="552" y="346"/>
      <point x="562" y="418" type="curve"/>
    </contour>
    <contour>
      <point x="546" y="418" type="line"/>
      <point x="560" y="346"/>
      <point x="572" y="268"/>
      <point x="572" y="192" type="curve"/>
      <point x="592" y="192" type="line"/>
      <point x="592" y="268"/>
      <point x="608" y="346"/>
      <point x="618" y="418" type="curve"/>
    </contour>
    <contour>
      <point x="610" y="418" type="line"/>
      <point x="624" y="346"/>
      <point x="636" y="268"/>
      <point x="636" y="192" type="curve"/>
      <point x="656" y="192" type="line"/>
      <point x="656" y="268"/>
      <point x="672" y="346"/>
      <point x="682" y="418" type="curve"/>
    </contour>
    <contour>
      <point x="672" y="420" type="line"/>
      <point x="688" y="346"/>
      <point x="698" y="268"/>
      <point x="698" y="192" type="curve"/>
      <point x="718" y="192" type="line"/>
      <point x="718" y="268"/>
      <point x="734" y="346"/>
      <point x="744" y="420" type="curve"/>
    </contour>
  <component base="u12562"/>
  </outline>
</glyph>
<glyph name="u125DF" format="2">
  <advance width="1538"/>
  <unicode hex="125DF"/>
  <outline>
    <contour>
      <point x="1438" y="280" type="curve"/>
      <point x="1438" y="652"/>
      <point x="246" y="700"/>
      <point x="153" y="700" type="curve"/>
      <point x="100" y="700" type="line"/>
      <point x="100" y="-139" type="line"/>
      <point x="153" y="-139" type="line"/>
      <point x="246" y="-139"/>
      <point x="1438" y="-92"/>
    </contour>
    <contour>
      <point x="1397" y="280" type="curve"/>
      <point x="1397" y="-70"/>
      <point x="223" y="-99"/>
      <point x="153" y="-99" type="curve"/>
      <point x="157" y="-95"/>
      <point x="346" y="20"/>
      <point x="346" y="280" type="curve"/>
      <point x="346" y="540"/>
      <point x="161" y="643"/>
      <point x="153" y="659" type="curve"/>
      <point x="223" y="659"/>
      <point x="1397" y="630"/>
    </contour>
    <contour>
      <point x="191" y="452" type="line"/>
      <point x="304" y="477"/>
      <point x="1192" y="478"/>
      <point x="1228" y="478" type="curve"/>
      <point x="1228" y="498" type="line"/>
      <point x="1192" y="498"/>
      <point x="304" y="504"/>
      <point x="191" y="524" type="curve"/>
    </contour>
    <contour>
      <point x="191" y="350" type="line"/>
      <point x="304" y="375"/>
      <point x="1192" y="376"/>
      <point x="1228" y="376" type="curve"/>
      <point x="1228" y="396" type="line"/>
      <point x="1192" y="396"/>
      <point x="304" y="402"/>
      <point x="191" y="422" type="curve"/>
    </contour>
    <contour>
      <point x="191" y="247" type="line"/>
      <point x="304" y="272"/>
      <point x="1192" y="273"/>
      <point x="1228" y="273" type="curve"/>
      <point x="1228" y="293" type="line"/>
      <point x="1192" y="293"/>
      <point x="304" y="299"/>
      <point x="191" y="319" type="curve"/>
    </contour>
    <contour>
      <point x="191" y="136" type="line"/>
      <point x="304" y="161"/>
      <point x="1192" y="162"/>
      <point x="1228" y="162" type="curve"/>
      <point x="1228" y="182" type="line"/>
      <point x="1192" y="182"/>
      <point x="304" y="188"/>
      <point x="191" y="208" type="curve"/>
    </contour>
    <contour>
      <point x="191" y="26" type="line"/>
      <point x="304" y="51"/>
      <point x="1192" y="52"/>
      <point x="1228" y="52" type="curve"/>
      <point x="1228" y="72" type="line"/>
      <point x="1192" y="72"/>
      <point x="304" y="78"/>
      <point x="191" y="98" type="curve"/>
    </contour>
  </outline>
</glyph>
<glyph name="u125E0" format="2">
  <advance width="1038"/>
  <unicode hex="125E0"/>
  <outline>
    <contour>
      <point x="682" y="634" type="line"/>
      <point x="698" y="560"/>
      <point x="718" y="12"/>
      <point x="718" y="-54" type="curve"/>
      <point x="738" y="-54" type="line"/>
      <point x="738" y="12"/>
      <point x="764" y="560"/>
      <point x="774" y="634" type="curve"/>
    </contour>
    <contour>
      <point x="572" y="634" type="line"/>
      <point x="588" y="560"/>
      <point x="608" y="12"/>
      <point x="608" y="-54" type="curve"/>
      <point x="628" y="-54" type="line"/>
      <point x="628" y="12"/>
      <point x="654" y="560"/>
      <point x="664" y="634" type="curve"/>
    </contour>
    <contour>
      <point x="464" y="634" type="line"/>
      <point x="480" y="560"/>
      <point x="500" y="12"/>
      <point x="500" y="-54" type="curve"/>
      <point x="520" y="-54" type="line"/>
      <point x="520" y="12"/>
      <point x="546" y="560"/>
      <point x="556" y="634" type="curve"/>
    </contour>
    <contour>
      <point x="364" y="634" type="line"/>
      <point x="378" y="560"/>
      <point x="400" y="12"/>
      <point x="400" y="-54" type="curve"/>
      <point x="420" y="-54" type="line"/>
      <point x="420" y="12"/>
      <point x="446" y="560"/>
      <point x="456" y="634" type="curve"/>
    </contour>
    <contour>
      <point x="264" y="634" type="line"/>
      <point x="278" y="560"/>
      <point x="300" y="12"/>
      <point x="300" y="-54" type="curve"/>
      <point x="320" y="-54" type="line"/>
      <point x="320" y="12"/>
      <point x="346" y="560"/>
      <point x="356" y="634" type="curve"/>
    </contour>
  <component base="u1259A"/>
  </outline>
</glyph>
<glyph name="u125EA" format="2">
  <advance width="781"/>
  <unicode hex="125EA"/>
  <outline>
    <contour>
      <point x="279" y="383" type="line"/>
      <point x="385" y="339"/>
      <point x="640" y="194"/>
      <point x="671" y="176" type="curve"/>
      <point x="681" y="193" type="line"/>
      <point x="650" y="211"/>
      <point x="398" y="363"/>
      <point x="305" y="428" type="curve"/>
    </contour>
  <component base="u125AA"/>
  </outline>
</glyph>
<glyph name="u125EB" format="2">
  <advance width="1128"/>
  <unicode hex="125EB"/>
  <outline>
    <contour>
      <point x="577" y="235" type="line"/>
      <point x="683" y="191"/>
      <point x="938" y="46"/>
      <point x="1018" y="-1" type="curve"/>
      <point x="1028" y="16" type="line"/>
      <point x="948" y="63"/>
      <point x="696" y="215"/>
      <point x="603" y="280" type="curve"/>
    </contour>
  <component base="u125B6"/>
  </outline>
</glyph>
<glyph name="u125EF" format="2">
  <advance width="1142"/>
  <unicode hex="125EF"/>
  <outline>
    <contour>
      <point x="596" y="283" type="line"/>
      <point x="701" y="234"/>
      <point x="952" y="76"/>
      <point x="1031" y="25" type="curve"/>
      <point x="1042" y="42" type="line"/>
      <point x="963" y="93"/>
      <point x="715" y="257"/>
      <point x="624" y="327" type="curve"/>
    </contour>
  <component base="u12550"/>
  </outline>
</glyph>
<glyph name="u125F4" format="2">
  <advance width="862"/>
  <unicode hex="125F4"/>
  <outline>
    <contour>
      <point x="746" y="2" type="line"/>
      <point x="680" y="40" type="line"/>
      <point x="493" y="146"/>
      <point x="427" y="179" type="qcurve"/>
      <point x="464" y="236" type="line"/>
      <point x="637" y="113"/>
      <point x="762" y="27" type="qcurve"/>
    </contour>
  <component base="u12562" xOffset="1" yOffset="-13"/>
  </outline>
</glyph>
<glyph name="u125FD" format="2">
  <advance width="1214"/>
  <unicode hex="125FD"/>
  <outline>
    <contour>
      <point x="1095" y="-152" type="line"/>
      <point x="1016" y="-107" type="line"/>
      <point x="791" y="21"/>
      <point x="712" y="60" type="qcurve"/>
      <point x="756" y="129" type="line"/>
      <point x="964" y="-19"/>
      <point x="1114" y="-122" type="qcurve"/>
    </contour>
  <component base="u12579"/>
  </outline>
</glyph>
<glyph name="u125FE" format="2">
  <advance width="633"/>
  <unicode hex="125FE"/>
  <outline>
    <contour>
      <point x="198" y="784" type="line"/>
      <point x="218" y="685"/>
      <point x="233" y="579"/>
      <point x="233" y="476" type="curve"/>
      <point x="260" y="476" type="line"/>
      <point x="260" y="579"/>
      <point x="281" y="685"/>
      <point x="295" y="784" type="curve"/>
    </contour>
    <contour>
      <point x="350" y="784" type="line"/>
      <point x="371" y="685"/>
      <point x="386" y="579"/>
      <point x="386" y="476" type="curve"/>
      <point x="413" y="476" type="line"/>
      <point x="413" y="579"/>
      <point x="434" y="685"/>
      <point x="448" y="784" type="curve"/>
    </contour>
    <contour>
      <point x="198" y="148" type="line"/>
      <point x="218" y="50"/>
      <point x="233" y="-56"/>
      <point x="233" y="-159" type="curve"/>
      <point x="260" y="-159" type="line"/>
      <point x="260" y="-56"/>
      <point x="281" y="50"/>
      <point x="295" y="148" type="curve"/>
    </contour>
    <contour>
      <point x="350" y="148" type="line"/>
      <point x="371" y="50"/>
      <point x="386" y="-56"/>
      <point x="386" y="-159" type="curve"/>
      <point x="413" y="-159" type="line"/>
      <point x="413" y="-56"/>
      <point x="434" y="50"/>
      <point x="448" y="148" type="curve"/>
    </contour>
  <component base="u125AA"/>
  </outline>
</glyph>
<glyph name="u125FF" format="2">
  <advance width="957"/>
  <unicode hex="125FF"/>
  <outline>
    <contour>
      <point x="633" y="327" type="curve"/>
      <point x="786" y="327"/>
      <point x="850" y="566"/>
      <point x="850" y="659" type="curve"/>
      <point x="850" y="712" type="line"/>
      <point x="417" y="712" type="line"/>
      <point x="417" y="659" type="line"/>
      <point x="417" y="566"/>
      <point x="480" y="327"/>
    </contour>
    <contour>
      <point x="633" y="368" type="curve"/>
      <point x="503" y="368"/>
      <point x="457" y="589"/>
      <point x="457" y="659" type="curve"/>
      <point x="471" y="655"/>
      <point x="563" y="626"/>
      <point x="633" y="626" type="curve"/>
      <point x="703" y="626"/>
      <point x="783" y="651"/>
      <point x="809" y="659" type="curve"/>
      <point x="809" y="589"/>
      <point x="763" y="368"/>
    </contour>
    <contour>
      <point x="641" y="294" type="curve"/>
      <point x="488" y="294"/>
      <point x="424" y="55"/>
      <point x="424" y="-38" type="curve"/>
      <point x="424" y="-91" type="line"/>
      <point x="857" y="-91" type="line"/>
      <point x="857" y="-38" type="line"/>
      <point x="857" y="55"/>
      <point x="794" y="294"/>
    </contour>
    <contour>
      <point x="641" y="253" type="curve"/>
      <point x="771" y="253"/>
      <point x="817" y="32"/>
      <point x="817" y="-38" type="curve"/>
      <point x="803" y="-34"/>
      <point x="711" y="-5"/>
      <point x="641" y="-5" type="curve"/>
      <point x="571" y="-5"/>
      <point x="491" y="-30"/>
      <point x="465" y="-38" type="curve"/>
      <point x="465" y="32"/>
      <point x="511" y="253"/>
    </contour>
    <contour>
      <point x="485" y="338" type="curve"/>
      <point x="485" y="491"/>
      <point x="246" y="555"/>
      <point x="153" y="555" type="curve"/>
      <point x="100" y="555" type="line"/>
      <point x="100" y="122" type="line"/>
      <point x="153" y="122" type="line"/>
      <point x="246" y="122"/>
      <point x="485" y="185"/>
    </contour>
    <contour>
      <point x="444" y="338" type="curve"/>
      <point x="444" y="208"/>
      <point x="223" y="162"/>
      <point x="153" y="162" type="curve"/>
      <point x="157" y="176"/>
      <point x="186" y="268"/>
      <point x="186" y="338" type="curve"/>
      <point x="186" y="408"/>
      <point x="161" y="488"/>
      <point x="153" y="514" type="curve"/>
      <point x="223" y="514"/>
      <point x="444" y="468"/>
    </contour>
    <contour>
      <point x="520" y="822" type="line"/>
      <point x="540" y="724"/>
      <point x="555" y="618"/>
      <point x="555" y="515" type="curve"/>
      <point x="582" y="515" type="line"/>
      <point x="582" y="618"/>
      <point x="603" y="724"/>
      <point x="617" y="822" type="curve"/>
    </contour>
    <contour>
      <point x="672" y="822" type="line"/>
      <point x="693" y="724"/>
      <point x="708" y="618"/>
      <point x="708" y="515" type="curve"/>
      <point x="735" y="515" type="line"/>
      <point x="735" y="618"/>
      <point x="756" y="724"/>
      <point x="770" y="822" type="curve"/>
    </contour>
    <contour>
      <point x="524" y="-112" type="line"/>
      <point x="544" y="-210"/>
      <point x="549" y="-266"/>
      <point x="549" y="-369" type="curve"/>
      <point x="576" y="-369" type="line"/>
      <point x="576" y="-266"/>
      <point x="587" y="-210"/>
      <point x="601" y="-112" type="curve"/>
    </contour>
    <contour>
      <point x="690" y="-112" type="line"/>
      <point x="710" y="-210"/>
      <point x="715" y="-266"/>
      <point x="715" y="-369" type="curve"/>
      <point x="742" y="-369" type="line"/>
      <point x="742" y="-266"/>
      <point x="753" y="-210"/>
      <point x="767" y="-112" type="curve"/>
    </contour>
  </outline>
</glyph>
<glyph name="u12600" format="2">
  <advance width="1052"/>
  <unicode hex="12600"/>
  <outline>
    <contour>
      <point x="525" y="351" type="curve"/>
      <point x="678" y="351"/>
      <point x="742" y="590"/>
      <point x="742" y="683" type="curve"/>
      <point x="742" y="736" type="line"/>
      <point x="309" y="736" type="line"/>
      <point x="309" y="683" type="line"/>
      <point x="309" y="590"/>
      <point x="372" y="351"/>
    </contour>
    <contour>
      <point x="525" y="392" type="curve"/>
      <point x="395" y="392"/>
      <point x="349" y="613"/>
      <point x="349" y="683" type="curve"/>
      <point x="363" y="679"/>
      <point x="455" y="650"/>
      <point x="525" y="650" type="curve"/>
      <point x="595" y="650"/>
      <point x="675" y="675"/>
      <point x="701" y="683" type="curve"/>
      <point x="701" y="613"/>
      <point x="655" y="392"/>
    </contour>
    <contour>
      <point x="527" y="269" type="curve"/>
      <point x="374" y="269"/>
      <point x="310" y="30"/>
      <point x="310" y="-63" type="curve"/>
      <point x="310" y="-116" type="line"/>
      <point x="743" y="-116" type="line"/>
      <point x="743" y="-63" type="line"/>
      <point x="743" y="30"/>
      <point x="680" y="269"/>
    </contour>
    <contour>
      <point x="527" y="228" type="curve"/>
      <point x="657" y="228"/>
      <point x="703" y="7"/>
      <point x="703" y="-63" type="curve"/>
      <point x="689" y="-59"/>
      <point x="597" y="-30"/>
      <point x="527" y="-30" type="curve"/>
      <point x="457" y="-30"/>
      <point x="377" y="-55"/>
      <point x="351" y="-63" type="curve"/>
      <point x="351" y="7"/>
      <point x="397" y="228"/>
    </contour>
    <contour>
      <point x="567" y="311" type="curve"/>
      <point x="567" y="158"/>
      <point x="806" y="94"/>
      <point x="899" y="94" type="curve"/>
      <point x="952" y="94" type="line"/>
      <point x="952" y="527" type="line"/>
      <point x="899" y="527" type="line"/>
      <point x="806" y="527"/>
      <point x="567" y="464"/>
    </contour>
    <contour>
      <point x="608" y="311" type="curve"/>
      <point x="608" y="441"/>
      <point x="829" y="487"/>
      <point x="899" y="487" type="curve"/>
      <point x="895" y="473"/>
      <point x="866" y="381"/>
      <point x="866" y="311" type="curve"/>
      <point x="866" y="241"/>
      <point x="891" y="161"/>
      <point x="899" y="135" type="curve"/>
      <point x="829" y="135"/>
      <point x="608" y="181"/>
    </contour>
    <contour>
      <point x="485" y="309" type="curve"/>
      <point x="485" y="462"/>
      <point x="246" y="526"/>
      <point x="153" y="526" type="curve"/>
      <point x="100" y="526" type="line"/>
      <point x="100" y="93" type="line"/>
      <point x="153" y="93" type="line"/>
      <point x="246" y="93"/>
      <point x="485" y="156"/>
    </contour>
    <contour>
      <point x="444" y="309" type="curve"/>
      <point x="444" y="179"/>
      <point x="223" y="133"/>
      <point x="153" y="133" type="curve"/>
      <point x="157" y="147"/>
      <point x="186" y="239"/>
      <point x="186" y="309" type="curve"/>
      <point x="186" y="379"/>
      <point x="161" y="459"/>
      <point x="153" y="485" type="curve"/>
      <point x="223" y="485"/>
      <point x="444" y="439"/>
    </contour>
    <contour>
      <point x="422" y="852" type="line"/>
      <point x="442" y="753"/>
      <point x="457" y="647"/>
      <point x="457" y="544" type="curve"/>
      <point x="484" y="544" type="line"/>
      <point x="484" y="647"/>
      <point x="505" y="753"/>
      <point x="519" y="852" type="curve"/>
    </contour>
    <contour>
      <point x="574" y="852" type="line"/>
      <point x="595" y="753"/>
      <point x="610" y="647"/>
      <point x="610" y="544" type="curve"/>
      <point x="637" y="544" type="line"/>
      <point x="637" y="647"/>
      <point x="658" y="753"/>
      <point x="672" y="852" type="curve"/>
    </contour>
    <contour>
      <point x="428" y="-4" type="line"/>
      <point x="448" y="-102"/>
      <point x="453" y="-177"/>
      <point x="453" y="-308" type="curve"/>
      <point x="480" y="-308" type="line"/>
      <point x="480" y="-177"/>
      <point x="491" y="-102"/>
      <point x="505" y="-4" type="curve"/>
    </contour>
    <contour>
      <point x="594" y="-4" type="line"/>
      <point x="614" y="-102"/>
      <point x="619" y="-177"/>
      <point x="619" y="-308" type="curve"/>
      <point x="646" y="-308" type="line"/>
      <point x="646" y="-177"/>
      <point x="657" y="-102"/>
      <point x="671" y="-4" type="curve"/>
    </contour>
  </outline>
</glyph>
<glyph name="u12601" format="2">
  <advance width="1162"/>
  <unicode hex="12601"/>
  <outline>
    <contour>
      <point x="618" y="417" type="curve"/>
      <point x="771" y="417"/>
      <point x="835" y="656"/>
      <point x="835" y="749" type="curve"/>
      <point x="835" y="802" type="line"/>
      <point x="402" y="802" type="line"/>
      <point x="402" y="749" type="line"/>
      <point x="402" y="656"/>
      <point x="465" y="417"/>
    </contour>
    <contour>
      <point x="618" y="458" type="curve"/>
      <point x="488" y="458"/>
      <point x="442" y="679"/>
      <point x="442" y="749" type="curve"/>
      <point x="456" y="745"/>
      <point x="548" y="716"/>
      <point x="618" y="716" type="curve"/>
      <point x="688" y="716"/>
      <point x="768" y="741"/>
      <point x="794" y="749" type="curve"/>
      <point x="794" y="679"/>
      <point x="748" y="458"/>
    </contour>
    <contour>
      <point x="677" y="308" type="curve"/>
      <point x="677" y="155"/>
      <point x="916" y="91"/>
      <point x="1009" y="91" type="curve"/>
      <point x="1062" y="91" type="line"/>
      <point x="1062" y="524" type="line"/>
      <point x="1009" y="524" type="line"/>
      <point x="916" y="524"/>
      <point x="677" y="461"/>
    </contour>
    <contour>
      <point x="718" y="308" type="curve"/>
      <point x="718" y="438"/>
      <point x="939" y="484"/>
      <point x="1009" y="484" type="curve"/>
      <point x="1005" y="470"/>
      <point x="976" y="378"/>
      <point x="976" y="308" type="curve"/>
      <point x="976" y="238"/>
      <point x="1001" y="158"/>
      <point x="1009" y="132" type="curve"/>
      <point x="939" y="132"/>
      <point x="718" y="178"/>
    </contour>
    <contour>
      <point x="619" y="152" type="curve"/>
      <point x="466" y="152"/>
      <point x="402" y="-87"/>
      <point x="402" y="-180" type="curve"/>
      <point x="402" y="-233" type="line"/>
      <point x="835" y="-233" type="line"/>
      <point x="835" y="-180" type="line"/>
      <point x="835" y="-87"/>
      <point x="772" y="152"/>
    </contour>
    <contour>
      <point x="619" y="111" type="curve"/>
      <point x="749" y="111"/>
      <point x="795" y="-110"/>
      <point x="795" y="-180" type="curve"/>
      <point x="781" y="-176"/>
      <point x="689" y="-147"/>
      <point x="619" y="-147" type="curve"/>
      <point x="549" y="-147"/>
      <point x="469" y="-172"/>
      <point x="443" y="-180" type="curve"/>
      <point x="443" y="-110"/>
      <point x="489" y="111"/>
    </contour>
    <contour>
      <point x="485" y="80" type="curve"/>
      <point x="485" y="233"/>
      <point x="246" y="297"/>
      <point x="153" y="297" type="curve"/>
      <point x="100" y="297" type="line"/>
      <point x="100" y="-136" type="line"/>
      <point x="153" y="-136" type="line"/>
      <point x="246" y="-136"/>
      <point x="485" y="-73"/>
    </contour>
    <contour>
      <point x="444" y="80" type="curve"/>
      <point x="444" y="-50"/>
      <point x="223" y="-96"/>
      <point x="153" y="-96" type="curve"/>
      <point x="157" y="-82"/>
      <point x="186" y="10"/>
      <point x="186" y="80" type="curve"/>
      <point x="186" y="150"/>
      <point x="161" y="230"/>
      <point x="153" y="256" type="curve"/>
      <point x="223" y="256"/>
      <point x="444" y="210"/>
    </contour>
    <contour>
      <point x="485" y="485" type="curve"/>
      <point x="485" y="638"/>
      <point x="246" y="702"/>
      <point x="153" y="702" type="curve"/>
      <point x="100" y="702" type="line"/>
      <point x="100" y="269" type="line"/>
      <point x="153" y="269" type="line"/>
      <point x="246" y="269"/>
      <point x="485" y="332"/>
    </contour>
    <contour>
      <point x="444" y="485" type="curve"/>
      <point x="444" y="355"/>
      <point x="223" y="309"/>
      <point x="153" y="309" type="curve"/>
      <point x="157" y="323"/>
      <point x="186" y="415"/>
      <point x="186" y="485" type="curve"/>
      <point x="186" y="555"/>
      <point x="161" y="635"/>
      <point x="153" y="661" type="curve"/>
      <point x="223" y="661"/>
      <point x="444" y="615"/>
    </contour>
    <contour>
      <point x="502" y="-86" type="line"/>
      <point x="523" y="-185"/>
      <point x="518" y="-260"/>
      <point x="518" y="-337" type="curve"/>
      <point x="545" y="-337" type="line"/>
      <point x="545" y="-260"/>
      <point x="546" y="-185"/>
      <point x="560" y="-86" type="curve"/>
    </contour>
    <contour>
      <point x="668" y="-86" type="line"/>
      <point x="689" y="-185"/>
      <point x="684" y="-260"/>
      <point x="684" y="-337" type="curve"/>
      <point x="711" y="-337" type="line"/>
      <point x="711" y="-260"/>
      <point x="712" y="-185"/>
      <point x="726" y="-86" type="curve"/>
    </contour>
    <contour>
      <point x="504" y="858" type="line"/>
      <point x="525" y="759"/>
      <point x="520" y="684"/>
      <point x="520" y="607" type="curve"/>
      <point x="547" y="607" type="line"/>
      <point x="547" y="684"/>
      <point x="548" y="759"/>
      <point x="562" y="858" type="curve"/>
    </contour>
    <contour>
      <point x="670" y="858" type="line"/>
      <point x="691" y="759"/>
      <point x="686" y="684"/>
      <point x="686" y="607" type="curve"/>
      <point x="713" y="607" type="line"/>
      <point x="713" y="684"/>
      <point x="714" y="759"/>
      <point x="728" y="858" type="curve"/>
    </contour>
  </outline>
</glyph>
<glyph name="u12602" format="2">
  <advance width="1038"/>
  <unicode hex="12602"/>
  <outline>
    <contour>
      <point x="412" y="256" type="line"/>
      <point x="433" y="157"/>
      <point x="448" y="51"/>
      <point x="448" y="-52" type="curve"/>
      <point x="475" y="-52" type="line"/>
      <point x="475" y="51"/>
      <point x="496" y="157"/>
      <point x="510" y="256" type="curve"/>
    </contour>
    <contour>
      <point x="566" y="256" type="line"/>
      <point x="586" y="157"/>
      <point x="601" y="51"/>
      <point x="601" y="-52" type="curve"/>
      <point x="628" y="-52" type="line"/>
      <point x="628" y="51"/>
      <point x="649" y="157"/>
      <point x="663" y="256" type="curve"/>
    </contour>
    <contour>
      <point x="304" y="592" type="line"/>
      <point x="324" y="493"/>
      <point x="339" y="387"/>
      <point x="339" y="284" type="curve"/>
      <point x="366" y="284" type="line"/>
      <point x="366" y="387"/>
      <point x="387" y="493"/>
      <point x="401" y="592" type="curve"/>
    </contour>
    <contour>
      <point x="456" y="592" type="line"/>
      <point x="477" y="493"/>
      <point x="492" y="387"/>
      <point x="492" y="284" type="curve"/>
      <point x="519" y="284" type="line"/>
      <point x="519" y="387"/>
      <point x="540" y="493"/>
      <point x="554" y="592" type="curve"/>
    </contour>
  <component base="u125B6"/>
  </outline>
</glyph>
<glyph name="u12606" format="2">
  <advance width="1223"/>
  <unicode hex="12606"/>
  <outline>
    <contour>
      <point x="1123" y="310" type="curve"/>
      <point x="1123" y="472"/>
      <point x="357" y="528"/>
      <point x="264" y="528" type="curve"/>
      <point x="211" y="528" type="line"/>
      <point x="211" y="93" type="line"/>
      <point x="264" y="93" type="line"/>
      <point x="357" y="93"/>
      <point x="1123" y="148"/>
    </contour>
    <contour>
      <point x="1080" y="310" type="curve"/>
      <point x="1080" y="180"/>
      <point x="334" y="133"/>
      <point x="264" y="133" type="curve"/>
      <point x="288" y="137"/>
      <point x="377" y="200"/>
      <point x="377" y="310" type="curve"/>
      <point x="377" y="420"/>
      <point x="292" y="471"/>
      <point x="264" y="487" type="curve"/>
      <point x="334" y="487"/>
      <point x="1080" y="440"/>
    </contour>
    <contour>
      <point x="100" y="185" type="line"/>
      <point x="199" y="205"/>
      <point x="304" y="220"/>
      <point x="407" y="220" type="curve"/>
      <point x="407" y="247" type="line"/>
      <point x="304" y="247"/>
      <point x="199" y="269"/>
      <point x="100" y="282" type="curve"/>
    </contour>
    <contour>
      <point x="100" y="341" type="line"/>
      <point x="199" y="361"/>
      <point x="304" y="376"/>
      <point x="407" y="376" type="curve"/>
      <point x="407" y="403" type="line"/>
      <point x="304" y="403"/>
      <point x="199" y="425"/>
      <point x="100" y="438" type="curve"/>
    </contour>
    <contour>
      <point x="775" y="195" type="line"/>
      <point x="874" y="215"/>
      <point x="979" y="220"/>
      <point x="1082" y="220" type="curve"/>
      <point x="1082" y="247" type="line"/>
      <point x="979" y="247"/>
      <point x="874" y="259"/>
      <point x="775" y="272" type="curve"/>
    </contour>
    <contour>
      <point x="775" y="351" type="line"/>
      <point x="874" y="371"/>
      <point x="979" y="376"/>
      <point x="1082" y="376" type="curve"/>
      <point x="1082" y="403" type="line"/>
      <point x="979" y="403"/>
      <point x="874" y="415"/>
      <point x="775" y="428" type="curve"/>
    </contour>
  </outline>
</glyph>
<glyph name="u1260B" format="2">
  <advance width="814"/>
  <unicode hex="1260B"/>
  <outline>
    <contour>
      <point x="100" y="195" type="line"/>
      <point x="199" y="215"/>
      <point x="304" y="230"/>
      <point x="407" y="230" type="curve"/>
      <point x="407" y="257" type="line"/>
      <point x="304" y="257"/>
      <point x="199" y="279"/>
      <point x="100" y="292" type="curve"/>
    </contour>
    <contour>
      <point x="100" y="351" type="line"/>
      <point x="199" y="371"/>
      <point x="304" y="386"/>
      <point x="407" y="386" type="curve"/>
      <point x="407" y="413" type="line"/>
      <point x="304" y="413"/>
      <point x="199" y="435"/>
      <point x="100" y="448" type="curve"/>
    </contour>
    <contour>
      <point x="407" y="202" type="line"/>
      <point x="506" y="222"/>
      <point x="611" y="227"/>
      <point x="714" y="227" type="curve"/>
      <point x="714" y="254" type="line"/>
      <point x="611" y="254"/>
      <point x="506" y="266"/>
      <point x="407" y="279" type="curve"/>
    </contour>
    <contour>
      <point x="407" y="358" type="line"/>
      <point x="506" y="378"/>
      <point x="611" y="383"/>
      <point x="714" y="383" type="curve"/>
      <point x="714" y="410" type="line"/>
      <point x="611" y="410"/>
      <point x="506" y="422"/>
      <point x="407" y="435" type="curve"/>
    </contour>
  <component base="u12562" xOffset="101"/>
  </outline>
</glyph>
<glyph name="u12614" format="2">
  <advance width="1257"/>
  <unicode hex="12614"/>
  <outline>
    <contour>
      <point x="100" y="161" type="line"/>
      <point x="199" y="181"/>
      <point x="304" y="196"/>
      <point x="407" y="196" type="curve"/>
      <point x="407" y="223" type="line"/>
      <point x="304" y="223"/>
      <point x="199" y="245"/>
      <point x="100" y="258" type="curve"/>
    </contour>
    <contour>
      <point x="100" y="317" type="line"/>
      <point x="199" y="337"/>
      <point x="304" y="352"/>
      <point x="407" y="352" type="curve"/>
      <point x="407" y="379" type="line"/>
      <point x="304" y="379"/>
      <point x="199" y="401"/>
      <point x="100" y="414" type="curve"/>
    </contour>
    <contour>
      <point x="850" y="170" type="line"/>
      <point x="949" y="190"/>
      <point x="1054" y="195"/>
      <point x="1157" y="195" type="curve"/>
      <point x="1157" y="222" type="line"/>
      <point x="1054" y="222"/>
      <point x="949" y="234"/>
      <point x="850" y="247" type="curve"/>
    </contour>
    <contour>
      <point x="850" y="326" type="line"/>
      <point x="949" y="346"/>
      <point x="1054" y="351"/>
      <point x="1157" y="351" type="curve"/>
      <point x="1157" y="378" type="line"/>
      <point x="1054" y="378"/>
      <point x="949" y="390"/>
      <point x="850" y="403" type="curve"/>
    </contour>
  <component base="u12579" xOffset="108"/>
  </outline>
</glyph>
<glyph name="u12616" format="2">
  <advance width="1714"/>
  <unicode hex="12616"/>
  <outline>
    <contour>
      <point x="1574" y="280" type="curve"/>
      <point x="1574" y="652"/>
      <point x="382" y="700"/>
      <point x="289" y="700" type="curve"/>
      <point x="236" y="700" type="line"/>
      <point x="236" y="-139" type="line"/>
      <point x="289" y="-139" type="line"/>
      <point x="382" y="-139"/>
      <point x="1574" y="-92"/>
    </contour>
    <contour>
      <point x="1533" y="280" type="curve"/>
      <point x="1533" y="-70"/>
      <point x="359" y="-99"/>
      <point x="289" y="-99" type="curve"/>
      <point x="293" y="-95"/>
      <point x="482" y="20"/>
      <point x="482" y="280" type="curve"/>
      <point x="482" y="540"/>
      <point x="297" y="643"/>
      <point x="289" y="659" type="curve"/>
      <point x="359" y="659"/>
      <point x="1533" y="630"/>
    </contour>
    <contour>
      <point x="100" y="160" type="line"/>
      <point x="199" y="180"/>
      <point x="304" y="195"/>
      <point x="407" y="195" type="curve"/>
      <point x="407" y="222" type="line"/>
      <point x="304" y="222"/>
      <point x="199" y="244"/>
      <point x="100" y="257" type="curve"/>
    </contour>
    <contour>
      <point x="100" y="316" type="line"/>
      <point x="199" y="336"/>
      <point x="304" y="351"/>
      <point x="407" y="351" type="curve"/>
      <point x="407" y="378" type="line"/>
      <point x="304" y="378"/>
      <point x="199" y="400"/>
      <point x="100" y="413" type="curve"/>
    </contour>
    <contour>
      <point x="1307" y="169" type="line"/>
      <point x="1406" y="189"/>
      <point x="1511" y="194"/>
      <point x="1614" y="194" type="curve"/>
      <point x="1614" y="221" type="line"/>
      <point x="1511" y="221"/>
      <point x="1406" y="233"/>
      <point x="1307" y="246" type="curve"/>
    </contour>
    <contour>
      <point x="1307" y="325" type="line"/>
      <point x="1406" y="345"/>
      <point x="1511" y="350"/>
      <point x="1614" y="350" type="curve"/>
      <point x="1614" y="377" type="line"/>
      <point x="1511" y="377"/>
      <point x="1406" y="389"/>
      <point x="1307" y="402" type="curve"/>
    </contour>
  </outline>
</glyph>
<glyph name="u1261F" format="2">
  <advance width="1628"/>
  <unicode hex="1261F"/>
  <outline>
    <contour>
      <point x="1528" y="250" type="curve"/>
      <point x="1528" y="622"/>
      <point x="336" y="670"/>
      <point x="243" y="670" type="curve"/>
      <point x="190" y="670" type="line"/>
      <point x="190" y="-169" type="line"/>
      <point x="243" y="-169" type="line"/>
      <point x="336" y="-169"/>
      <point x="1528" y="-122"/>
    </contour>
    <contour>
      <point x="1487" y="250" type="curve"/>
      <point x="1487" y="-100"/>
      <point x="313" y="-129"/>
      <point x="243" y="-129" type="curve"/>
      <point x="247" y="-125"/>
      <point x="436" y="-10"/>
      <point x="436" y="250" type="curve"/>
      <point x="436" y="510"/>
      <point x="251" y="613"/>
      <point x="243" y="629" type="curve"/>
      <point x="313" y="629"/>
      <point x="1487" y="600"/>
    </contour>
    <contour>
      <point x="100" y="116" type="line"/>
      <point x="199" y="136"/>
      <point x="304" y="151"/>
      <point x="407" y="151" type="curve"/>
      <point x="407" y="178" type="line"/>
      <point x="304" y="178"/>
      <point x="199" y="200"/>
      <point x="100" y="213" type="curve"/>
    </contour>
    <contour>
      <point x="100" y="272" type="line"/>
      <point x="199" y="292"/>
      <point x="304" y="307"/>
      <point x="407" y="307" type="curve"/>
      <point x="407" y="334" type="line"/>
      <point x="304" y="334"/>
      <point x="199" y="356"/>
      <point x="100" y="369" type="curve"/>
    </contour>
    <contour>
      <point x="1106" y="140" type="line"/>
      <point x="1205" y="160"/>
      <point x="1310" y="165"/>
      <point x="1413" y="165" type="curve"/>
      <point x="1413" y="192" type="line"/>
      <point x="1310" y="192"/>
      <point x="1205" y="204"/>
      <point x="1106" y="217" type="curve"/>
    </contour>
    <contour>
      <point x="1106" y="296" type="line"/>
      <point x="1205" y="316"/>
      <point x="1310" y="321"/>
      <point x="1413" y="321" type="curve"/>
      <point x="1413" y="348" type="line"/>
      <point x="1310" y="348"/>
      <point x="1205" y="360"/>
      <point x="1106" y="373" type="curve"/>
    </contour>
    <contour>
      <point x="796" y="50" type="curve"/>
      <point x="906" y="50"/>
      <point x="996" y="140"/>
      <point x="996" y="250" type="curve"/>
      <point x="996" y="360"/>
      <point x="906" y="450"/>
      <point x="796" y="450" type="curve"/>
      <point x="685" y="450"/>
      <point x="596" y="360"/>
      <point x="596" y="250" type="curve"/>
      <point x="596" y="140"/>
      <point x="685" y="50"/>
    </contour>
  </outline>
</glyph>
<glyph name="u12623" format="2">
  <advance width="1085"/>
  <unicode hex="12623"/>
  <outline>
    <contour>
      <point x="100" y="188" type="line"/>
      <point x="156" y="184"/>
      <point x="181" y="176"/>
      <point x="213" y="161" type="curve"/>
      <point x="222" y="179" type="line"/>
      <point x="189" y="194"/>
      <point x="167" y="208"/>
      <point x="128" y="248" type="curve"/>
      <point x="100" y="188" type="line"/>
    </contour>
    <contour>
      <point x="169" y="484" type="line"/>
      <point x="225" y="480"/>
      <point x="250" y="472"/>
      <point x="282" y="457" type="curve"/>
      <point x="291" y="475" type="line"/>
      <point x="258" y="490"/>
      <point x="236" y="504"/>
      <point x="197" y="544" type="curve"/>
      <point x="169" y="484" type="line"/>
    </contour>
    <contour>
      <point x="830" y="441" type="line"/>
      <point x="886" y="437"/>
      <point x="911" y="429"/>
      <point x="943" y="414" type="curve"/>
      <point x="952" y="432" type="line"/>
      <point x="919" y="447"/>
      <point x="897" y="461"/>
      <point x="858" y="501" type="curve"/>
      <point x="830" y="441" type="line"/>
    </contour>
    <contour>
      <point x="465" y="143" type="line"/>
      <point x="521" y="139"/>
      <point x="546" y="131"/>
      <point x="578" y="116" type="curve"/>
      <point x="587" y="134" type="line"/>
      <point x="554" y="149"/>
      <point x="532" y="163"/>
      <point x="493" y="203" type="curve"/>
      <point x="465" y="143" type="line"/>
    </contour>
    <contour>
      <point x="863" y="133" type="line"/>
      <point x="919" y="129"/>
      <point x="944" y="121"/>
      <point x="976" y="106" type="curve"/>
      <point x="985" y="124" type="line"/>
      <point x="952" y="139"/>
      <point x="930" y="153"/>
      <point x="891" y="193" type="curve"/>
      <point x="863" y="133" type="line"/>
    </contour>
  <component base="u125AA" xOffset="212"/>
  </outline>
</glyph>
<glyph name="u12624" format="2">
  <advance width="1269"/>
  <unicode hex="12624"/>
  <outline>
    <contour>
      <point x="602" y="291" type="curve"/>
      <point x="525" y="424"/>
      <point x="286" y="360"/>
      <point x="206" y="313" type="curve"/>
      <point x="160" y="287" type="line"/>
      <point x="376" y="-88" type="line"/>
      <point x="422" y="-62" type="line"/>
      <point x="503" y="-15"/>
      <point x="678" y="159"/>
    </contour>
    <contour>
      <point x="566" y="271" type="curve"/>
      <point x="631" y="158"/>
      <point x="463" y="8"/>
      <point x="402" y="-27" type="curve"/>
      <point x="399" y="-13"/>
      <point x="378" y="81"/>
      <point x="343" y="142" type="curve"/>
      <point x="308" y="202"/>
      <point x="246" y="259"/>
      <point x="226" y="278" type="curve"/>
      <point x="287" y="313"/>
      <point x="501" y="383"/>
    </contour>
    <contour>
      <point x="635" y="293" type="curve"/>
      <point x="559" y="161"/>
      <point x="734" y="-14"/>
      <point x="814" y="-61" type="curve"/>
      <point x="860" y="-87" type="line"/>
      <point x="1077" y="288" type="line"/>
      <point x="1031" y="314" type="line"/>
      <point x="950" y="361"/>
      <point x="712" y="426"/>
    </contour>
    <contour>
      <point x="671" y="273" type="curve"/>
      <point x="736" y="385"/>
      <point x="950" y="314"/>
      <point x="1011" y="279" type="curve"/>
      <point x="1000" y="269"/>
      <point x="929" y="204"/>
      <point x="894" y="144" type="curve"/>
      <point x="859" y="83"/>
      <point x="841" y="1"/>
      <point x="835" y="-25" type="curve"/>
      <point x="774" y="10"/>
      <point x="606" y="160"/>
    </contour>
    <contour>
      <point x="616" y="321" type="curve"/>
      <point x="769" y="321"/>
      <point x="833" y="560"/>
      <point x="833" y="653" type="curve"/>
      <point x="833" y="706" type="line"/>
      <point x="400" y="706" type="line"/>
      <point x="400" y="653" type="line"/>
      <point x="400" y="560"/>
      <point x="463" y="321"/>
    </contour>
    <contour>
      <point x="616" y="362" type="curve"/>
      <point x="486" y="362"/>
      <point x="440" y="583"/>
      <point x="440" y="653" type="curve"/>
      <point x="454" y="649"/>
      <point x="546" y="620"/>
      <point x="616" y="620" type="curve"/>
      <point x="686" y="620"/>
      <point x="766" y="645"/>
      <point x="792" y="653" type="curve"/>
      <point x="792" y="583"/>
      <point x="746" y="362"/>
    </contour>
    <contour>
      <point x="243" y="524" type="line"/>
      <point x="299" y="520"/>
      <point x="324" y="512"/>
      <point x="356" y="497" type="curve"/>
      <point x="365" y="515" type="line"/>
      <point x="332" y="530"/>
      <point x="310" y="544"/>
      <point x="271" y="584" type="curve"/>
      <point x="243" y="524" type="line"/>
    </contour>
    <contour>
      <point x="100" y="69" type="line"/>
      <point x="156" y="65"/>
      <point x="181" y="57"/>
      <point x="213" y="42" type="curve"/>
      <point x="222" y="60" type="line"/>
      <point x="189" y="75"/>
      <point x="167" y="89"/>
      <point x="128" y="129" type="curve"/>
      <point x="100" y="69" type="line"/>
    </contour>
    <contour>
      <point x="410" y="211" type="line"/>
      <point x="466" y="207"/>
      <point x="491" y="199"/>
      <point x="523" y="184" type="curve"/>
      <point x="532" y="202" type="line"/>
      <point x="499" y="217"/>
      <point x="477" y="231"/>
      <point x="438" y="271" type="curve"/>
      <point x="410" y="211" type="line"/>
    </contour>
    <contour>
      <point x="914" y="517" type="line"/>
      <point x="970" y="513"/>
      <point x="995" y="505"/>
      <point x="1027" y="490" type="curve"/>
      <point x="1036" y="508" type="line"/>
      <point x="1003" y="523"/>
      <point x="981" y="537"/>
      <point x="942" y="577" type="curve"/>
      <point x="914" y="517" type="line"/>
    </contour>
    <contour>
      <point x="1047" y="7" type="line"/>
      <point x="1103" y="3"/>
      <point x="1128" y="-5"/>
      <point x="1160" y="-20" type="curve"/>
      <point x="1169" y="-2" type="line"/>
      <point x="1136" y="13"/>
      <point x="1114" y="27"/>
      <point x="1075" y="67" type="curve"/>
      <point x="1047" y="7" type="line"/>
    </contour>
  </outline>
</glyph>
<glyph name="u12625" format="2">
  <advance width="1166"/>
  <unicode hex="12625"/>
  <outline>
    <contour>
      <point x="580" y="309" type="curve"/>
      <point x="580" y="462"/>
      <point x="341" y="526"/>
      <point x="248" y="526" type="curve"/>
      <point x="195" y="526" type="line"/>
      <point x="195" y="93" type="line"/>
      <point x="248" y="93" type="line"/>
      <point x="341" y="93"/>
      <point x="580" y="156"/>
    </contour>
    <contour>
      <point x="539" y="309" type="curve"/>
      <point x="539" y="179"/>
      <point x="318" y="133"/>
      <point x="248" y="133" type="curve"/>
      <point x="252" y="147"/>
      <point x="281" y="239"/>
      <point x="281" y="309" type="curve"/>
      <point x="281" y="379"/>
      <point x="256" y="459"/>
      <point x="248" y="485" type="curve"/>
      <point x="318" y="485"/>
      <point x="539" y="439"/>
    </contour>
    <contour>
      <point x="620" y="351" type="curve"/>
      <point x="773" y="351"/>
      <point x="837" y="590"/>
      <point x="837" y="683" type="curve"/>
      <point x="837" y="736" type="line"/>
      <point x="404" y="736" type="line"/>
      <point x="404" y="683" type="line"/>
      <point x="404" y="590"/>
      <point x="467" y="351"/>
    </contour>
    <contour>
      <point x="620" y="392" type="curve"/>
      <point x="490" y="392"/>
      <point x="444" y="613"/>
      <point x="444" y="683" type="curve"/>
      <point x="458" y="679"/>
      <point x="550" y="650"/>
      <point x="620" y="650" type="curve"/>
      <point x="690" y="650"/>
      <point x="770" y="675"/>
      <point x="796" y="683" type="curve"/>
      <point x="796" y="613"/>
      <point x="750" y="392"/>
    </contour>
    <contour>
      <point x="623" y="269" type="curve"/>
      <point x="470" y="269"/>
      <point x="406" y="30"/>
      <point x="406" y="-63" type="curve"/>
      <point x="406" y="-116" type="line"/>
      <point x="839" y="-116" type="line"/>
      <point x="839" y="-63" type="line"/>
      <point x="839" y="30"/>
      <point x="776" y="269"/>
    </contour>
    <contour>
      <point x="623" y="228" type="curve"/>
      <point x="753" y="228"/>
      <point x="799" y="7"/>
      <point x="799" y="-63" type="curve"/>
      <point x="785" y="-59"/>
      <point x="693" y="-30"/>
      <point x="623" y="-30" type="curve"/>
      <point x="553" y="-30"/>
      <point x="473" y="-55"/>
      <point x="447" y="-63" type="curve"/>
      <point x="447" y="7"/>
      <point x="493" y="228"/>
    </contour>
    <contour>
      <point x="665" y="311" type="curve"/>
      <point x="665" y="158"/>
      <point x="904" y="94"/>
      <point x="997" y="94" type="curve"/>
      <point x="1050" y="94" type="line"/>
      <point x="1050" y="527" type="line"/>
      <point x="997" y="527" type="line"/>
      <point x="904" y="527"/>
      <point x="665" y="464"/>
    </contour>
    <contour>
      <point x="706" y="311" type="curve"/>
      <point x="706" y="441"/>
      <point x="927" y="487"/>
      <point x="997" y="487" type="curve"/>
      <point x="993" y="473"/>
      <point x="964" y="381"/>
      <point x="964" y="311" type="curve"/>
      <point x="964" y="241"/>
      <point x="989" y="161"/>
      <point x="997" y="135" type="curve"/>
      <point x="927" y="135"/>
      <point x="706" y="181"/>
    </contour>
    <contour>
      <point x="921" y="-12" type="line"/>
      <point x="977" y="-16"/>
      <point x="1002" y="-24"/>
      <point x="1034" y="-39" type="curve"/>
      <point x="1043" y="-21" type="line"/>
      <point x="1010" y="-6"/>
      <point x="988" y="8"/>
      <point x="949" y="48" type="curve"/>
      <point x="921" y="-12" type="line"/>
    </contour>
    <contour>
      <point x="562" y="112" type="line"/>
      <point x="618" y="108"/>
      <point x="643" y="100"/>
      <point x="675" y="85" type="curve"/>
      <point x="684" y="103" type="line"/>
      <point x="651" y="118"/>
      <point x="629" y="132"/>
      <point x="590" y="172" type="curve"/>
      <point x="562" y="112" type="line"/>
    </contour>
    <contour>
      <point x="363" y="370" type="line"/>
      <point x="419" y="366"/>
      <point x="444" y="358"/>
      <point x="476" y="343" type="curve"/>
      <point x="485" y="361" type="line"/>
      <point x="452" y="376"/>
      <point x="430" y="390"/>
      <point x="391" y="430" type="curve"/>
      <point x="363" y="370" type="line"/>
    </contour>
    <contour>
      <point x="944" y="594" type="line"/>
      <point x="1000" y="590"/>
      <point x="1025" y="582"/>
      <point x="1057" y="567" type="curve"/>
      <point x="1066" y="585" type="line"/>
      <point x="1033" y="600"/>
      <point x="1011" y="614"/>
      <point x="972" y="654" type="curve"/>
      <point x="944" y="594" type="line"/>
    </contour>
    <contour>
      <point x="100" y="6" type="line"/>
      <point x="156" y="2"/>
      <point x="181" y="-6"/>
      <point x="213" y="-21" type="curve"/>
      <point x="222" y="-3" type="line"/>
      <point x="189" y="12"/>
      <point x="167" y="26"/>
      <point x="128" y="66" type="curve"/>
      <point x="100" y="6" type="line"/>
    </contour>
  </outline>
</glyph>
<glyph name="u12626" format="2">
  <advance width="1309"/>
  <unicode hex="12626"/>
  <outline>
    <contour>
      <point x="633" y="80" type="curve"/>
      <point x="633" y="233"/>
      <point x="394" y="297"/>
      <point x="301" y="297" type="curve"/>
      <point x="248" y="297" type="line"/>
      <point x="248" y="-136" type="line"/>
      <point x="301" y="-136" type="line"/>
      <point x="394" y="-136"/>
      <point x="633" y="-73"/>
    </contour>
    <contour>
      <point x="592" y="80" type="curve"/>
      <point x="592" y="-50"/>
      <point x="371" y="-96"/>
      <point x="301" y="-96" type="curve"/>
      <point x="305" y="-82"/>
      <point x="334" y="10"/>
      <point x="334" y="80" type="curve"/>
      <point x="334" y="150"/>
      <point x="309" y="230"/>
      <point x="301" y="256" type="curve"/>
      <point x="371" y="256"/>
      <point x="592" y="210"/>
    </contour>
    <contour>
      <point x="633" y="485" type="curve"/>
      <point x="633" y="638"/>
      <point x="394" y="702"/>
      <point x="301" y="702" type="curve"/>
      <point x="248" y="702" type="line"/>
      <point x="248" y="269" type="line"/>
      <point x="301" y="269" type="line"/>
      <point x="394" y="269"/>
      <point x="633" y="332"/>
    </contour>
    <contour>
      <point x="592" y="485" type="curve"/>
      <point x="592" y="355"/>
      <point x="371" y="309"/>
      <point x="301" y="309" type="curve"/>
      <point x="305" y="323"/>
      <point x="334" y="415"/>
      <point x="334" y="485" type="curve"/>
      <point x="334" y="555"/>
      <point x="309" y="635"/>
      <point x="301" y="661" type="curve"/>
      <point x="371" y="661"/>
      <point x="592" y="615"/>
    </contour>
    <contour>
      <point x="766" y="417" type="curve"/>
      <point x="919" y="417"/>
      <point x="983" y="656"/>
      <point x="983" y="749" type="curve"/>
      <point x="983" y="802" type="line"/>
      <point x="550" y="802" type="line"/>
      <point x="550" y="749" type="line"/>
      <point x="550" y="656"/>
      <point x="613" y="417"/>
    </contour>
    <contour>
      <point x="766" y="458" type="curve"/>
      <point x="636" y="458"/>
      <point x="590" y="679"/>
      <point x="590" y="749" type="curve"/>
      <point x="604" y="745"/>
      <point x="696" y="716"/>
      <point x="766" y="716" type="curve"/>
      <point x="836" y="716"/>
      <point x="916" y="741"/>
      <point x="942" y="749" type="curve"/>
      <point x="942" y="679"/>
      <point x="896" y="458"/>
    </contour>
    <contour>
      <point x="824" y="308" type="curve"/>
      <point x="824" y="155"/>
      <point x="1063" y="91"/>
      <point x="1156" y="91" type="curve"/>
      <point x="1209" y="91" type="line"/>
      <point x="1209" y="524" type="line"/>
      <point x="1156" y="524" type="line"/>
      <point x="1063" y="524"/>
      <point x="824" y="461"/>
    </contour>
    <contour>
      <point x="865" y="308" type="curve"/>
      <point x="865" y="438"/>
      <point x="1086" y="484"/>
      <point x="1156" y="484" type="curve"/>
      <point x="1152" y="470"/>
      <point x="1123" y="378"/>
      <point x="1123" y="308" type="curve"/>
      <point x="1123" y="238"/>
      <point x="1148" y="158"/>
      <point x="1156" y="132" type="curve"/>
      <point x="1086" y="132"/>
      <point x="865" y="178"/>
    </contour>
    <contour>
      <point x="767" y="149" type="curve"/>
      <point x="614" y="149"/>
      <point x="550" y="-90"/>
      <point x="550" y="-183" type="curve"/>
      <point x="550" y="-236" type="line"/>
      <point x="983" y="-236" type="line"/>
      <point x="983" y="-183" type="line"/>
      <point x="983" y="-90"/>
      <point x="920" y="149"/>
    </contour>
    <contour>
      <point x="767" y="108" type="curve"/>
      <point x="897" y="108"/>
      <point x="943" y="-113"/>
      <point x="943" y="-183" type="curve"/>
      <point x="929" y="-179"/>
      <point x="837" y="-150"/>
      <point x="767" y="-150" type="curve"/>
      <point x="697" y="-150"/>
      <point x="617" y="-175"/>
      <point x="591" y="-183" type="curve"/>
      <point x="591" y="-113"/>
      <point x="637" y="108"/>
    </contour>
    <contour>
      <point x="100" y="-24" type="line"/>
      <point x="156" y="-28"/>
      <point x="181" y="-36"/>
      <point x="213" y="-51" type="curve"/>
      <point x="222" y="-33" type="line"/>
      <point x="189" y="-18"/>
      <point x="167" y="-4"/>
      <point x="128" y="36" type="curve"/>
      <point x="100" y="-24" type="line"/>
    </contour>
    <contour>
      <point x="947" y="563" type="line"/>
      <point x="1003" y="559"/>
      <point x="1028" y="551"/>
      <point x="1060" y="536" type="curve"/>
      <point x="1069" y="554" type="line"/>
      <point x="1036" y="569"/>
      <point x="1014" y="583"/>
      <point x="975" y="623" type="curve"/>
      <point x="947" y="563" type="line"/>
    </contour>
    <contour>
      <point x="360" y="344" type="line"/>
      <point x="416" y="340"/>
      <point x="441" y="332"/>
      <point x="473" y="317" type="curve"/>
      <point x="482" y="335" type="line"/>
      <point x="449" y="350"/>
      <point x="427" y="364"/>
      <point x="388" y="404" type="curve"/>
      <point x="360" y="344" type="line"/>
    </contour>
    <contour>
      <point x="560" y="84" type="line"/>
      <point x="616" y="80"/>
      <point x="641" y="72"/>
      <point x="673" y="57" type="curve"/>
      <point x="682" y="75" type="line"/>
      <point x="649" y="90"/>
      <point x="627" y="104"/>
      <point x="588" y="144" type="curve"/>
      <point x="560" y="84" type="line"/>
    </contour>
    <contour>
      <point x="919" y="-37" type="line"/>
      <point x="975" y="-41"/>
      <point x="1000" y="-49"/>
      <point x="1032" y="-64" type="curve"/>
      <point x="1041" y="-46" type="line"/>
      <point x="1008" y="-31"/>
      <point x="986" y="-17"/>
      <point x="947" y="23" type="curve"/>
      <point x="919" y="-37" type="line"/>
    </contour>
  </outline>
</glyph>
<glyph name="u12627" format="2">
  <advance width="1233"/>
  <unicode hex="12627"/>
  <outline>
    <contour>
      <point x="617" y="442" type="curve"/>
      <point x="770" y="442"/>
      <point x="834" y="681"/>
      <point x="834" y="774" type="curve"/>
      <point x="834" y="827" type="line"/>
      <point x="401" y="827" type="line"/>
      <point x="401" y="774" type="line"/>
      <point x="401" y="681"/>
      <point x="464" y="442"/>
    </contour>
    <contour>
      <point x="617" y="483" type="curve"/>
      <point x="487" y="483"/>
      <point x="441" y="704"/>
      <point x="441" y="774" type="curve"/>
      <point x="455" y="770"/>
      <point x="547" y="741"/>
      <point x="617" y="741" type="curve"/>
      <point x="687" y="741"/>
      <point x="767" y="766"/>
      <point x="793" y="774" type="curve"/>
      <point x="793" y="704"/>
      <point x="747" y="483"/>
    </contour>
    <contour>
      <point x="618" y="177" type="curve"/>
      <point x="465" y="177"/>
      <point x="401" y="-62"/>
      <point x="401" y="-155" type="curve"/>
      <point x="401" y="-208" type="line"/>
      <point x="834" y="-208" type="line"/>
      <point x="834" y="-155" type="line"/>
      <point x="834" y="-62"/>
      <point x="771" y="177"/>
    </contour>
    <contour>
      <point x="618" y="136" type="curve"/>
      <point x="748" y="136"/>
      <point x="794" y="-85"/>
      <point x="794" y="-155" type="curve"/>
      <point x="780" y="-151"/>
      <point x="688" y="-122"/>
      <point x="618" y="-122" type="curve"/>
      <point x="548" y="-122"/>
      <point x="468" y="-147"/>
      <point x="442" y="-155" type="curve"/>
      <point x="442" y="-85"/>
      <point x="488" y="136"/>
    </contour>
    <contour>
      <point x="485" y="105" type="curve"/>
      <point x="485" y="258"/>
      <point x="246" y="322"/>
      <point x="153" y="322" type="curve"/>
      <point x="100" y="322" type="line"/>
      <point x="100" y="-111" type="line"/>
      <point x="153" y="-111" type="line"/>
      <point x="246" y="-111"/>
      <point x="485" y="-48"/>
    </contour>
    <contour>
      <point x="444" y="105" type="curve"/>
      <point x="444" y="-25"/>
      <point x="223" y="-71"/>
      <point x="153" y="-71" type="curve"/>
      <point x="157" y="-57"/>
      <point x="186" y="35"/>
      <point x="186" y="105" type="curve"/>
      <point x="186" y="175"/>
      <point x="161" y="255"/>
      <point x="153" y="281" type="curve"/>
      <point x="223" y="281"/>
      <point x="444" y="235"/>
    </contour>
    <contour>
      <point x="485" y="510" type="curve"/>
      <point x="485" y="663"/>
      <point x="246" y="727"/>
      <point x="153" y="727" type="curve"/>
      <point x="100" y="727" type="line"/>
      <point x="100" y="294" type="line"/>
      <point x="153" y="294" type="line"/>
      <point x="246" y="294"/>
      <point x="485" y="357"/>
    </contour>
    <contour>
      <point x="444" y="510" type="curve"/>
      <point x="444" y="380"/>
      <point x="223" y="334"/>
      <point x="153" y="334" type="curve"/>
      <point x="157" y="348"/>
      <point x="186" y="440"/>
      <point x="186" y="510" type="curve"/>
      <point x="186" y="580"/>
      <point x="161" y="660"/>
      <point x="153" y="686" type="curve"/>
      <point x="223" y="686"/>
      <point x="444" y="640"/>
    </contour>
    <contour>
      <point x="748" y="511" type="curve"/>
      <point x="748" y="358"/>
      <point x="987" y="294"/>
      <point x="1080" y="294" type="curve"/>
      <point x="1133" y="294" type="line"/>
      <point x="1133" y="727" type="line"/>
      <point x="1080" y="727" type="line"/>
      <point x="987" y="727"/>
      <point x="748" y="664"/>
    </contour>
    <contour>
      <point x="789" y="511" type="curve"/>
      <point x="789" y="641"/>
      <point x="1010" y="687"/>
      <point x="1080" y="687" type="curve"/>
      <point x="1076" y="673"/>
      <point x="1047" y="581"/>
      <point x="1047" y="511" type="curve"/>
      <point x="1047" y="441"/>
      <point x="1072" y="361"/>
      <point x="1080" y="335" type="curve"/>
      <point x="1010" y="335"/>
      <point x="789" y="381"/>
    </contour>
    <contour>
      <point x="748" y="106" type="curve"/>
      <point x="748" y="-47"/>
      <point x="987" y="-111"/>
      <point x="1080" y="-111" type="curve"/>
      <point x="1133" y="-111" type="line"/>
      <point x="1133" y="322" type="line"/>
      <point x="1080" y="322" type="line"/>
      <point x="987" y="322"/>
      <point x="748" y="259"/>
    </contour>
    <contour>
      <point x="789" y="106" type="curve"/>
      <point x="789" y="236"/>
      <point x="1010" y="282"/>
      <point x="1080" y="282" type="curve"/>
      <point x="1076" y="268"/>
      <point x="1047" y="176"/>
      <point x="1047" y="106" type="curve"/>
      <point x="1047" y="36"/>
      <point x="1072" y="-44"/>
      <point x="1080" y="-70" type="curve"/>
      <point x="1010" y="-70"/>
      <point x="789" y="-24"/>
    </contour>
    <contour>
      <point x="274" y="560" type="line"/>
      <point x="330" y="556"/>
      <point x="355" y="548"/>
      <point x="387" y="533" type="curve"/>
      <point x="396" y="551" type="line"/>
      <point x="363" y="566"/>
      <point x="341" y="580"/>
      <point x="302" y="620" type="curve"/>
      <point x="274" y="560" type="line"/>
    </contour>
    <contour>
      <point x="585" y="605" type="line"/>
      <point x="641" y="601"/>
      <point x="666" y="593"/>
      <point x="698" y="578" type="curve"/>
      <point x="707" y="596" type="line"/>
      <point x="674" y="611"/>
      <point x="652" y="625"/>
      <point x="613" y="665" type="curve"/>
      <point x="585" y="605" type="line"/>
    </contour>
    <contour>
      <point x="881" y="487" type="line"/>
      <point x="937" y="483"/>
      <point x="962" y="475"/>
      <point x="994" y="460" type="curve"/>
      <point x="1003" y="478" type="line"/>
      <point x="970" y="493"/>
      <point x="948" y="507"/>
      <point x="909" y="547" type="curve"/>
      <point x="881" y="487" type="line"/>
    </contour>
    <contour>
      <point x="495" y="218" type="line"/>
      <point x="551" y="214"/>
      <point x="576" y="206"/>
      <point x="608" y="191" type="curve"/>
      <point x="617" y="209" type="line"/>
      <point x="584" y="224"/>
      <point x="562" y="238"/>
      <point x="523" y="278" type="curve"/>
      <point x="495" y="218" type="line"/>
    </contour>
    <contour>
      <point x="229" y="-213" type="line"/>
      <point x="285" y="-217"/>
      <point x="310" y="-225"/>
      <point x="342" y="-240" type="curve"/>
      <point x="351" y="-222" type="line"/>
      <point x="318" y="-207"/>
      <point x="296" y="-193"/>
      <point x="257" y="-153" type="curve"/>
      <point x="229" y="-213" type="line"/>
    </contour>
    <contour>
      <point x="1002" y="-183" type="line"/>
      <point x="1058" y="-187"/>
      <point x="1083" y="-195"/>
      <point x="1115" y="-210" type="curve"/>
      <point x="1124" y="-192" type="line"/>
      <point x="1091" y="-177"/>
      <point x="1069" y="-163"/>
      <point x="1030" y="-123" type="curve"/>
      <point x="1002" y="-183" type="line"/>
    </contour>
  </outline>
</glyph>
<glyph name="u12628" format="2">
  <advance width="1328"/>
  <unicode hex="12628"/>
  <outline>
    <contour>
      <point x="709" y="441" type="curve"/>
      <point x="862" y="441"/>
      <point x="926" y="680"/>
      <point x="926" y="773" type="curve"/>
      <point x="926" y="826" type="line"/>
      <point x="493" y="826" type="line"/>
      <point x="493" y="773" type="line"/>
      <point x="493" y="680"/>
      <point x="556" y="441"/>
    </contour>
    <contour>
      <point x="709" y="482" type="curve"/>
      <point x="579" y="482"/>
      <point x="533" y="703"/>
      <point x="533" y="773" type="curve"/>
      <point x="547" y="769"/>
      <point x="639" y="740"/>
      <point x="709" y="740" type="curve"/>
      <point x="779" y="740"/>
      <point x="859" y="765"/>
      <point x="885" y="773" type="curve"/>
      <point x="885" y="703"/>
      <point x="839" y="482"/>
    </contour>
    <contour>
      <point x="710" y="176" type="curve"/>
      <point x="557" y="176"/>
      <point x="493" y="-63"/>
      <point x="493" y="-156" type="curve"/>
      <point x="493" y="-209" type="line"/>
      <point x="926" y="-209" type="line"/>
      <point x="926" y="-156" type="line"/>
      <point x="926" y="-63"/>
      <point x="863" y="176"/>
    </contour>
    <contour>
      <point x="710" y="135" type="curve"/>
      <point x="840" y="135"/>
      <point x="886" y="-86"/>
      <point x="886" y="-156" type="curve"/>
      <point x="872" y="-152"/>
      <point x="780" y="-123"/>
      <point x="710" y="-123" type="curve"/>
      <point x="640" y="-123"/>
      <point x="560" y="-148"/>
      <point x="534" y="-156" type="curve"/>
      <point x="534" y="-86"/>
      <point x="580" y="135"/>
    </contour>
    <contour>
      <point x="576" y="104" type="curve"/>
      <point x="576" y="257"/>
      <point x="337" y="321"/>
      <point x="244" y="321" type="curve"/>
      <point x="191" y="321" type="line"/>
      <point x="191" y="-112" type="line"/>
      <point x="244" y="-112" type="line"/>
      <point x="337" y="-112"/>
      <point x="576" y="-49"/>
    </contour>
    <contour>
      <point x="535" y="104" type="curve"/>
      <point x="535" y="-26"/>
      <point x="314" y="-72"/>
      <point x="244" y="-72" type="curve"/>
      <point x="248" y="-58"/>
      <point x="277" y="34"/>
      <point x="277" y="104" type="curve"/>
      <point x="277" y="174"/>
      <point x="252" y="254"/>
      <point x="244" y="280" type="curve"/>
      <point x="314" y="280"/>
      <point x="535" y="234"/>
    </contour>
    <contour>
      <point x="576" y="509" type="curve"/>
      <point x="576" y="662"/>
      <point x="337" y="726"/>
      <point x="244" y="726" type="curve"/>
      <point x="191" y="726" type="line"/>
      <point x="191" y="293" type="line"/>
      <point x="244" y="293" type="line"/>
      <point x="337" y="293"/>
      <point x="576" y="356"/>
    </contour>
    <contour>
      <point x="535" y="509" type="curve"/>
      <point x="535" y="379"/>
      <point x="314" y="333"/>
      <point x="244" y="333" type="curve"/>
      <point x="248" y="347"/>
      <point x="277" y="439"/>
      <point x="277" y="509" type="curve"/>
      <point x="277" y="579"/>
      <point x="252" y="659"/>
      <point x="244" y="685" type="curve"/>
      <point x="314" y="685"/>
      <point x="535" y="639"/>
    </contour>
    <contour>
      <point x="842" y="510" type="curve"/>
      <point x="842" y="357"/>
      <point x="1081" y="293"/>
      <point x="1174" y="293" type="curve"/>
      <point x="1227" y="293" type="line"/>
      <point x="1227" y="726" type="line"/>
      <point x="1174" y="726" type="line"/>
      <point x="1081" y="726"/>
      <point x="842" y="663"/>
    </contour>
    <contour>
      <point x="883" y="510" type="curve"/>
      <point x="883" y="640"/>
      <point x="1104" y="686"/>
      <point x="1174" y="686" type="curve"/>
      <point x="1170" y="672"/>
      <point x="1141" y="580"/>
      <point x="1141" y="510" type="curve"/>
      <point x="1141" y="440"/>
      <point x="1166" y="360"/>
      <point x="1174" y="334" type="curve"/>
      <point x="1104" y="334"/>
      <point x="883" y="380"/>
    </contour>
    <contour>
      <point x="843" y="105" type="curve"/>
      <point x="843" y="-48"/>
      <point x="1082" y="-112"/>
      <point x="1175" y="-112" type="curve"/>
      <point x="1228" y="-112" type="line"/>
      <point x="1228" y="321" type="line"/>
      <point x="1175" y="321" type="line"/>
      <point x="1082" y="321"/>
      <point x="843" y="258"/>
    </contour>
    <contour>
      <point x="883" y="105" type="curve"/>
      <point x="883" y="235"/>
      <point x="1104" y="281"/>
      <point x="1174" y="281" type="curve"/>
      <point x="1170" y="267"/>
      <point x="1141" y="175"/>
      <point x="1141" y="105" type="curve"/>
      <point x="1141" y="35"/>
      <point x="1166" y="-45"/>
      <point x="1174" y="-71" type="curve"/>
      <point x="1104" y="-71"/>
      <point x="883" y="-25"/>
    </contour>
    <contour>
      <point x="708" y="109" type="curve"/>
      <point x="819" y="109"/>
      <point x="908" y="198"/>
      <point x="908" y="309" type="curve"/>
      <point x="908" y="420"/>
      <point x="819" y="509"/>
      <point x="708" y="509" type="curve"/>
      <point x="598" y="509"/>
      <point x="508" y="420"/>
      <point x="508" y="309" type="curve"/>
      <point x="508" y="198"/>
      <point x="598" y="109"/>
    </contour>
    <contour>
      <point x="100" y="2" type="line"/>
      <point x="156" y="-2"/>
      <point x="181" y="-10"/>
      <point x="213" y="-25" type="curve"/>
      <point x="222" y="-7" type="line"/>
      <point x="189" y="8"/>
      <point x="167" y="22"/>
      <point x="128" y="62" type="curve"/>
      <point x="100" y="2" type="line"/>
    </contour>
    <contour>
      <point x="563" y="106" type="line"/>
      <point x="619" y="102"/>
      <point x="644" y="94"/>
      <point x="676" y="79" type="curve"/>
      <point x="685" y="97" type="line"/>
      <point x="652" y="112"/>
      <point x="630" y="126"/>
      <point x="591" y="166" type="curve"/>
      <point x="563" y="106" type="line"/>
    </contour>
    <contour>
      <point x="364" y="370" type="line"/>
      <point x="420" y="366"/>
      <point x="445" y="358"/>
      <point x="477" y="343" type="curve"/>
      <point x="486" y="361" type="line"/>
      <point x="453" y="376"/>
      <point x="431" y="390"/>
      <point x="392" y="430" type="curve"/>
      <point x="364" y="370" type="line"/>
    </contour>
    <contour>
      <point x="949" y="587" type="line"/>
      <point x="1005" y="583"/>
      <point x="1030" y="575"/>
      <point x="1062" y="560" type="curve"/>
      <point x="1071" y="578" type="line"/>
      <point x="1038" y="593"/>
      <point x="1016" y="607"/>
      <point x="977" y="647" type="curve"/>
      <point x="949" y="587" type="line"/>
    </contour>
    <contour>
      <point x="919" y="-13" type="line"/>
      <point x="975" y="-17"/>
      <point x="1000" y="-25"/>
      <point x="1032" y="-40" type="curve"/>
      <point x="1041" y="-22" type="line"/>
      <point x="1008" y="-7"/>
      <point x="986" y="7"/>
      <point x="947" y="47" type="curve"/>
      <point x="919" y="-13" type="line"/>
    </contour>
  </outline>
</glyph>
<glyph name="u12629" format="2">
  <advance width="1342"/>
  <unicode hex="12629"/>
  <outline>
    <contour>
      <point x="100" y="416" type="line"/>
      <point x="156" y="412"/>
      <point x="181" y="404"/>
      <point x="213" y="389" type="curve"/>
      <point x="222" y="407" type="line"/>
      <point x="189" y="422"/>
      <point x="167" y="436"/>
      <point x="128" y="476" type="curve"/>
      <point x="100" y="416" type="line"/>
    </contour>
    <contour>
      <point x="1120" y="602" type="line"/>
      <point x="1176" y="598"/>
      <point x="1201" y="590"/>
      <point x="1233" y="575" type="curve"/>
      <point x="1242" y="593" type="line"/>
      <point x="1209" y="608"/>
      <point x="1187" y="622"/>
      <point x="1148" y="662" type="curve"/>
      <point x="1120" y="602" type="line"/>
    </contour>
    <contour>
      <point x="696" y="215" type="line"/>
      <point x="752" y="211"/>
      <point x="777" y="203"/>
      <point x="809" y="188" type="curve"/>
      <point x="818" y="206" type="line"/>
      <point x="785" y="221"/>
      <point x="763" y="235"/>
      <point x="724" y="275" type="curve"/>
      <point x="696" y="215" type="line"/>
    </contour>
    <contour>
      <point x="334" y="106" type="line"/>
      <point x="390" y="102"/>
      <point x="415" y="94"/>
      <point x="447" y="79" type="curve"/>
      <point x="456" y="97" type="line"/>
      <point x="423" y="112"/>
      <point x="401" y="126"/>
      <point x="362" y="166" type="curve"/>
      <point x="334" y="106" type="line"/>
    </contour>
    <contour>
      <point x="950" y="-26" type="line"/>
      <point x="1006" y="-30"/>
      <point x="1031" y="-38"/>
      <point x="1063" y="-53" type="curve"/>
      <point x="1072" y="-35" type="line"/>
      <point x="1039" y="-20"/>
      <point x="1017" y="-6"/>
      <point x="978" y="34" type="curve"/>
      <point x="950" y="-26" type="line"/>
    </contour>
  <component base="u125B6" xOffset="174" yOffset="1"/>
  </outline>
</glyph>
<glyph name="u1262D" format="2">
  <advance width="1342"/>
  <unicode hex="1262D"/>
  <outline>
    <contour>
      <point x="100" y="405" type="line"/>
      <point x="156" y="401"/>
      <point x="181" y="393"/>
      <point x="213" y="378" type="curve"/>
      <point x="222" y="396" type="line"/>
      <point x="189" y="411"/>
      <point x="167" y="425"/>
      <point x="128" y="465" type="curve"/>
      <point x="100" y="405" type="line"/>
    </contour>
    <contour>
      <point x="1120" y="591" type="line"/>
      <point x="1176" y="587"/>
      <point x="1201" y="579"/>
      <point x="1233" y="564" type="curve"/>
      <point x="1242" y="582" type="line"/>
      <point x="1209" y="597"/>
      <point x="1187" y="611"/>
      <point x="1148" y="651" type="curve"/>
      <point x="1120" y="591" type="line"/>
    </contour>
    <contour>
      <point x="696" y="204" type="line"/>
      <point x="752" y="200"/>
      <point x="777" y="192"/>
      <point x="809" y="177" type="curve"/>
      <point x="818" y="195" type="line"/>
      <point x="785" y="210"/>
      <point x="763" y="224"/>
      <point x="724" y="264" type="curve"/>
      <point x="696" y="204" type="line"/>
    </contour>
    <contour>
      <point x="334" y="95" type="line"/>
      <point x="390" y="91"/>
      <point x="415" y="83"/>
      <point x="447" y="68" type="curve"/>
      <point x="456" y="86" type="line"/>
      <point x="423" y="101"/>
      <point x="401" y="115"/>
      <point x="362" y="155" type="curve"/>
      <point x="334" y="95" type="line"/>
    </contour>
    <contour>
      <point x="950" y="-37" type="line"/>
      <point x="1006" y="-41"/>
      <point x="1031" y="-49"/>
      <point x="1063" y="-64" type="curve"/>
      <point x="1072" y="-46" type="line"/>
      <point x="1039" y="-31"/>
      <point x="1017" y="-17"/>
      <point x="978" y="23" type="curve"/>
      <point x="950" y="-37" type="line"/>
    </contour>
  <component base="u125BA" xOffset="174"/>
  </outline>
</glyph>
<glyph name="u12631" format="2">
  <advance width="1342"/>
  <unicode hex="12631"/>
  <outline>
    <contour>
      <point x="100" y="495" type="line"/>
      <point x="156" y="491"/>
      <point x="181" y="483"/>
      <point x="213" y="468" type="curve"/>
      <point x="222" y="486" type="line"/>
      <point x="189" y="501"/>
      <point x="167" y="515"/>
      <point x="128" y="555" type="curve"/>
      <point x="100" y="495" type="line"/>
    </contour>
    <contour>
      <point x="1120" y="481" type="line"/>
      <point x="1176" y="477"/>
      <point x="1201" y="469"/>
      <point x="1233" y="454" type="curve"/>
      <point x="1242" y="472" type="line"/>
      <point x="1209" y="487"/>
      <point x="1187" y="501"/>
      <point x="1148" y="541" type="curve"/>
      <point x="1120" y="481" type="line"/>
    </contour>
    <contour>
      <point x="693" y="285" type="line"/>
      <point x="749" y="281"/>
      <point x="774" y="273"/>
      <point x="806" y="258" type="curve"/>
      <point x="815" y="276" type="line"/>
      <point x="782" y="291"/>
      <point x="760" y="305"/>
      <point x="721" y="345" type="curve"/>
      <point x="693" y="285" type="line"/>
    </contour>
    <contour>
      <point x="219" y="242" type="line"/>
      <point x="275" y="238"/>
      <point x="300" y="230"/>
      <point x="332" y="215" type="curve"/>
      <point x="341" y="233" type="line"/>
      <point x="308" y="248"/>
      <point x="286" y="262"/>
      <point x="247" y="302" type="curve"/>
      <point x="219" y="242" type="line"/>
    </contour>
    <contour>
      <point x="1056" y="72" type="line"/>
      <point x="1112" y="68"/>
      <point x="1137" y="60"/>
      <point x="1169" y="45" type="curve"/>
      <point x="1178" y="63" type="line"/>
      <point x="1145" y="78"/>
      <point x="1123" y="92"/>
      <point x="1084" y="132" type="curve"/>
      <point x="1056" y="72" type="line"/>
    </contour>
  <component base="u12550" xOffset="228"/>
  </outline>
</glyph>
<glyph name="u12636" format="2">
  <advance width="947"/>
  <unicode hex="12636"/>
  <outline>
    <contour>
      <point x="100" y="420" type="line"/>
      <point x="156" y="416"/>
      <point x="181" y="408"/>
      <point x="213" y="393" type="curve"/>
      <point x="222" y="411" type="line"/>
      <point x="189" y="426"/>
      <point x="167" y="440"/>
      <point x="128" y="480" type="curve"/>
      <point x="100" y="420" type="line"/>
    </contour>
    <contour>
      <point x="100" y="420" type="line"/>
      <point x="156" y="416"/>
      <point x="181" y="408"/>
      <point x="213" y="393" type="curve"/>
      <point x="222" y="411" type="line"/>
      <point x="189" y="426"/>
      <point x="167" y="440"/>
      <point x="128" y="480" type="curve"/>
      <point x="100" y="420" type="line"/>
    </contour>
    <contour>
      <point x="660" y="103" type="line"/>
      <point x="716" y="99"/>
      <point x="741" y="91"/>
      <point x="773" y="76" type="curve"/>
      <point x="782" y="94" type="line"/>
      <point x="749" y="109"/>
      <point x="727" y="123"/>
      <point x="688" y="163" type="curve"/>
      <point x="660" y="103" type="line"/>
    </contour>
    <contour>
      <point x="725" y="431" type="line"/>
      <point x="781" y="427"/>
      <point x="806" y="419"/>
      <point x="838" y="404" type="curve"/>
      <point x="847" y="422" type="line"/>
      <point x="814" y="437"/>
      <point x="792" y="451"/>
      <point x="753" y="491" type="curve"/>
      <point x="725" y="431" type="line"/>
    </contour>
    <contour>
      <point x="378" y="276" type="curve"/>
      <point x="406" y="336" type="line"/>
      <point x="445" y="295"/>
      <point x="467" y="282"/>
      <point x="500" y="266" type="curve"/>
      <point x="491" y="248" type="line"/>
      <point x="459" y="264"/>
      <point x="434" y="272"/>
    </contour>
    <contour>
      <point x="406" y="336" type="line"/>
      <point x="445" y="295"/>
      <point x="467" y="282"/>
      <point x="500" y="266" type="curve"/>
      <point x="491" y="248" type="line"/>
      <point x="459" y="264"/>
      <point x="434" y="272"/>
      <point x="378" y="276" type="curve"/>
      <point x="406" y="336" type="line"/>
    </contour>
    <contour>
      <point x="406" y="362" type="curve"/>
      <point x="406" y="362" type="line"/>
      <point x="406" y="362" type="line"/>
      <point x="413" y="362"/>
      <point x="420" y="359"/>
      <point x="425" y="354" type="curve"/>
      <point x="461" y="317"/>
      <point x="480" y="305"/>
      <point x="511" y="290" type="curve"/>
      <point x="524" y="284"/>
      <point x="530" y="269"/>
      <point x="524" y="256" type="curve"/>
      <point x="515" y="238" type="line"/>
      <point x="512" y="231"/>
      <point x="507" y="226"/>
      <point x="500" y="224" type="curve"/>
      <point x="498" y="223"/>
      <point x="494" y="222"/>
      <point x="491" y="222" type="curve"/>
      <point x="488" y="222"/>
      <point x="484" y="223"/>
      <point x="480" y="225" type="curve"/>
      <point x="449" y="239"/>
      <point x="428" y="246"/>
      <point x="376" y="250" type="curve"/>
      <point x="367" y="251"/>
      <point x="359" y="255"/>
      <point x="355" y="263" type="curve"/>
      <point x="351" y="270"/>
      <point x="350" y="279"/>
      <point x="354" y="287" type="curve"/>
      <point x="382" y="347" type="line"/>
      <point x="386" y="355"/>
      <point x="393" y="360"/>
      <point x="401" y="362" type="curve"/>
      <point x="403" y="362"/>
      <point x="404" y="362"/>
    </contour>
  <component base="u12562" xOffset="158"/>
  </outline>
</glyph>
<glyph name="u1263F" format="2">
  <advance width="1361"/>
  <unicode hex="1263F"/>
  <outline>
    <contour>
      <point x="599" y="422" type="curve"/>
      <point x="627" y="482" type="line"/>
      <point x="666" y="441"/>
      <point x="688" y="428"/>
      <point x="721" y="412" type="curve"/>
      <point x="712" y="394" type="line"/>
      <point x="680" y="410"/>
      <point x="655" y="418"/>
    </contour>
    <contour>
      <point x="627" y="482" type="line"/>
      <point x="666" y="441"/>
      <point x="688" y="428"/>
      <point x="721" y="412" type="curve"/>
      <point x="712" y="394" type="line"/>
      <point x="680" y="410"/>
      <point x="655" y="418"/>
      <point x="599" y="422" type="curve"/>
      <point x="627" y="482" type="line"/>
    </contour>
    <contour>
      <point x="627" y="508" type="curve"/>
      <point x="627" y="508" type="line"/>
      <point x="627" y="508" type="line"/>
      <point x="634" y="508"/>
      <point x="641" y="505"/>
      <point x="646" y="500" type="curve"/>
      <point x="682" y="463"/>
      <point x="701" y="451"/>
      <point x="732" y="436" type="curve"/>
      <point x="745" y="430"/>
      <point x="751" y="415"/>
      <point x="745" y="402" type="curve"/>
      <point x="736" y="384" type="line"/>
      <point x="733" y="377"/>
      <point x="728" y="372"/>
      <point x="721" y="370" type="curve"/>
      <point x="719" y="369"/>
      <point x="715" y="368"/>
      <point x="712" y="368" type="curve"/>
      <point x="709" y="368"/>
      <point x="705" y="369"/>
      <point x="701" y="371" type="curve"/>
      <point x="670" y="385"/>
      <point x="649" y="392"/>
      <point x="597" y="396" type="curve"/>
      <point x="588" y="397"/>
      <point x="580" y="401"/>
      <point x="576" y="409" type="curve"/>
      <point x="572" y="416"/>
      <point x="571" y="425"/>
      <point x="575" y="433" type="curve"/>
      <point x="603" y="493" type="line"/>
      <point x="607" y="501"/>
      <point x="614" y="506"/>
      <point x="622" y="508" type="curve"/>
      <point x="624" y="508"/>
      <point x="625" y="508"/>
    </contour>
    <contour>
      <point x="499" y="147" type="curve"/>
      <point x="527" y="207" type="line"/>
      <point x="566" y="166"/>
      <point x="588" y="153"/>
      <point x="621" y="137" type="curve"/>
      <point x="612" y="119" type="line"/>
      <point x="580" y="135"/>
      <point x="555" y="143"/>
    </contour>
    <contour>
      <point x="527" y="207" type="line"/>
      <point x="566" y="166"/>
      <point x="588" y="153"/>
      <point x="621" y="137" type="curve"/>
      <point x="612" y="119" type="line"/>
      <point x="580" y="135"/>
      <point x="555" y="143"/>
      <point x="499" y="147" type="curve"/>
      <point x="527" y="207" type="line"/>
    </contour>
    <contour>
      <point x="527" y="233" type="curve"/>
      <point x="527" y="233" type="line"/>
      <point x="527" y="233" type="line"/>
      <point x="534" y="233"/>
      <point x="541" y="230"/>
      <point x="546" y="225" type="curve"/>
      <point x="582" y="188"/>
      <point x="601" y="176"/>
      <point x="632" y="161" type="curve"/>
      <point x="645" y="155"/>
      <point x="651" y="140"/>
      <point x="645" y="127" type="curve"/>
      <point x="636" y="109" type="line"/>
      <point x="633" y="102"/>
      <point x="628" y="97"/>
      <point x="621" y="95" type="curve"/>
      <point x="619" y="94"/>
      <point x="615" y="93"/>
      <point x="612" y="93" type="curve"/>
      <point x="609" y="93"/>
      <point x="605" y="94"/>
      <point x="601" y="96" type="curve"/>
      <point x="570" y="110"/>
      <point x="549" y="117"/>
      <point x="497" y="121" type="curve"/>
      <point x="488" y="122"/>
      <point x="480" y="126"/>
      <point x="476" y="134" type="curve"/>
      <point x="472" y="141"/>
      <point x="471" y="150"/>
      <point x="475" y="158" type="curve"/>
      <point x="503" y="218" type="line"/>
      <point x="507" y="226"/>
      <point x="514" y="231"/>
      <point x="522" y="233" type="curve"/>
      <point x="524" y="233"/>
      <point x="525" y="233"/>
    </contour>
    <contour>
      <point x="1139" y="547" type="line"/>
      <point x="1195" y="543"/>
      <point x="1220" y="535"/>
      <point x="1252" y="520" type="curve"/>
      <point x="1261" y="538" type="line"/>
      <point x="1228" y="553"/>
      <point x="1206" y="567"/>
      <point x="1167" y="607" type="curve"/>
      <point x="1139" y="547" type="line"/>
    </contour>
    <contour>
      <point x="1128" y="-71" type="line"/>
      <point x="1184" y="-75"/>
      <point x="1209" y="-83"/>
      <point x="1241" y="-98" type="curve"/>
      <point x="1250" y="-80" type="line"/>
      <point x="1217" y="-65"/>
      <point x="1195" y="-51"/>
      <point x="1156" y="-11" type="curve"/>
      <point x="1128" y="-71" type="line"/>
    </contour>
    <contour>
      <point x="100" y="367" type="line"/>
      <point x="156" y="363"/>
      <point x="181" y="355"/>
      <point x="213" y="340" type="curve"/>
      <point x="222" y="358" type="line"/>
      <point x="189" y="373"/>
      <point x="167" y="387"/>
      <point x="128" y="427" type="curve"/>
      <point x="100" y="367" type="line"/>
    </contour>
  <component base="u12579" xOffset="177"/>
  </outline>
</glyph>
<glyph name="u12641" format="2">
  <advance width="1704"/>
  <unicode hex="12641"/>
  <outline>
    <contour>
      <point x="1604" y="280" type="curve"/>
      <point x="1604" y="652"/>
      <point x="412" y="700"/>
      <point x="319" y="700" type="curve"/>
      <point x="266" y="700" type="line"/>
      <point x="266" y="-139" type="line"/>
      <point x="319" y="-139" type="line"/>
      <point x="412" y="-139"/>
      <point x="1604" y="-92"/>
    </contour>
    <contour>
      <point x="1563" y="280" type="curve"/>
      <point x="1563" y="-70"/>
      <point x="389" y="-99"/>
      <point x="319" y="-99" type="curve"/>
      <point x="323" y="-95"/>
      <point x="512" y="20"/>
      <point x="512" y="280" type="curve"/>
      <point x="512" y="540"/>
      <point x="327" y="643"/>
      <point x="319" y="659" type="curve"/>
      <point x="389" y="659"/>
      <point x="1563" y="630"/>
    </contour>
    <contour>
      <point x="1481" y="-30" type="line"/>
      <point x="1537" y="-34"/>
      <point x="1562" y="-42"/>
      <point x="1594" y="-57" type="curve"/>
      <point x="1603" y="-39" type="line"/>
      <point x="1570" y="-24"/>
      <point x="1548" y="-10"/>
      <point x="1509" y="30" type="curve"/>
      <point x="1481" y="-30" type="line"/>
    </contour>
    <contour>
      <point x="1340" y="613" type="line"/>
      <point x="1396" y="609"/>
      <point x="1421" y="601"/>
      <point x="1453" y="586" type="curve"/>
      <point x="1462" y="604" type="line"/>
      <point x="1429" y="619"/>
      <point x="1407" y="633"/>
      <point x="1368" y="673" type="curve"/>
      <point x="1340" y="613" type="line"/>
    </contour>
    <contour>
      <point x="990" y="344" type="line"/>
      <point x="1046" y="340"/>
      <point x="1071" y="332"/>
      <point x="1103" y="317" type="curve"/>
      <point x="1112" y="335" type="line"/>
      <point x="1079" y="350"/>
      <point x="1057" y="364"/>
      <point x="1018" y="404" type="curve"/>
      <point x="990" y="344" type="line"/>
    </contour>
    <contour>
      <point x="591" y="104" type="line"/>
      <point x="647" y="100"/>
      <point x="672" y="92"/>
      <point x="704" y="77" type="curve"/>
      <point x="713" y="95" type="line"/>
      <point x="680" y="110"/>
      <point x="658" y="124"/>
      <point x="619" y="164" type="curve"/>
      <point x="591" y="104" type="line"/>
    </contour>
    <contour>
      <point x="100" y="496" type="line"/>
      <point x="156" y="492"/>
      <point x="181" y="484"/>
      <point x="213" y="469" type="curve"/>
      <point x="222" y="487" type="line"/>
      <point x="189" y="502"/>
      <point x="167" y="516"/>
      <point x="128" y="556" type="curve"/>
      <point x="100" y="496" type="line"/>
    </contour>
  </outline>
</glyph>
<glyph name="u12643" format="2">
  <advance width="671"/>
  <unicode hex="12643"/>
  <outline>
    <contour>
      <point x="316" y="-188" type="curve"/>
      <point x="501" y="-188"/>
      <point x="533" y="577"/>
      <point x="533" y="670" type="curve"/>
      <point x="533" y="723" type="line"/>
      <point x="100" y="723" type="line"/>
      <point x="100" y="670" type="line"/>
      <point x="100" y="577"/>
      <point x="131" y="-188"/>
    </contour>
    <contour>
      <point x="316" y="-145" type="curve"/>
      <point x="163" y="-145"/>
      <point x="140" y="600"/>
      <point x="140" y="670" type="curve"/>
      <point x="154" y="646"/>
      <point x="206" y="564"/>
      <point x="316" y="564" type="curve"/>
      <point x="426" y="564"/>
      <point x="466" y="642"/>
      <point x="492" y="670" type="curve"/>
      <point x="492" y="600"/>
      <point x="469" y="-145"/>
    </contour>
    <contour>
      <point x="127" y="511" type="line"/>
      <point x="200" y="536"/>
      <point x="518" y="537"/>
      <point x="571" y="537" type="curve"/>
      <point x="571" y="557" type="line"/>
      <point x="518" y="557"/>
      <point x="188" y="563"/>
      <point x="127" y="583" type="curve"/>
    </contour>
    <contour>
      <point x="127" y="360" type="line"/>
      <point x="200" y="385"/>
      <point x="518" y="386"/>
      <point x="571" y="386" type="curve"/>
      <point x="571" y="406" type="line"/>
      <point x="518" y="406"/>
      <point x="188" y="412"/>
      <point x="127" y="432" type="curve"/>
    </contour>
    <contour>
      <point x="127" y="190" type="line"/>
      <point x="200" y="215"/>
      <point x="518" y="216"/>
      <point x="571" y="216" type="curve"/>
      <point x="571" y="236" type="line"/>
      <point x="518" y="236"/>
      <point x="188" y="242"/>
      <point x="127" y="262" type="curve"/>
    </contour>
    <contour>
      <point x="127" y="19" type="line"/>
      <point x="200" y="44"/>
      <point x="518" y="45"/>
      <point x="571" y="45" type="curve"/>
      <point x="571" y="65" type="line"/>
      <point x="518" y="65"/>
      <point x="188" y="71"/>
      <point x="127" y="91" type="curve"/>
    </contour>
  </outline>
</glyph>
<glyph name="u12644" format="2">
  <advance width="662"/>
  <unicode hex="12644"/>
  <outline>
    <contour>
      <point x="316" y="-457" type="curve"/>
      <point x="511" y="-457"/>
      <point x="533" y="654"/>
      <point x="533" y="747" type="curve"/>
      <point x="533" y="800" type="line"/>
      <point x="100" y="800" type="line"/>
      <point x="100" y="747" type="line"/>
      <point x="100" y="654"/>
      <point x="121" y="-457"/>
    </contour>
    <contour>
      <point x="316" y="-418" type="curve"/>
      <point x="153" y="-418"/>
      <point x="140" y="677"/>
      <point x="140" y="747" type="curve"/>
      <point x="154" y="723"/>
      <point x="246" y="694"/>
      <point x="316" y="694" type="curve"/>
      <point x="386" y="694"/>
      <point x="466" y="719"/>
      <point x="492" y="747" type="curve"/>
      <point x="492" y="677"/>
      <point x="479" y="-418"/>
    </contour>
    <contour>
      <point x="118" y="607" type="line"/>
      <point x="191" y="632"/>
      <point x="509" y="633"/>
      <point x="562" y="633" type="curve"/>
      <point x="562" y="653" type="line"/>
      <point x="509" y="653"/>
      <point x="179" y="659"/>
      <point x="118" y="679" type="curve"/>
    </contour>
    <contour>
      <point x="118" y="491" type="line"/>
      <point x="191" y="516"/>
      <point x="509" y="517"/>
      <point x="562" y="517" type="curve"/>
      <point x="562" y="537" type="line"/>
      <point x="509" y="537"/>
      <point x="179" y="543"/>
      <point x="118" y="563" type="curve"/>
    </contour>
    <contour>
      <point x="118" y="355" type="line"/>
      <point x="191" y="380"/>
      <point x="509" y="381"/>
      <point x="562" y="381" type="curve"/>
      <point x="562" y="401" type="line"/>
      <point x="509" y="401"/>
      <point x="179" y="407"/>
      <point x="118" y="427" type="curve"/>
    </contour>
    <contour>
      <point x="118" y="221" type="line"/>
      <point x="191" y="246"/>
      <point x="509" y="247"/>
      <point x="562" y="247" type="curve"/>
      <point x="562" y="267" type="line"/>
      <point x="509" y="267"/>
      <point x="179" y="273"/>
      <point x="118" y="293" type="curve"/>
    </contour>
    <contour>
      <point x="118" y="103" type="line"/>
      <point x="191" y="128"/>
      <point x="509" y="129"/>
      <point x="562" y="129" type="curve"/>
      <point x="562" y="149" type="line"/>
      <point x="509" y="149"/>
      <point x="179" y="155"/>
      <point x="118" y="175" type="curve"/>
    </contour>
    <contour>
      <point x="118" y="-24" type="line"/>
      <point x="191" y="1"/>
      <point x="509" y="2"/>
      <point x="562" y="2" type="curve"/>
      <point x="562" y="22" type="line"/>
      <point x="509" y="22"/>
      <point x="179" y="28"/>
      <point x="118" y="48" type="curve"/>
    </contour>
    <contour>
      <point x="118" y="-150" type="line"/>
      <point x="191" y="-125"/>
      <point x="509" y="-124"/>
      <point x="562" y="-124" type="curve"/>
      <point x="562" y="-104" type="line"/>
      <point x="509" y="-104"/>
      <point x="179" y="-98"/>
      <point x="118" y="-78" type="curve"/>
    </contour>
  </outline>
</glyph>
